<?xml version="1.0" encoding="UTF-8"?>
<svg version="1.1" xmlns="http://www.w3.org/2000/svg" width="471" height="395">
<path d="M0 0 C0.67337829 -0.00226556 1.34675658 -0.00453111 2.04054028 -0.00686532 C4.30756672 -0.01321932 6.5745336 -0.01237507 8.84156799 -0.0115509 C10.46259133 -0.01454151 12.08361395 -0.01794381 13.70463562 -0.02172852 C18.11573876 -0.03058244 22.52682252 -0.0329072 26.93793368 -0.0335443 C30.61603917 -0.03449227 34.29414011 -0.03816925 37.97224385 -0.0417164 C46.6472748 -0.04986615 55.32229537 -0.05230015 63.99732971 -0.05158997 C72.9564201 -0.05098894 81.91545033 -0.06154459 90.87452549 -0.07733363 C98.55777917 -0.09039343 106.24101314 -0.09577452 113.92427784 -0.09513456 C118.51695783 -0.09487912 123.10958437 -0.09775533 127.70225334 -0.10831261 C132.02042457 -0.11796747 136.33849096 -0.11809081 140.6566658 -0.11079597 C142.24377787 -0.10974689 143.83089638 -0.11213211 145.41799736 -0.11815643 C147.58022193 -0.12583381 149.74208061 -0.12126015 151.90429688 -0.11352539 C153.1157006 -0.11407016 154.32710432 -0.11461493 155.57521725 -0.1151762 C158.51564026 0.13371277 158.51564026 0.13371277 161.51564026 2.13371277 C161.89316368 4.96670532 161.89316368 4.96670532 161.89659119 8.6627655 C161.90127116 9.34093291 161.90595113 10.01910032 161.91077292 10.71781826 C161.92278498 13.00117714 161.913242 15.28394268 161.90382385 17.56730652 C161.90788682 19.19980725 161.91322714 20.83230523 161.91975403 22.46479797 C161.93346627 26.90688911 161.92811295 31.34877193 161.91861677 35.79086685 C161.91104034 40.43176602 161.91806015 45.07264692 161.92277527 49.71354675 C161.92823872 57.50825719 161.92102577 65.30288244 161.90675354 73.09757996 C161.89042589 82.11921864 161.89571398 91.14065396 161.91223276 100.16228771 C161.92583086 107.89734486 161.92777551 115.63234066 161.91991675 123.36740589 C161.91523099 127.99192452 161.91464007 132.61634744 161.92452621 137.24085999 C161.9331693 141.58781872 161.92722295 145.93451435 161.90984344 150.28144455 C161.90586432 151.88025856 161.90703688 153.47909457 161.91363144 155.07789993 C161.92178127 157.25378926 161.91160642 159.42882565 161.89659119 161.60466003 C161.89546011 162.82435989 161.89432903 164.04405975 161.89316368 165.30072021 C161.76858095 166.23560776 161.64399822 167.1704953 161.51564026 168.13371277 C157.88911742 170.55139466 156.22835855 170.3849898 151.911026 170.38768005 C151.23679328 170.39080003 150.56256057 170.39392002 149.86789656 170.39713454 C147.60390504 170.40512526 145.34018075 170.39878684 143.07618713 170.39250183 C141.45501549 170.39521122 139.83384507 170.39877186 138.212677 170.40312195 C133.80573838 170.41225443 129.3988932 170.40869817 124.9919529 170.40236378 C120.38489653 170.39730823 115.77784829 170.40199399 111.17079163 170.40513611 C103.43335022 170.40877705 95.69594697 170.40397329 87.95851135 170.39445496 C79.00677861 170.38357016 70.05513696 170.38709565 61.10340643 170.39810777 C53.42437379 170.40717699 45.74536861 170.40846771 38.06633234 170.40323043 C33.477027 170.40010872 28.88776452 170.3997069 24.29846191 170.40630341 C19.98437157 170.41207093 15.67039893 170.40809088 11.35632133 170.39651489 C9.77082452 170.39386512 8.18531783 170.39463878 6.59982491 170.39904022 C4.43983331 170.40448471 2.28022173 170.3976752 0.12025452 170.38768005 C-1.08985039 170.386926 -2.29995529 170.38617195 -3.54673004 170.38539505 C-6.48435974 170.13371277 -6.48435974 170.13371277 -9.48435974 168.13371277 C-10.60237354 164.77967138 -10.61301681 162.26114749 -10.61807251 158.72564697 C-10.62033807 158.07253758 -10.62260362 157.41942819 -10.62493783 156.74652761 C-10.63127729 154.55403824 -10.63044851 152.36161069 -10.62962341 150.16911316 C-10.63261492 148.59882528 -10.63601743 147.02853813 -10.63980103 145.45825195 C-10.6486456 141.18969819 -10.65097932 136.92116447 -10.65161681 132.65260243 C-10.65256561 129.09135139 -10.65624354 125.53010504 -10.65978891 121.9688558 C-10.66793503 113.56848345 -10.67037298 105.16812182 -10.66966248 96.76774597 C-10.66906147 88.09664865 -10.67961751 79.4256135 -10.69540614 70.75453192 C-10.7084721 63.31412782 -10.71384678 55.87374406 -10.71320707 48.43332857 C-10.71295182 43.98762512 -10.71581758 39.54197691 -10.72638512 35.09628487 C-10.73605036 30.91598652 -10.73615613 26.73579642 -10.72886848 22.55549431 C-10.72782071 21.02040321 -10.7301969 19.48530543 -10.73622894 17.95022583 C-10.74392477 15.85627648 -10.73932034 13.76270322 -10.7315979 11.66876221 C-10.73214267 10.49645082 -10.73268744 9.32413942 -10.73324871 8.11630344 C-10.49021839 5.20392061 -10.10029855 3.54267544 -8.48435974 1.13371277 C-5.62598435 -0.29547493 -3.1964939 0.00442338 0 0 Z M2.51564026 11.13371277 C2.51564026 33.57371277 2.51564026 56.01371277 2.51564026 79.13371277 C6.47564026 79.13371277 10.43564026 79.13371277 14.51564026 79.13371277 C15.13439026 77.40121277 15.75314026 75.66871277 16.39064026 73.88371277 C18.99689026 66.58621277 18.99689026 66.58621277 20.51564026 64.13371277 C22.00064026 63.63871277 22.00064026 63.63871277 23.51564026 63.13371277 C23.51564026 62.47371277 23.51564026 61.81371277 23.51564026 61.13371277 C24.46439026 60.98933777 25.41314026 60.84496277 26.39064026 60.69621277 C29.40908966 60.30435878 29.40908966 60.30435878 31.51564026 59.13371277 C38.82999776 58.03025366 44.38901137 60.20780437 50.51564026 64.13371277 C55.08404664 68.07819328 56.36249766 73.36799975 57.51564026 79.13371277 C61.80564026 79.13371277 66.09564026 79.13371277 70.51564026 79.13371277 C70.84564026 71.21371277 71.17564026 63.29371277 71.51564026 55.13371277 C76.34962463 54.93840027 76.34962463 54.93840027 81.18360901 54.74308777 C85.06119125 54.03394025 86.76786313 52.92167676 89.51564026 50.13371277 C90.63030676 46.30204666 90.85606351 44.09115316 89.51564026 40.32121277 C86.75222736 37.29872991 84.51254879 36.86647933 80.51564026 36.13371277 C78.1826204 36.09546654 75.84852518 36.08796993 73.51564026 36.13371277 C72.85564026 35.80371277 72.19564026 35.47371277 71.51564026 35.13371277 C71.18564026 27.21371277 70.85564026 19.29371277 70.51564026 11.13371277 C48.07564026 11.13371277 25.63564026 11.13371277 2.51564026 11.13371277 Z M81.51564026 91.13371277 C81.42476135 93.60677917 81.42476135 93.60677917 81.33204651 96.12980652 C81.24766089 98.27695177 81.16301191 100.42408668 81.07814026 102.57121277 C81.03882385 103.65982605 80.99950745 104.74843933 80.95899963 105.87004089 C80.9171051 106.90451355 80.87521057 107.93898621 80.83204651 109.00480652 C80.79538879 109.96314392 80.75873108 110.92148132 80.72096252 111.90885925 C80.51564026 114.13371277 80.51564026 114.13371277 79.51564026 115.13371277 C77.78547068 115.07476321 76.05626988 114.98632775 74.32814026 114.88371277 C70.55508783 114.85918057 67.95713563 114.89446685 64.89064026 117.19621277 C62.04795733 120.71216271 61.43520327 122.62924145 61.51564026 127.13371277 C62.73230988 130.0152987 63.65816463 131.59195256 66.30860901 133.26652527 C68.91885258 134.2921431 70.84760622 134.30043046 73.64064026 134.19621277 C78.32119581 134.03649055 78.32119581 134.03649055 80.51564026 135.13371277 C80.84564026 143.05371277 81.17564026 150.97371277 81.51564026 159.13371277 C103.95564026 159.13371277 126.39564026 159.13371277 149.51564026 159.13371277 C149.51564026 136.69371277 149.51564026 114.25371277 149.51564026 91.13371277 C145.55564026 91.13371277 141.59564026 91.13371277 137.51564026 91.13371277 C137.21271057 91.94195496 136.90978088 92.75019714 136.59767151 93.58293152 C133.67788868 101.03062371 131.45330138 105.93770945 124.26564026 109.94621277 C117.45349531 112.103392 112.62595211 111.94586812 106.14064026 108.82121277 C100.07198553 105.61349527 97.96736196 102.5973427 95.51564026 96.13371277 C95.02064026 93.65871277 95.02064026 93.65871277 94.51564026 91.13371277 C90.22564026 91.13371277 85.93564026 91.13371277 81.51564026 91.13371277 Z " fill="#FAFAFB" transform="translate(160.48435974121094,112.86628723144531)"/>
<path d="M0 0 C1.01771484 -0.00257812 2.03542969 -0.00515625 3.08398438 -0.0078125 C4.15068359 -0.00007812 5.21738281 0.00765625 6.31640625 0.015625 C7.9106543 0.00402344 7.9106543 0.00402344 9.53710938 -0.0078125 C11.06561523 -0.00394531 11.06561523 -0.00394531 12.625 0 C14.02770142 0.00338379 14.02770142 0.00338379 15.45874023 0.00683594 C17.87890625 0.265625 17.87890625 0.265625 20.87890625 2.265625 C21.7578125 5.26953125 21.7578125 5.26953125 22.44140625 8.828125 C22.85986552 10.98661828 23.32591469 13.13762084 23.87890625 15.265625 C24.86890625 15.760625 24.86890625 15.760625 25.87890625 16.265625 C26.82765625 15.605625 27.77640625 14.945625 28.75390625 14.265625 C31.87890625 12.265625 31.87890625 12.265625 33.87890625 12.265625 C33.87890625 11.605625 33.87890625 10.945625 33.87890625 10.265625 C36.59287102 9.41751101 38.1087852 8.95495722 40.87890625 9.265625 C43.94791832 11.20844308 46.52091898 13.50341135 48.87890625 16.265625 C48.87890625 16.925625 48.87890625 17.585625 48.87890625 18.265625 C49.74515625 18.575 49.74515625 18.575 50.62890625 18.890625 C53.82854487 20.84595971 55.16044697 22.95599972 56.87890625 26.265625 C56.9861566 31.19914109 54.71523427 34.48359505 52.03515625 38.43359375 C50.71178913 40.3687905 50.71178913 40.3687905 49.87890625 43.265625 C50.69875 43.30300781 51.51859375 43.34039062 52.36328125 43.37890625 C53.4409375 43.44464844 54.51859375 43.51039062 55.62890625 43.578125 C56.69625 43.63613281 57.76359375 43.69414063 58.86328125 43.75390625 C62.20475793 44.32091848 63.48221236 44.91121823 65.87890625 47.265625 C66.36474609 49.76171875 66.36474609 49.76171875 66.33984375 52.703125 C66.33597656 53.76273438 66.33210938 54.82234375 66.328125 55.9140625 C66.29138672 57.57308594 66.29138672 57.57308594 66.25390625 59.265625 C66.25261719 60.37164062 66.25132812 61.47765625 66.25 62.6171875 C66.15992434 70.84409787 66.15992434 70.84409787 63.87890625 74.265625 C60.83984375 75.21484375 60.83984375 75.21484375 57.25390625 75.953125 C56.06539063 76.20449219 54.876875 76.45585938 53.65234375 76.71484375 C52.73710937 76.89660156 51.821875 77.07835938 50.87890625 77.265625 C51.20890625 79.245625 51.53890625 81.225625 51.87890625 83.265625 C52.53890625 83.265625 53.19890625 83.265625 53.87890625 83.265625 C55.86746736 85.86605106 56.81192482 87.92327546 57.44140625 91.140625 C56.10995199 98.53759311 48.46258641 103.75343996 42.87890625 108.265625 C39.87890625 110.265625 39.87890625 110.265625 37.44140625 110.015625 C35.05938311 109.31844749 33.04344483 108.46814643 30.87890625 107.265625 C30.87890625 106.605625 30.87890625 105.945625 30.87890625 105.265625 C28.89890625 104.605625 26.91890625 103.945625 24.87890625 103.265625 C23.09988091 107.20489539 22.27159829 111.04570495 21.5390625 115.27734375 C20.87890625 117.265625 20.87890625 117.265625 17.87890625 119.265625 C14.06065163 119.72701036 10.22207209 119.63594392 6.37890625 119.640625 C5.32058594 119.66511719 4.26226562 119.68960938 3.171875 119.71484375 C2.15738281 119.71871094 1.14289063 119.72257812 0.09765625 119.7265625 C-0.83111328 119.73478027 -1.75988281 119.74299805 -2.71679688 119.75146484 C-5.12109375 119.265625 -5.12109375 119.265625 -6.90429688 117.34619141 C-9.58056233 112.77012114 -9.20748257 108.44895412 -9.12109375 103.265625 C-12.58609375 103.760625 -12.58609375 103.760625 -16.12109375 104.265625 C-16.12109375 104.925625 -16.12109375 105.585625 -16.12109375 106.265625 C-19.15912418 108.79731702 -20.98255374 110.31479272 -25.015625 110.140625 C-30.59245823 108.56929086 -34.10655276 104.27348623 -38.12109375 100.265625 C-38.98927734 99.41484375 -38.98927734 99.41484375 -39.875 98.546875 C-42.01059144 96.25917591 -43.07929333 94.44042675 -43.80859375 91.390625 C-42.9417083 87.45023658 -41.11373416 85.23568392 -38.53125 82.1953125 C-37.06308708 80.18624746 -36.54756055 78.69486624 -36.12109375 76.265625 C-36.99121094 76.19214844 -36.99121094 76.19214844 -37.87890625 76.1171875 C-49.36926893 75.01744982 -49.36926893 75.01744982 -53.12109375 71.265625 C-53.57592142 67.47216009 -53.44512725 63.64571371 -53.43359375 59.828125 C-53.44970703 58.76529297 -53.46582031 57.70246094 -53.48242188 56.60742188 C-53.48306641 55.58841797 -53.48371094 54.56941406 -53.484375 53.51953125 C-53.48884644 52.11682983 -53.48884644 52.11682983 -53.4934082 50.68579102 C-53.12109375 48.265625 -53.12109375 48.265625 -51.83666992 46.51147461 C-47.39165041 43.28350612 -41.4292392 43.00021773 -36.12109375 43.265625 C-37.11109375 39.800625 -37.11109375 39.800625 -38.12109375 36.265625 C-38.78109375 36.265625 -39.44109375 36.265625 -40.12109375 36.265625 C-40.12109375 35.275625 -40.12109375 34.285625 -40.12109375 33.265625 C-40.78109375 33.265625 -41.44109375 33.265625 -42.12109375 33.265625 C-43.59941635 30.30897981 -43.18142158 27.52332763 -43.12109375 24.265625 C-42.13109375 23.935625 -41.14109375 23.605625 -40.12109375 23.265625 C-38.91227279 21.26546034 -38.91227279 21.26546034 -38.12109375 19.265625 C-37.46109375 19.265625 -36.80109375 19.265625 -36.12109375 19.265625 C-35.79109375 18.275625 -35.46109375 17.285625 -35.12109375 16.265625 C-34.46109375 16.265625 -33.80109375 16.265625 -33.12109375 16.265625 C-32.79109375 15.275625 -32.46109375 14.285625 -32.12109375 13.265625 C-29.60200668 10.81651257 -28.01354222 9.39311764 -24.49609375 8.890625 C-22.12109375 9.265625 -22.12109375 9.265625 -19.12109375 11.265625 C-19.12109375 11.925625 -19.12109375 12.585625 -19.12109375 13.265625 C-18.13109375 13.265625 -17.14109375 13.265625 -16.12109375 13.265625 C-16.12109375 13.925625 -16.12109375 14.585625 -16.12109375 15.265625 C-13.81109375 15.595625 -11.50109375 15.925625 -9.12109375 16.265625 C-9.14429688 15.67394531 -9.1675 15.08226562 -9.19140625 14.47265625 C-9.29448351 9.95934492 -9.34001465 6.33364665 -7.12109375 2.265625 C-4.55727096 -0.29819779 -3.5573506 0.00859189 0 0 Z M3.87890625 12.265625 C2.11275507 16.97536149 1.39295794 21.29645864 0.87890625 26.265625 C-0.39984375 26.575 -1.67859375 26.884375 -2.99609375 27.203125 C-5.2221105 27.74167744 -7.06849374 28.239325 -9.12109375 29.265625 C-16.06431234 29.95994686 -16.06431234 29.95994686 -18.875 28.11328125 C-20.29135212 26.83181981 -21.70630163 25.54880855 -23.12109375 24.265625 C-24.11109375 24.595625 -25.10109375 24.925625 -26.12109375 25.265625 C-26.12109375 25.925625 -26.12109375 26.585625 -26.12109375 27.265625 C-27.11109375 27.595625 -28.10109375 27.925625 -29.12109375 28.265625 C-28.67636719 28.8225 -28.23164063 29.379375 -27.7734375 29.953125 C-22.57360044 36.96520595 -22.57360044 36.96520595 -23.12109375 41.640625 C-24.12109375 45.265625 -24.12109375 45.265625 -26.12109375 48.265625 C-26.61609375 50.740625 -26.61609375 50.740625 -27.12109375 53.265625 C-31.41109375 54.255625 -35.70109375 55.245625 -40.12109375 56.265625 C-40.12109375 58.575625 -40.12109375 60.885625 -40.12109375 63.265625 C-39.31285156 63.36617187 -38.50460937 63.46671875 -37.671875 63.5703125 C-29.19154227 65.0638331 -29.19154227 65.0638331 -26.2109375 68.41015625 C-23.38749743 73.76893027 -22.56628744 78.27371681 -23.12109375 84.265625 C-23.78109375 84.265625 -24.44109375 84.265625 -25.12109375 84.265625 C-26.44109375 86.575625 -27.76109375 88.885625 -29.12109375 91.265625 C-27.80109375 92.585625 -26.48109375 93.905625 -25.12109375 95.265625 C-22.46460795 94.30633846 -20.39488851 93.50291379 -18.24609375 91.640625 C-14.46919831 89.19675148 -11.03144643 89.87465432 -6.7734375 90.74609375 C-4.05697003 91.61624674 -2.29029722 92.39577161 -0.12109375 94.265625 C1.50558393 98.18972082 2.17240325 102.09599567 2.87890625 106.265625 C4.06314951 107.68139977 4.06314951 107.68139977 7.44140625 107.328125 C8.57578125 107.3075 9.71015625 107.286875 10.87890625 107.265625 C10.94207031 106.44578125 11.00523437 105.6259375 11.0703125 104.78125 C12.03661208 96.27781374 12.03661208 96.27781374 14.25390625 93.61328125 C18.54459738 90.98126007 23.88205938 89.85069249 28.87890625 90.265625 C31.47182828 91.34183781 33.51574286 92.70593716 35.87890625 94.265625 C38.83046973 94.5562441 38.83046973 94.5562441 40.62890625 93.015625 C42.14365712 91.32076716 42.14365712 91.32076716 41.56640625 89.078125 C41.33953125 88.48 41.11265625 87.881875 40.87890625 87.265625 C40.21890625 87.265625 39.55890625 87.265625 38.87890625 87.265625 C35.98603396 81.65004938 37.28690726 76.82782654 39.00390625 71.015625 C40.33278492 67.6805266 40.82531044 67.29757635 44.12890625 65.328125 C47.72890598 64.30812508 51.15910301 63.64519676 54.87890625 63.265625 C54.87890625 60.955625 54.87890625 58.645625 54.87890625 56.265625 C53.99847656 56.16507813 53.11804688 56.06453125 52.2109375 55.9609375 C42.94419135 54.45933379 42.94419135 54.45933379 39.90234375 51.05078125 C37.6447208 46.66095885 35.78202556 42.20158809 36.87890625 37.265625 C38.35631657 34.76421649 40.02704459 32.50108657 41.87890625 30.265625 C40.50907122 27.10446724 39.88984245 26.2729158 36.87890625 24.265625 C34.84057201 25.5395839 32.84038499 26.87624423 30.87890625 28.265625 C30.87890625 28.925625 30.87890625 29.585625 30.87890625 30.265625 C24.68062306 29.97866744 18.9497262 29.0961005 13.87890625 25.265625 C12.03825805 22.40441937 11.55035799 19.87541144 11.25390625 16.515625 C11.17914063 15.71640625 11.104375 14.9171875 11.02734375 14.09375 C10.97835937 13.49046875 10.929375 12.8871875 10.87890625 12.265625 C8.56890625 12.265625 6.25890625 12.265625 3.87890625 12.265625 Z " fill="#F9F9FB" transform="translate(368.12109375,-0.265625)"/>
<path d="M0 0 C1.6097168 0.01450195 1.6097168 0.01450195 3.25195312 0.02929688 C4.37150391 0.05443359 5.49105469 0.07957031 6.64453125 0.10546875 C7.77568359 0.11900391 8.90683594 0.13253906 10.07226562 0.14648438 C12.86766442 0.18186917 15.66211017 0.23123927 18.45703125 0.29296875 C22.99274554 7.58761161 22.99274554 7.58761161 22.70703125 12.23046875 C22.6709375 13.00261719 22.63484375 13.77476563 22.59765625 14.5703125 C22.55125 15.13878906 22.50484375 15.70726562 22.45703125 16.29296875 C26.38125242 16.04770493 28.44224418 14.63876434 31.39453125 12.23046875 C34.01345639 10.19735581 35.35464231 9.31706027 38.64453125 8.54296875 C42.67780123 9.61850741 44.02388792 12.00493722 46.45703125 15.29296875 C47.44703125 15.95296875 48.43703125 16.61296875 49.45703125 17.29296875 C49.45703125 17.95296875 49.45703125 18.61296875 49.45703125 19.29296875 C50.94203125 19.78796875 50.94203125 19.78796875 52.45703125 20.29296875 C55.24480701 22.22296736 55.47717275 23.38696242 56.20703125 26.79296875 C56.45703125 30.29296875 56.45703125 30.29296875 55.45703125 33.29296875 C54.79703125 33.29296875 54.13703125 33.29296875 53.45703125 33.29296875 C53.16828125 34.01484375 52.87953125 34.73671875 52.58203125 35.48046875 C51.54036458 38.08463542 50.49869792 40.68880208 49.45703125 43.29296875 C50.19308594 43.33035156 50.92914063 43.36773437 51.6875 43.40625 C52.66332031 43.47199219 53.63914062 43.53773437 54.64453125 43.60546875 C55.60746094 43.66347656 56.57039063 43.72148438 57.5625 43.78125 C60.91724704 44.37432944 62.76345747 45.20616144 65.45703125 47.29296875 C66.05639648 49.89672852 66.05639648 49.89672852 66.015625 52.984375 C66.00853516 54.09361328 66.00144531 55.20285156 65.99414062 56.34570312 C65.94483398 58.08303711 65.94483398 58.08303711 65.89453125 59.85546875 C65.88583008 61.59860352 65.88583008 61.59860352 65.87695312 63.37695312 C65.75156803 71.99843197 65.75156803 71.99843197 63.45703125 74.29296875 C58.9127707 75.73927564 54.23177951 76.60101702 49.45703125 76.29296875 C50.61123167 79.65064269 52.1245262 82.28385043 54.14453125 85.16796875 C56.04819033 88.09581868 56.79136669 89.80936459 56.26953125 93.29296875 C55.86734375 94.77796875 55.86734375 94.77796875 55.45703125 96.29296875 C53.97203125 96.78796875 53.97203125 96.78796875 52.45703125 97.29296875 C51.75551973 98.60830285 51.091772 99.94414467 50.45703125 101.29296875 C48.95703125 103.04296875 48.95703125 103.04296875 47.45703125 104.29296875 C46.79703125 104.29296875 46.13703125 104.29296875 45.45703125 104.29296875 C44.96203125 105.77796875 44.96203125 105.77796875 44.45703125 107.29296875 C43.79703125 107.29296875 43.13703125 107.29296875 42.45703125 107.29296875 C42.45703125 107.95296875 42.45703125 108.61296875 42.45703125 109.29296875 C38.67393209 110.32935669 36.94171196 110.51420982 33.31640625 108.859375 C31.77726562 107.86744141 31.77726562 107.86744141 30.20703125 106.85546875 C26.5938509 104.24073775 26.5938509 104.24073775 22.45703125 103.29296875 C22.49828125 104.48921875 22.53953125 105.68546875 22.58203125 106.91796875 C22.59554833 110.71626828 21.87712878 113.74272493 20.45703125 117.29296875 C19.79703125 117.29296875 19.13703125 117.29296875 18.45703125 117.29296875 C18.45703125 117.95296875 18.45703125 118.61296875 18.45703125 119.29296875 C14.51967002 119.37993052 10.58255497 119.4333471 6.64453125 119.48046875 C5.52498047 119.50560547 4.40542969 119.53074219 3.25195312 119.55664062 C2.17880859 119.56630859 1.10566406 119.57597656 0 119.5859375 C-0.9897583 119.60164795 -1.9795166 119.6173584 -2.99926758 119.63354492 C-5.54296875 119.29296875 -5.54296875 119.29296875 -7.34814453 117.95483398 C-9.11782906 115.49340313 -9.23546055 113.14958824 -9.60546875 110.16796875 C-9.96311159 107.00515005 -9.96311159 107.00515005 -10.54296875 104.29296875 C-11.53296875 103.79796875 -11.53296875 103.79796875 -12.54296875 103.29296875 C-15.3698797 105.00459277 -18.02387595 106.91243907 -20.71875 108.82421875 C-23.54296875 110.29296875 -23.54296875 110.29296875 -26.16015625 110.1953125 C-28.71143882 109.22917107 -30.32426396 108.16540941 -32.35546875 106.35546875 C-32.96003906 105.83082031 -33.56460938 105.30617188 -34.1875 104.765625 C-35.54296875 103.29296875 -35.54296875 103.29296875 -35.54296875 101.29296875 C-37.02796875 100.79796875 -37.02796875 100.79796875 -38.54296875 100.29296875 C-43.3478468 95.4880907 -43.3478468 95.4880907 -44.04296875 91.23046875 C-43.48336466 87.94279472 -42.56398376 85.93583454 -40.54296875 83.29296875 C-39.88296875 83.29296875 -39.22296875 83.29296875 -38.54296875 83.29296875 C-38.54296875 82.30296875 -38.54296875 81.31296875 -38.54296875 80.29296875 C-37.88296875 80.29296875 -37.22296875 80.29296875 -36.54296875 80.29296875 C-36.87296875 79.30296875 -37.20296875 78.31296875 -37.54296875 77.29296875 C-40.08995101 76.41256679 -42.49488149 75.71706485 -45.10546875 75.10546875 C-46.1718457 74.83959961 -46.1718457 74.83959961 -47.25976562 74.56835938 C-49.01802144 74.13174552 -50.7801703 73.71086441 -52.54296875 73.29296875 C-52.68782894 69.02249042 -52.77689491 64.75264042 -52.85546875 60.48046875 C-52.89736328 59.26552734 -52.93925781 58.05058594 -52.98242188 56.79882812 C-52.99853516 55.63544922 -53.01464844 54.47207031 -53.03125 53.2734375 C-53.05743408 52.19989014 -53.08361816 51.12634277 -53.1105957 50.02026367 C-52.54296875 47.29296875 -52.54296875 47.29296875 -50.19335938 45.45117188 C-47.25883453 44.16880398 -44.91924195 43.79756352 -41.73046875 43.60546875 C-40.75464844 43.53972656 -39.77882813 43.47398438 -38.7734375 43.40625 C-37.66935547 43.35017578 -37.66935547 43.35017578 -36.54296875 43.29296875 C-37.14446643 42.0624938 -37.74931945 40.83365891 -38.35546875 39.60546875 C-38.71640625 38.87070312 -39.07734375 38.1359375 -39.44921875 37.37890625 C-40.55921108 35.15015806 -40.55921108 35.15015806 -42.35546875 32.73046875 C-44.08326583 29.18393791 -43.47539099 27.0906885 -42.54296875 23.29296875 C-40.78063812 21.10010132 -39.22426786 19.39363795 -37.16796875 17.54296875 C-36.67296875 17.07503906 -36.17796875 16.60710938 -35.66796875 16.125 C-34.30313403 14.83680039 -32.92357042 13.56425592 -31.54296875 12.29296875 C-30.98738281 11.70128906 -30.43179688 11.10960937 -29.859375 10.5 C-28.54296875 9.29296875 -28.54296875 9.29296875 -25.85546875 8.73046875 C-21.68119694 9.43930736 -19.62155191 11.24889661 -16.47265625 13.98046875 C-14.38068287 15.66790314 -14.38068287 15.66790314 -10.54296875 15.29296875 C-10.43339844 14.46152344 -10.32382813 13.63007813 -10.2109375 12.7734375 C-10.05238281 11.68675781 -9.89382812 10.60007812 -9.73046875 9.48046875 C-9.57964844 8.40152344 -9.42882812 7.32257812 -9.2734375 6.2109375 C-7.89030086 0.68578741 -5.45969527 -0.08666183 0 0 Z M2.45703125 12.29296875 C2.27527344 13.55753906 2.27527344 13.55753906 2.08984375 14.84765625 C1.92226562 15.94335938 1.7546875 17.0390625 1.58203125 18.16796875 C1.41960937 19.25851563 1.2571875 20.3490625 1.08984375 21.47265625 C0.45703125 24.29296875 0.45703125 24.29296875 -1.54296875 26.29296875 C-6.76913225 29.0660351 -11.61643939 30.49545297 -17.54296875 29.29296875 C-19.98191426 27.85359107 -21.54056385 26.34671736 -23.54296875 24.29296875 C-25.19296875 25.28296875 -26.84296875 26.27296875 -28.54296875 27.29296875 C-28.21296875 28.94296875 -27.88296875 30.59296875 -27.54296875 32.29296875 C-26.55296875 32.62296875 -25.56296875 32.95296875 -24.54296875 33.29296875 C-23.11577941 39.93434489 -23.21862685 45.17250087 -26.53125 51.21875 C-30.49227824 55.30283932 -36.09657178 55.67097905 -41.54296875 56.29296875 C-41.54296875 58.60296875 -41.54296875 60.91296875 -41.54296875 63.29296875 C-40.18751953 63.53080078 -40.18751953 63.53080078 -38.8046875 63.7734375 C-37.62519531 64.00675781 -36.44570313 64.24007812 -35.23046875 64.48046875 C-34.05871094 64.70089844 -32.88695312 64.92132813 -31.6796875 65.1484375 C-28.54296875 66.29296875 -28.54296875 66.29296875 -26.69921875 68.71875 C-24.1423771 74.41117787 -22.54589758 78.91826633 -24.35546875 85.04296875 C-25.54296875 87.29296875 -25.54296875 87.29296875 -28.54296875 88.29296875 C-28.35468103 90.73776954 -28.35468103 90.73776954 -27.54296875 93.29296875 C-25.57538602 94.65317026 -25.57538602 94.65317026 -23.54296875 95.29296875 C-22.11984375 94.02453125 -22.11984375 94.02453125 -20.66796875 92.73046875 C-17.49713676 90.47109049 -15.4242621 89.94560318 -11.54296875 90.23046875 C-2.3530289 91.82750098 -2.3530289 91.82750098 0.45703125 95.29296875 C1.63531075 99.26107594 2.13963161 103.17325094 2.45703125 107.29296875 C4.76703125 107.29296875 7.07703125 107.29296875 9.45703125 107.29296875 C9.95990059 105.33537025 10.45924115 103.37686498 10.95703125 101.41796875 C11.23546875 100.32742187 11.51390625 99.236875 11.80078125 98.11328125 C12.53257543 95.45091806 12.53257543 95.45091806 12.45703125 93.29296875 C13.36453125 93.16921875 14.27203125 93.04546875 15.20703125 92.91796875 C18.33504678 92.48864244 18.33504678 92.48864244 20.39453125 91.23046875 C23.62168291 89.76358163 25.94993789 89.87687293 29.45703125 90.29296875 C32.05814117 91.74533947 34.1326932 93.39554993 36.45703125 95.29296875 C39.61818901 93.92313372 40.44974045 93.30390495 42.45703125 90.29296875 C41.79703125 89.30296875 41.13703125 88.31296875 40.45703125 87.29296875 C39.79703125 87.29296875 39.13703125 87.29296875 38.45703125 87.29296875 C38.45703125 86.30296875 38.45703125 85.31296875 38.45703125 84.29296875 C37.79703125 84.29296875 37.13703125 84.29296875 36.45703125 84.29296875 C36.20703125 76.66796875 36.20703125 76.66796875 38.45703125 73.29296875 C38.76640625 72.28234375 39.07578125 71.27171875 39.39453125 70.23046875 C40.45703125 67.29296875 40.45703125 67.29296875 43.45703125 65.29296875 C45.17148014 64.85558179 46.90370909 64.48448187 48.64453125 64.16796875 C49.99611328 63.91660156 49.99611328 63.91660156 51.375 63.66015625 C52.06207031 63.53898437 52.74914062 63.4178125 53.45703125 63.29296875 C53.45703125 60.98296875 53.45703125 58.67296875 53.45703125 56.29296875 C52.565 56.19242188 51.67296875 56.091875 50.75390625 55.98828125 C41.39585916 54.48357324 41.39585916 54.48357324 38.73828125 51.11328125 C37.69154452 48.50436926 36.99039621 46.05146566 36.45703125 43.29296875 C36.24046875 42.19855469 36.24046875 42.19855469 36.01953125 41.08203125 C35.76053946 39.49570653 35.59627345 37.89425401 35.45703125 36.29296875 C36.11703125 36.29296875 36.77703125 36.29296875 37.45703125 36.29296875 C38.81980211 34.50331328 38.81980211 34.50331328 40.08203125 32.29296875 C40.75105469 31.17921875 40.75105469 31.17921875 41.43359375 30.04296875 C41.77132812 29.46546875 42.1090625 28.88796875 42.45703125 28.29296875 C41.13703125 26.97296875 39.81703125 25.65296875 38.45703125 24.29296875 C36.20545458 25.37706122 34.19574602 26.47657458 32.14453125 27.91796875 C28.10189758 29.98629295 24.63310254 29.97890427 20.30078125 28.61328125 C18.34189854 27.86805413 16.39840695 27.0826809 14.45703125 26.29296875 C13.79703125 26.29296875 13.13703125 26.29296875 12.45703125 26.29296875 C12.25787109 24.90271484 12.25787109 24.90271484 12.0546875 23.484375 C11.87808594 22.28683594 11.70148438 21.08929688 11.51953125 19.85546875 C11.34550781 18.66050781 11.17148438 17.46554688 10.9921875 16.234375 C10.76717912 13.41341199 10.76717912 13.41341199 9.45703125 12.29296875 C7.12405692 12.25203938 4.789979 12.25055152 2.45703125 12.29296875 Z " fill="#FAFAFB" transform="translate(91.54296875,-0.29296875)"/>
<path d="M0 0 C1.06734375 -0.01224609 2.1346875 -0.02449219 3.234375 -0.03710938 C4.25789063 -0.03904297 5.28140625 -0.04097656 6.3359375 -0.04296875 C7.74818604 -0.04913208 7.74818604 -0.04913208 9.18896484 -0.05541992 C11.625 0.1875 11.625 0.1875 14.625 2.1875 C15.50390625 5.19140625 15.50390625 5.19140625 16.1875 8.75 C16.60595927 10.90849328 17.07200844 13.05949584 17.625 15.1875 C18.615 15.6825 18.615 15.6825 19.625 16.1875 C22.23431266 15.29386395 22.23431266 15.29386395 24.625 14.1875 C24.625 13.5275 24.625 12.8675 24.625 12.1875 C32.56972362 8.81229062 32.56972362 8.81229062 36.4375 10.1875 C38.7985749 12.34619705 40.67659505 14.65457356 42.625 17.1875 C43.615 17.8475 44.605 18.5075 45.625 19.1875 C45.625 19.8475 45.625 20.5075 45.625 21.1875 C47.11 21.6825 47.11 21.6825 48.625 22.1875 C51.02489427 25.7873414 51.26636132 26.93848128 50.625 31.1875 C49.19386607 33.38412417 47.63739882 35.3604486 45.9375 37.35546875 C44.33380733 39.21834601 44.33380733 39.21834601 44.625 42.1875 C45.54023438 42.36925781 46.45546875 42.55101562 47.3984375 42.73828125 C48.58695312 42.98964844 49.77546875 43.24101562 51 43.5 C52.18335938 43.74363281 53.36671875 43.98726563 54.5859375 44.23828125 C57.625 45.1875 57.625 45.1875 59.625 48.1875 C60.06127662 52.00656859 59.94919698 55.84621232 59.9375 59.6875 C59.95361328 60.74582031 59.96972656 61.80414063 59.98632812 62.89453125 C59.98697266 63.90902344 59.98761719 64.92351562 59.98828125 65.96875 C59.99126221 66.89751953 59.99424316 67.82628906 59.99731445 68.78320312 C59.55381718 71.64717767 58.92817352 72.4809015 56.625 74.1875 C52.16737757 75.78551559 48.34934679 76.41795594 43.625 76.1875 C44.77475762 79.53224944 46.29717572 82.2665617 48.25 85.1875 C49.67539947 87.46388423 50.61281519 89.14208389 51.3125 91.75 C49.33472048 98.76212737 41.96283252 103.67773219 36.625 108.1875 C36.295 108.5175 35.965 108.8475 35.625 109.1875 C32.95441149 109.32865161 30.30067762 109.22997107 27.625 109.1875 C27.625 108.5275 27.625 107.8675 27.625 107.1875 C24.29957466 105.76231771 21.17579859 104.84991789 17.625 104.1875 C17.42003906 105.11433594 17.21507812 106.04117188 17.00390625 106.99609375 C16.73449219 108.19363281 16.46507812 109.39117187 16.1875 110.625 C15.92066406 111.81996094 15.65382813 113.01492188 15.37890625 114.24609375 C14.625 117.1875 14.625 117.1875 13.625 118.1875 C11.69832493 118.27498207 9.76848139 118.29447334 7.83984375 118.28515625 C6.08510742 118.28032227 6.08510742 118.28032227 4.29492188 118.27539062 C3.06322266 118.26701172 1.83152344 118.25863281 0.5625 118.25 C-1.29084961 118.24323242 -1.29084961 118.24323242 -3.18164062 118.23632812 C-6.24614117 118.22449608 -9.31054721 118.20801173 -12.375 118.1875 C-12.375 117.5275 -12.375 116.8675 -12.375 116.1875 C-13.035 116.1875 -13.695 116.1875 -14.375 116.1875 C-15.2473412 113.19269083 -15.48329766 110.55174089 -15.4375 107.4375 C-15.42847656 106.63828125 -15.41945313 105.8390625 -15.41015625 105.015625 C-15.39855469 104.41234375 -15.38695312 103.8090625 -15.375 103.1875 C-18.84 103.6825 -18.84 103.6825 -22.375 104.1875 C-22.375 104.8475 -22.375 105.5075 -22.375 106.1875 C-23.365 106.1875 -24.355 106.1875 -25.375 106.1875 C-25.375 106.8475 -25.375 107.5075 -25.375 108.1875 C-28.56786823 109.78393412 -31.90920693 109.70120451 -35.375 109.1875 C-37.875 107.3125 -37.875 107.3125 -39.375 105.1875 C-39.375 104.5275 -39.375 103.8675 -39.375 103.1875 C-40.86 102.6925 -40.86 102.6925 -42.375 102.1875 C-44.5625 100.25 -44.5625 100.25 -46.375 98.1875 C-46.375 97.5275 -46.375 96.8675 -46.375 96.1875 C-47.365 95.8575 -48.355 95.5275 -49.375 95.1875 C-49.83620722 91.49784223 -50.06301126 89.30112783 -48.07421875 86.08203125 C-47.0073972 84.72495276 -45.91183977 83.38983647 -44.78515625 82.08203125 C-43.30212398 80.08959178 -42.79971602 78.61214462 -42.375 76.1875 C-43.11105469 76.15011719 -43.84710938 76.11273438 -44.60546875 76.07421875 C-55.20219547 75.36030453 -55.20219547 75.36030453 -59.375 71.1875 C-59.65506266 67.40325935 -59.60680637 63.60587268 -59.625 59.8125 C-59.645625 58.74515625 -59.66625 57.6778125 -59.6875 56.578125 C-59.69523437 55.04285156 -59.69523437 55.04285156 -59.703125 53.4765625 C-59.7124707 52.53506348 -59.72181641 51.59356445 -59.73144531 50.62353516 C-59.31211354 47.75771841 -58.65614605 46.90925673 -56.375 45.1875 C-51.89529637 43.61876483 -47.11606074 42.88162511 -42.375 43.1875 C-43.47253306 39.89490081 -44.87976644 37.45284732 -47 34.75 C-48.67136923 32.42809783 -49.40166764 31.08305175 -50.125 28.25 C-48.94414685 23.42818296 -45.79230961 20.65820507 -42.375 17.1875 C-41.776875 16.5171875 -41.17875 15.846875 -40.5625 15.15625 C-37.94261494 12.30244663 -36.01032477 10.43898272 -32.375 9 C-28.16061695 9.26339894 -25.88377613 10.87170775 -22.375 13.1875 C-22.375 13.8475 -22.375 14.5075 -22.375 15.1875 C-20.065 15.5175 -17.755 15.8475 -15.375 16.1875 C-15.42720703 15.31738281 -15.42720703 15.31738281 -15.48046875 14.4296875 C-15.66220431 9.18531849 -15.23770288 5.7678246 -12.375 1.1875 C-9.90595344 -1.28154656 -3.3185462 0.00198954 0 0 Z M-2.375 12.1875 C-3.48363719 15.43422321 -4.40956275 18.41023771 -4.9375 21.8125 C-6.53051973 25.55263327 -7.06295884 25.94640653 -10.5625 27.625 C-14.67062798 29.1367911 -17.98434923 29.91927513 -22.375 29.1875 C-24.96171131 27.71881715 -27.05438807 26.08187708 -29.375 24.1875 C-32.53615776 25.55733503 -33.3677092 26.1765638 -35.375 29.1875 C-34.1010411 31.22583424 -32.76438077 33.22602126 -31.375 35.1875 C-30.715 35.1875 -30.055 35.1875 -29.375 35.1875 C-28.71856111 42.27704004 -30.52436165 47.20150766 -34.375 53.1875 C-37.26862649 54.63431324 -40.1833009 54.61992376 -43.37890625 54.90625 C-45.37083131 54.98282012 -45.37083131 54.98282012 -46.375 56.1875 C-46.41592937 58.52047433 -46.41741723 60.85455225 -46.375 63.1875 C-39.97284929 64.9369618 -39.97284929 64.9369618 -33.375 65.1875 C-33.08625 66.26 -32.7975 67.3325 -32.5 68.4375 C-31.59674235 71.99774152 -31.59674235 71.99774152 -30.1875 74.1875 C-28.84716096 77.4867961 -29.52144186 79.77326745 -30.375 83.1875 C-31.86452436 85.98525792 -33.55153627 88.59697035 -35.375 91.1875 C-34.055 92.5075 -32.735 93.8275 -31.375 95.1875 C-29.12342333 94.10340753 -27.11371477 93.00389417 -25.0625 91.5625 C-20.20345912 89.07647908 -15.7476874 89.796288 -10.6875 91.375 C-7.33118913 92.92715059 -6.49189712 93.93463966 -4.9140625 97.34765625 C-3.91240089 100.61193646 -3.06580456 103.84458563 -2.375 107.1875 C-0.065 107.1875 2.245 107.1875 4.625 107.1875 C4.80675781 105.92292969 4.80675781 105.92292969 4.9921875 104.6328125 C5.15976562 103.53710938 5.32734375 102.44140625 5.5 101.3125 C5.66242188 100.22195313 5.82484375 99.13140625 5.9921875 98.0078125 C6.625 95.1875 6.625 95.1875 8.625 93.1875 C13.95228104 90.46949947 18.68125877 89.57835827 24.625 89.1875 C24.625 89.8475 24.625 90.5075 24.625 91.1875 C26.935 92.5075 29.245 93.8275 31.625 95.1875 C32.945 93.8675 34.265 92.5475 35.625 91.1875 C34.66303668 88.52360156 33.83117535 86.43332445 32 84.25 C29.99813868 81.24720802 30.09345881 79.77540305 30.625 76.1875 C31.6684788 72.27598004 32.91199391 69.22756809 35.625 66.1875 C39.88398114 64.46018925 44.07144944 63.70752481 48.625 63.1875 C48.66741723 60.85455225 48.66592937 58.52047433 48.625 56.1875 C46.74675109 54.30925109 43.58564724 54.79647603 41.0625 54.625 C39.86496094 54.54121094 38.66742188 54.45742188 37.43359375 54.37109375 C36.04333984 54.28021484 36.04333984 54.28021484 34.625 54.1875 C29.51693925 38.22079439 29.51693925 38.22079439 32.625 32.1875 C33.285 32.1875 33.945 32.1875 34.625 32.1875 C35.48858623 30.40608253 35.48858623 30.40608253 35.625 28.1875 C33.77067913 25.91605926 33.77067913 25.91605926 31.625 24.1875 C30.80708984 24.74630859 30.80708984 24.74630859 29.97265625 25.31640625 C25.04909467 28.40520471 21.57236528 29.96322179 15.76953125 28.8046875 C15.06183594 28.60101563 14.35414063 28.39734375 13.625 28.1875 C12.94824219 28.00445312 12.27148438 27.82140625 11.57421875 27.6328125 C9.33445713 26.7331981 8.17791383 26.05364361 6.625 24.1875 C5.44180547 20.22062905 4.94240376 16.30727122 4.625 12.1875 C2.315 12.1875 0.005 12.1875 -2.375 12.1875 Z " fill="#FAFAFB" transform="translate(374.375,276.8125)"/>
<path d="M0 0 C1.65902344 -0.0299707 1.65902344 -0.0299707 3.3515625 -0.06054688 C4.94097656 -0.05958008 4.94097656 -0.05958008 6.5625 -0.05859375 C8.01849609 -0.06137329 8.01849609 -0.06137329 9.50390625 -0.06420898 C12 0.4375 12 0.4375 13.77734375 2.28100586 C15.70000352 5.67215077 16.11794884 8.29902973 16.0625 12.125 C16.05347656 12.93324219 16.04445313 13.74148438 16.03515625 14.57421875 C16.02355469 15.18910156 16.01195313 15.80398438 16 16.4375 C20.50040422 15.62680363 23.72542109 13.12554829 27.46484375 10.6171875 C30.52376598 9.1937753 31.84142642 9.39347484 35 10.4375 C37.3125 11.875 37.3125 11.875 39 13.4375 C39 14.0975 39 14.7575 39 15.4375 C39.53625 15.64375 40.0725 15.85 40.625 16.0625 C44.97560884 18.58127354 48.27632706 21.58811359 50.125 26.3125 C49.91876495 31.46837623 47.63090383 35.80659617 44 39.4375 C43.3574765 41.50624034 43.3574765 41.50624034 43 43.4375 C43.58007812 43.48648438 44.16015625 43.53546875 44.7578125 43.5859375 C56.24817518 44.68567518 56.24817518 44.68567518 59 47.4375 C59.08737645 49.29119611 59.10698153 51.14817541 59.09765625 53.00390625 C59.09282227 54.6909668 59.09282227 54.6909668 59.08789062 56.41210938 C59.07532227 58.18811523 59.07532227 58.18811523 59.0625 60 C59.05798828 61.18787109 59.05347656 62.37574219 59.04882812 63.59960938 C59.03699675 66.54562226 59.02051287 69.49153681 59 72.4375 C55.12259277 74.55813475 52.03923498 75.82674088 47.625 76.125 C46.75101562 76.19074219 45.87703125 76.25648438 44.9765625 76.32421875 C44.32429688 76.36160156 43.67203125 76.39898437 43 76.4375 C44.02352487 79.42278087 45.0070317 81.44581019 47.0625 83.875 C49.6879984 87.34743337 50.06730733 90.21635805 49.9375 94.5 C48.69707588 97.06354319 46.76807815 98.42467088 44.55078125 100.14453125 C42.36029455 101.97085643 40.76228236 104.20527568 39 106.4375 C36.56484134 108.87265866 35.24165265 109.39485541 31.8125 110 C27.18201584 109.31681381 24.69665428 107.53007806 21.015625 104.75 C18.98188195 103.16466341 18.98188195 103.16466341 16 103.4375 C16.02320312 104.02917969 16.04640625 104.62085938 16.0703125 105.23046875 C16.17371429 109.75799003 16.17952152 113.33487126 14 117.4375 C11.34285458 120.09464542 3.63945491 118.67241532 0.0625 118.6875 C-1.76571289 118.7184375 -1.76571289 118.7184375 -3.63085938 118.75 C-4.79294922 118.75515625 -5.95503906 118.7603125 -7.15234375 118.765625 C-8.22476318 118.7749707 -9.29718262 118.78431641 -10.40209961 118.79394531 C-11.25940674 118.67631836 -12.11671387 118.55869141 -13 118.4375 C-15.09715785 115.29176323 -15.52004559 113.42293749 -16.125 109.75 C-16.37636719 108.25919922 -16.37636719 108.25919922 -16.6328125 106.73828125 C-16.75398438 105.97902344 -16.87515625 105.21976562 -17 104.4375 C-20.40233147 104.98164392 -21.99992263 105.43744449 -24.875 107.5 C-28.73377324 109.89243941 -30.53304274 110.22117671 -35 109.4375 C-37.65460561 107.73689328 -39.95247344 105.8397652 -42 103.4375 C-42 102.7775 -42 102.1175 -42 101.4375 C-42.5775 101.210625 -43.155 100.98375 -43.75 100.75 C-46.77090989 98.98780256 -48.22116957 97.46809999 -50 94.4375 C-50.20812548 88.08967272 -48.32561749 84.88328818 -44.27734375 80.1015625 C-42.79703315 78.52271567 -42.79703315 78.52271567 -43 76.4375 C-43.73605469 76.40011719 -44.47210938 76.36273438 -45.23046875 76.32421875 C-46.20628906 76.25847656 -47.18210937 76.19273437 -48.1875 76.125 C-49.15042969 76.06699219 -50.11335938 76.00898438 -51.10546875 75.94921875 C-54.47025397 75.35436468 -56.30878683 74.54707109 -59 72.4375 C-59.56762695 69.71020508 -59.56762695 69.71020508 -59.48828125 66.45703125 C-59.47216797 65.29365234 -59.45605469 64.13027344 -59.43945312 62.93164062 C-59.39755859 61.71669922 -59.35566406 60.50175781 -59.3125 59.25 C-59.27866211 57.41018555 -59.27866211 57.41018555 -59.24414062 55.53320312 C-59.18513053 52.50008441 -59.10284592 49.46939778 -59 46.4375 C-55.19959963 45.34114207 -51.40392284 44.25600737 -47.5625 43.3125 C-45.7990625 42.879375 -45.7990625 42.879375 -44 42.4375 C-44.59339414 39.31365501 -45.55151956 37.50317711 -47.5625 35.0625 C-49.43831727 32.52335024 -49.99384669 31.47672736 -50.5 28.25 C-49.94868919 25.14887671 -49.21776206 23.65526206 -47 21.4375 C-46.34 21.4375 -45.68 21.4375 -45 21.4375 C-44.67 20.4475 -44.34 19.4575 -44 18.4375 C-43.34 18.4375 -42.68 18.4375 -42 18.4375 C-41.67 17.4475 -41.34 16.4575 -41 15.4375 C-34.9752794 9.68663034 -34.9752794 9.68663034 -30 9.4375 C-27.17578125 10.90625 -27.17578125 10.90625 -24.3125 12.9375 C-22.57821544 14.15783555 -20.8140067 15.33916422 -19 16.4375 C-18.34 16.1075 -17.68 15.7775 -17 15.4375 C-16.39032729 12.4117169 -16.04020073 9.38280688 -15.66015625 6.3203125 C-13.82388451 -1.69843628 -6.78922699 -0.04352069 0 0 Z M-4 12.4375 C-4.09474609 13.66726563 -4.09474609 13.66726563 -4.19140625 14.921875 C-5.15419589 23.39442379 -5.15419589 23.39442379 -7.33984375 26.08984375 C-11.87841858 28.91977865 -17.72346198 29.97695437 -23 29.4375 C-25.82530038 28.07009484 -27.62472234 26.5545953 -30 24.4375 C-32.03241727 25.07729849 -32.03241727 25.07729849 -34 26.4375 C-34.81171228 28.99269921 -34.81171228 28.99269921 -35 31.4375 C-34.01 31.7675 -33.02 32.0975 -32 32.4375 C-28.80094746 37.87588931 -30.64704485 43.11134809 -32.0625 48.875 C-32.371875 50.050625 -32.68125 51.22625 -33 52.4375 C-33.66 52.4375 -34.32 52.4375 -35 52.4375 C-35 53.0975 -35 53.7575 -35 54.4375 C-35.85464844 54.49808594 -36.70929687 54.55867188 -37.58984375 54.62109375 C-38.69457031 54.70488281 -39.79929687 54.78867187 -40.9375 54.875 C-42.03964844 54.95621094 -43.14179687 55.03742188 -44.27734375 55.12109375 C-46.91109903 55.14168084 -46.91109903 55.14168084 -48 56.4375 C-48.04092937 58.77047433 -48.04241723 61.10455225 -48 63.4375 C-47.11957031 63.53804688 -46.23914062 63.63859375 -45.33203125 63.7421875 C-36.0652851 65.24379121 -36.0652851 65.24379121 -33.0234375 68.65234375 C-30.76581455 73.04216615 -28.90311931 77.50153691 -30 82.4375 C-31.19437674 84.34850279 -32.46951941 86.08816929 -33.90625 87.82421875 C-35.28057915 89.52650533 -35.28057915 89.52650533 -35 92.4375 C-32.55503957 94.15461243 -32.55503957 94.15461243 -30 95.4375 C-26.37206002 93.57183512 -26.37206002 93.57183512 -24 90.4375 C-17.61194641 89.9051622 -12.21326244 90.3869076 -7 94.4375 C-5.16181476 97.30094368 -4.67154709 99.82663299 -4.375 103.1875 C-4.30023438 103.98671875 -4.22546875 104.7859375 -4.1484375 105.609375 C-4.09945312 106.21265625 -4.05046875 106.8159375 -4 107.4375 C-1.69 107.4375 0.62 107.4375 3 107.4375 C3.50286934 105.4799015 4.0022099 103.52139623 4.5 101.5625 C4.7784375 100.47195313 5.056875 99.38140625 5.34375 98.2578125 C6.07554418 95.59544931 6.07554418 95.59544931 6 93.4375 C8.01822917 92.94921875 10.03645833 92.4609375 12.0546875 91.97265625 C14.0585657 91.48903008 14.0585657 91.48903008 16 90.4375 C22.89572031 89.74792797 22.89572031 89.74792797 25.7890625 91.5546875 C27.22813733 92.80944733 28.61741632 94.12075364 30 95.4375 C30.66 95.4375 31.32 95.4375 32 95.4375 C33.38232443 93.81123596 34.71937515 92.1449998 36 90.4375 C35.566875 89.92960937 35.13375 89.42171875 34.6875 88.8984375 C30.19818332 83.34914327 30.19818332 83.34914327 29.375 79.5625 C29.58125 78.53125 29.7875 77.5 30 76.4375 C30.15082031 75.61636719 30.30164063 74.79523438 30.45703125 73.94921875 C31.27993079 70.90845094 32.03645556 68.91707616 34 66.4375 C38.25057581 64.67737281 42.44266878 63.95118762 47 63.4375 C47.04241723 61.10455225 47.04092937 58.77047433 47 56.4375 C45.45568254 54.89318254 43.82872314 55.20968719 41.6875 55.0625 C37.96671997 54.666798 35.54509846 54.38981421 33 51.4375 C31.8125 48.375 31.8125 48.375 31 45.4375 C30.67 44.7775 30.34 44.1175 30 43.4375 C29.86584528 40.7651379 29.95681459 38.11499512 30 35.4375 C30.66 35.4375 31.32 35.4375 32 35.4375 C33.32 33.1275 34.64 30.8175 36 28.4375 C34.68 27.1175 33.36 25.7975 32 24.4375 C29.3435142 25.39678654 27.27379476 26.20021121 25.125 28.0625 C21.90364438 30.14690658 19.78681551 29.8720526 16 29.4375 C13.56421461 28.51509602 11.25116163 27.46905688 8.91796875 26.3125 C7.04809084 25.299147 7.04809084 25.299147 5 25.4375 C5.04125 24.40625 5.0825 23.375 5.125 22.3125 C5.00424851 18.56920373 4.35127982 15.90015453 3 12.4375 C0.69 12.4375 -1.62 12.4375 -4 12.4375 Z " fill="#FAFAFB" transform="translate(98,276.5625)"/>
<path d="M0 0 C0.80421387 -0.00128906 1.60842773 -0.00257812 2.43701172 -0.00390625 C8.59012152 0.10577041 12.95789947 1.20190339 18.3125 4.375 C18.3125 5.035 18.3125 5.695 18.3125 6.375 C19.3025 6.705 20.2925 7.035 21.3125 7.375 C23 8.75 23 8.75 24.3125 10.375 C24.3125 11.365 24.3125 12.355 24.3125 13.375 C24.9725 13.375 25.6325 13.375 26.3125 13.375 C30.69846409 22.22524897 31.97695324 30.66933881 29.0625 40.25 C27.6067897 44.03760642 25.83808347 47.19765305 23.3125 50.375 C22.6525 50.375 21.9925 50.375 21.3125 50.375 C20.9825 51.365 20.6525 52.355 20.3125 53.375 C12.93949158 58.70698248 4.39070668 61.52778815 -4.6875 60.375 C-11.9789608 58.56753929 -17.43679805 55.72557943 -22.6875 50.375 C-23.19925781 49.90707031 -23.71101563 49.43914062 -24.23828125 48.95703125 C-29.96244954 42.70827611 -30.36806038 34.05349415 -30.140625 26.00390625 C-29.47574159 20.67910721 -27.68486943 16.77609616 -24.6875 12.375 C-24.29175781 11.78074219 -23.89601563 11.18648437 -23.48828125 10.57421875 C-20.48200583 6.54920548 -17.07056543 4.60637877 -12.6875 2.375 C-12.13578125 2.01664063 -11.5840625 1.65828125 -11.015625 1.2890625 C-7.40015439 -0.13043435 -3.85114463 -0.00629401 0 0 Z " fill="#FAFAFB" transform="translate(374.6875,29.625)"/>
<path d="M0 0 C0.75522949 -0.01804687 1.51045898 -0.03609375 2.28857422 -0.0546875 C9.68435042 0.02246904 15.98965678 2.93154492 21.48828125 7.91796875 C28.54385611 15.62014615 30.24006398 23.1886195 29.9375 33.5 C29.41715091 40.5087836 26.5730128 46.21575131 21.9375 51.5 C20.9475 51.83 19.9575 52.16 18.9375 52.5 C18.9375 53.16 18.9375 53.82 18.9375 54.5 C12.01926241 59.63288595 3.4114858 61.6585019 -5.0625 60.5 C-13.97810761 58.10536791 -22.02666227 53.16902194 -27.09765625 45.33203125 C-30.8473159 38.21223217 -31.35730656 28.88320263 -29.4921875 21.12890625 C-28.1370453 17.35590509 -26.40286268 13.75615678 -24.0625 10.5 C-23.4025 10.5 -22.7425 10.5 -22.0625 10.5 C-21.4025 9.18 -20.7425 7.86 -20.0625 6.5 C-19.4025 6.5 -18.7425 6.5 -18.0625 6.5 C-18.0625 5.84 -18.0625 5.18 -18.0625 4.5 C-12.00977836 0.91320199 -6.91100107 0.06799099 0 0 Z " fill="#FAFAFB" transform="translate(98.0625,29.5)"/>
<path d="M0 0 C6.96863151 6.81025352 9.69506498 13.2501833 10.125 23 C10.04003657 29.06638893 8.14042769 34.17030752 5.75 39.6875 C5.09 39.6875 4.43 39.6875 3.75 39.6875 C3.75 40.6775 3.75 41.6675 3.75 42.6875 C2.02734375 44.40625 2.02734375 44.40625 -0.3125 46.1875 C-1.06660156 46.7753125 -1.82070313 47.363125 -2.59765625 47.96875 C-8.54478799 51.82256143 -13.6713431 53.24693296 -20.625 53.1875 C-21.37233398 53.18395508 -22.11966797 53.18041016 -22.88964844 53.17675781 C-29.06361901 52.99129679 -33.34274098 51.52164543 -38.25 47.6875 C-39.136875 47.130625 -40.02375 46.57375 -40.9375 46 C-47.97466185 38.96283815 -50.53739183 31.34529732 -50.5690918 21.59814453 C-50.4312374 14.19669771 -48.62897945 8.58085338 -43.9375 2.875 C-43.050625 2.153125 -42.16375 1.43125 -41.25 0.6875 C-40.75886719 0.25824219 -40.26773437 -0.17101562 -39.76171875 -0.61328125 C-27.65469342 -10.4087027 -12.0771267 -8.59334015 0 0 Z " fill="#FAFAFB" transform="translate(395.25,313.3125)"/>
<path d="M0 0 C0.66 0.33 1.32 0.66 2 1 C2 1.66 2 2.32 2 3 C2.598125 3.268125 3.19625 3.53625 3.8125 3.8125 C7.76786857 5.95970008 9.67542754 8.49855675 11.36328125 12.72265625 C13.88332046 21.73604803 14.02523503 31.97843345 9.7734375 40.44140625 C6.65148033 45.50832604 3.18642241 49.08795135 -2 52 C-2.89203125 52.52851563 -3.7840625 53.05703125 -4.703125 53.6015625 C-8.61401962 55.26044908 -12.06844962 55.53505267 -16.25 55.5 C-16.99854248 55.49718018 -17.74708496 55.49436035 -18.51831055 55.49145508 C-24.90252869 55.30585531 -29.73390153 53.68730761 -35 50 C-36.11955078 49.23623047 -36.11955078 49.23623047 -37.26171875 48.45703125 C-38.12216797 47.73580078 -38.12216797 47.73580078 -39 47 C-39 46.34 -39 45.68 -39 45 C-39.99 44.67 -40.98 44.34 -42 44 C-43.1328125 41.8203125 -43.1328125 41.8203125 -44.125 39.125 C-44.45757812 38.24070312 -44.79015625 37.35640625 -45.1328125 36.4453125 C-47.89190319 28.66517389 -48.01974034 20.91488248 -45.0390625 13.12890625 C-41.37680641 5.62541164 -36.14601586 -0.1293832 -28.23828125 -3.00390625 C-17.64574071 -6.02840886 -9.70294539 -5.01876486 0 0 Z " fill="#FAFAFB" transform="translate(115,311)"/>
<path d="M0 0 C6.50771003 0.49114793 6.50771003 0.49114793 8.70554829 2.76292801 C10.15879586 5.27443107 10.38183521 6.66472005 10.39872742 9.54315186 C10.41126556 10.448965 10.42380371 11.35477814 10.4367218 12.28804016 C10.43528671 13.27418808 10.43385162 14.260336 10.43237305 15.27636719 C10.44766052 16.84269142 10.44766052 16.84269142 10.46325684 18.44065857 C10.49345544 21.89278481 10.50266348 25.34463387 10.51171875 28.796875 C10.5285603 31.19013394 10.54670982 33.58338401 10.56611633 35.97662354 C10.61367909 42.27631864 10.64344801 48.57597777 10.66955566 54.87579346 C10.69932941 61.30398667 10.7458707 67.73205586 10.79101562 74.16015625 C10.87712022 86.77337013 10.9450031 99.38661409 11 112 C11.86882812 111.07316406 12.73765625 110.14632812 13.6328125 109.19140625 C14.79619317 107.98111506 15.96029382 106.77151566 17.125 105.5625 C17.69476563 104.95083984 18.26453125 104.33917969 18.8515625 103.70898438 C21.64024223 100.84108079 23.38858522 99.18728677 27.27734375 97.99609375 C30 98 30 98 32.4375 99.5 C34 102 34 102 33.94165039 105.25805664 C32.80803223 109.7628442 30.70620718 112.19598282 27.49609375 115.37109375 C26.93938492 115.93828629 26.38267609 116.50547882 25.80909729 117.08985901 C24.63216299 118.27959043 23.44747895 119.4616997 22.25561523 120.63647461 C20.44222546 122.43281896 18.66932504 124.26333883 16.89648438 126.09960938 C15.74445156 127.25486634 14.59022338 128.40793908 13.43359375 129.55859375 C12.90930283 130.10535263 12.3850119 130.65211151 11.84483337 131.21543884 C9.03185491 133.92627671 6.77352535 135.38702174 2.91040039 135.65258789 C-1.82763694 134.86187966 -2.98382054 133.64601104 -6 130 C-7.76428881 128.30064208 -9.53133549 126.60414387 -11.30078125 124.91015625 C-12.79502042 123.46010119 -14.28641974 122.00719252 -15.77661133 120.55297852 C-16.8042667 119.55570685 -17.83721038 118.56385709 -18.87524414 117.57739258 C-20.38563222 116.13986888 -21.87570417 114.68372701 -23.36328125 113.22265625 C-24.25313721 112.36422119 -25.14299316 111.50578613 -26.05981445 110.62133789 C-28.40696768 107.45015578 -28.53471256 105.86107169 -28 102 C-26.375 99.5625 -26.375 99.5625 -24 98 C-19.40746674 97.68687273 -16.99166668 99.59427266 -13.625 102.4375 C-11.5390625 104.30859375 -11.5390625 104.30859375 -10 106 C-10 106.66 -10 107.32 -10 108 C-8.515 108.495 -8.515 108.495 -7 109 C-7 109.66 -7 110.32 -7 111 C-5.515 111.495 -5.515 111.495 -4 112 C-3.99761165 111.44708408 -3.99522329 110.89416817 -3.99276257 110.32449722 C-3.93362521 96.8705044 -3.85789431 83.41669311 -3.76428509 69.96289444 C-3.71951872 63.45672082 -3.68027631 56.95061072 -3.65356445 50.44433594 C-3.62759418 44.16781449 -3.5872361 37.8915367 -3.53681374 31.61516571 C-3.52010254 29.21816789 -3.50861484 26.82112788 -3.50238609 24.4240799 C-3.49279141 21.07184682 -3.4647869 17.72024318 -3.43237305 14.36816406 C-3.43380814 13.37266541 -3.43524323 12.37716675 -3.4367218 11.35150146 C-3.42418365 10.43727417 -3.41164551 9.52304688 -3.39872742 8.58111572 C-3.39411845 7.78837376 -3.38950949 6.99563179 -3.38476086 6.17886734 C-2.90766091 3.47709174 -1.76991536 2.05620711 0 0 Z " fill="#FAFAFB" transform="translate(383,130)"/>
<path d="M0 0 C4.17663867 1.45230982 6.7948515 3.62891615 9.84375 6.71142578 C10.41094254 7.26813461 10.97813507 7.82484344 11.56251526 8.39842224 C12.75224668 9.57535655 13.93435595 10.76004058 15.10913086 11.9519043 C16.90547521 13.76529407 18.73599508 15.5381945 20.57226562 17.31103516 C21.72752259 18.46306797 22.88059533 19.61729615 24.03125 20.77392578 C24.57800888 21.29821671 25.12476776 21.82250763 25.68809509 22.36268616 C28.52071301 25.30203318 29.8202229 27.45620088 29.91821289 31.48071289 C29.47265625 35.20751953 29.47265625 35.20751953 27.78515625 37.27001953 C24.77720644 38.48945864 23.51633534 38.32106066 20.47265625 37.20751953 C17.66015625 35.27001953 17.66015625 35.27001953 15.47265625 33.20751953 C15.47265625 32.54751953 15.47265625 31.88751953 15.47265625 31.20751953 C14.48265625 30.87751953 13.49265625 30.54751953 12.47265625 30.20751953 C12.47265625 29.54751953 12.47265625 28.88751953 12.47265625 28.20751953 C11.48265625 27.87751953 10.49265625 27.54751953 9.47265625 27.20751953 C7.78515625 25.64501953 7.78515625 25.64501953 6.47265625 24.20751953 C6.4702679 24.76135724 6.46787954 25.31519495 6.46541882 25.88581562 C6.40630667 39.35614816 6.33059151 52.82629902 6.23694134 66.29643726 C6.19215673 72.81048669 6.15291846 79.32447239 6.1262207 85.83862305 C6.10026848 92.12162398 6.05992353 98.40438076 6.00946999 104.68723106 C5.99274648 107.08784645 5.9812665 109.48850412 5.97504234 111.88916969 C5.9654609 115.24400234 5.93747278 118.59820253 5.9050293 121.95288086 C5.90646439 122.95197479 5.90789948 123.95106873 5.90937805 124.98043823 C5.8968399 125.89329086 5.88430176 126.80614349 5.87138367 127.74665833 C5.86447022 128.93715396 5.86447022 128.93715396 5.85741711 130.15170002 C5.3691289 132.76067754 4.59381782 133.64398858 2.47265625 135.20751953 C-1.02734375 135.64501953 -1.02734375 135.64501953 -4.52734375 135.20751953 C-7.20932106 132.44705843 -7.90376699 130.46500006 -7.92607117 126.66436768 C-7.94487839 125.30564796 -7.94487839 125.30564796 -7.96406555 123.91947937 C-7.96191292 122.44025749 -7.96191292 122.44025749 -7.9597168 120.93115234 C-7.96990845 119.88693619 -7.9801001 118.84272003 -7.99060059 117.76686096 C-8.02079919 114.31473472 -8.03000723 110.86288566 -8.0390625 107.41064453 C-8.05590405 105.01738559 -8.07405357 102.62413552 -8.09346008 100.230896 C-8.14102284 93.93120089 -8.17079176 87.63154176 -8.19689941 81.33172607 C-8.22667316 74.90353286 -8.27321445 68.47546367 -8.31835938 62.04736328 C-8.40446397 49.4341494 -8.47234685 36.82090544 -8.52734375 24.20751953 C-9.18734375 24.20751953 -9.84734375 24.20751953 -10.52734375 24.20751953 C-11.18734375 25.52751953 -11.84734375 26.84751953 -12.52734375 28.20751953 C-13.18734375 28.20751953 -13.84734375 28.20751953 -14.52734375 28.20751953 C-14.85734375 29.19751953 -15.18734375 30.18751953 -15.52734375 31.20751953 C-16.18734375 31.20751953 -16.84734375 31.20751953 -17.52734375 31.20751953 C-18.02234375 32.69251953 -18.02234375 32.69251953 -18.52734375 34.20751953 C-19.18734375 34.20751953 -19.84734375 34.20751953 -20.52734375 34.20751953 C-20.85734375 35.19751953 -21.18734375 36.18751953 -21.52734375 37.20751953 C-24.34470547 37.99012001 -25.98703613 38.40263062 -28.77734375 37.39501953 C-30.52734375 36.20751953 -30.52734375 36.20751953 -31.52734375 34.20751953 C-31.99522989 31.26549613 -32.13753714 29.15683822 -30.48458862 26.5852356 C-28.94244887 24.79424037 -27.32802366 23.12431218 -25.6484375 21.46142578 C-25.04354996 20.84605453 -24.43866241 20.23068329 -23.81544495 19.59666443 C-22.53419375 18.30258847 -21.24515235 17.01618544 -19.94897461 15.73706055 C-17.9709714 13.7760944 -16.03316429 11.78072124 -14.09570312 9.77978516 C-12.84471184 8.52556985 -11.59152587 7.27353895 -10.3359375 6.02392578 C-9.75960068 5.425121 -9.18326385 4.82631622 -8.58946228 4.20936584 C-5.58867187 1.30910271 -4.28587906 0.25214543 0 0 Z " fill="#F9F9FA" transform="translate(87.52734375,129.79248046875)"/>
<path d="M0 0 C2.28453356 1.78837257 4.21776678 3.49215237 6.23828125 5.5390625 C7.08763496 6.37768326 7.08763496 6.37768326 7.95414734 7.23324585 C9.14436203 8.4156987 10.32824934 9.60455061 11.50610352 10.79931641 C13.30533427 12.61775776 15.1319362 14.40497725 16.96289062 16.19140625 C18.11896145 17.34718666 19.27331815 18.50468469 20.42578125 19.6640625 C20.9705159 20.19351471 21.51525055 20.72296692 22.07649231 21.26846313 C25.69990031 25.00529037 26.88468887 27.80279075 27 33 C25.7265625 35.2734375 25.7265625 35.2734375 23.625 37.375 C22.81160156 38.20644531 21.99820313 39.03789063 21.16015625 39.89453125 C20.67691895 40.36842285 20.19368164 40.84231445 19.69580078 41.33056641 C17.66820606 43.32663504 15.67679312 45.35631183 13.68359375 47.38671875 C10.66498611 50.44631746 7.64231779 53.50146399 4.59765625 56.53515625 C3.95320557 57.178479 3.30875488 57.82180176 2.64477539 58.48461914 C0.33841232 60.60954056 -0.76533215 60.98002827 -3.9375 61.25 C-7 61 -7 61 -8.875 59.875 C-10.51151479 57.14747535 -10.32502803 55.12026907 -10 52 C-9.34 51.01 -8.68 50.02 -8 49 C-7.34 49 -6.68 49 -6 49 C-5.34 47.68 -4.68 46.36 -4 45 C-3.34 45 -2.68 45 -2 45 C-1.67 44.01 -1.34 43.02 -1 42 C-0.34 42 0.32 42 1 42 C1.4640625 41.0409375 1.4640625 41.0409375 1.9375 40.0625 C3 38 3 38 4 37 C3.44100856 36.99761165 2.88201712 36.99522329 2.30608654 36.99276257 C-11.28942288 36.93365112 -24.88475227 36.85793639 -38.48006916 36.76428509 C-45.05465286 36.71949998 -51.62917342 36.68026182 -58.20385742 36.65356445 C-64.54521185 36.62761274 -70.88632435 36.58726814 -77.22752953 36.53681374 C-79.65047389 36.52008989 -82.07346015 36.50861012 -84.49645424 36.50238609 C-87.88241753 36.49280503 -91.26775407 36.46481732 -94.65356445 36.43237305 C-95.66200912 36.43380814 -96.6704538 36.43524323 -97.7094574 36.4367218 C-99.09135757 36.41791458 -99.09135757 36.41791458 -100.50117493 36.39872742 C-101.30221303 36.39411845 -102.10325113 36.38950949 -102.92856312 36.38476086 C-105.54854657 35.89810974 -106.4582955 35.15439121 -108 33 C-107.9375 29.4375 -107.9375 29.4375 -107 26 C-104.16554582 24.08745796 -101.82869724 23.74527252 -98.45684814 23.7215271 C-97.09812843 23.70478188 -97.09812843 23.70478188 -95.71195984 23.68769836 C-94.23273796 23.68445808 -94.23273796 23.68445808 -92.72363281 23.68115234 C-91.15730858 23.66608391 -91.15730858 23.66608391 -89.55934143 23.65071106 C-86.10727489 23.61981622 -82.65528614 23.60282622 -79.203125 23.5859375 C-76.80986865 23.56723094 -74.41661893 23.54765792 -72.02337646 23.5272522 C-65.72369287 23.47587099 -59.42398789 23.43627721 -53.12420654 23.39910889 C-46.6960315 23.35910685 -40.26794593 23.30799717 -33.83984375 23.2578125 C-21.22662643 23.16098225 -8.61335782 23.07622297 4 23 C3.566875 22.59007813 3.13375 22.18015625 2.6875 21.7578125 C2.130625 21.21898438 1.57375 20.68015625 1 20.125 C0.443125 19.59132813 -0.11375 19.05765625 -0.6875 18.5078125 C-2 17 -2 17 -2 15 C-2.5775 14.773125 -3.155 14.54625 -3.75 14.3125 C-6.69071898 12.5970806 -8.17275686 10.87138207 -10 8 C-10.5 4.875 -10.5 4.875 -10 2 C-6.91209292 -1.68173537 -4.39215521 -1.2365652 0 0 Z " fill="#F9F9FB" transform="translate(277,18)"/>
<path d="M0 0 C0.66 0.33 1.32 0.66 2 1 C2.75991095 3.98898308 3.22107113 5.99343266 3 9 C0.02169153 13.60284037 -3.78463762 16.50214611 -8 20 C-9.3565823 21.64779854 -10.69390292 23.31190463 -12 25 C-11.43585483 24.99723462 -10.87170965 24.99446924 -10.29046917 24.99162006 C3.43006157 24.92539601 17.15056434 24.87592834 30.87122059 24.84456348 C37.50641128 24.82888715 44.14148688 24.80761282 50.77661133 24.77368164 C57.17620161 24.74115863 63.57568099 24.72316182 69.97534752 24.71536827 C72.42066889 24.70981208 74.86598398 24.69896266 77.31125832 24.68280983 C80.72822968 24.66112971 84.14473885 24.65802917 87.56176758 24.65942383 C88.57956299 24.648638 89.5973584 24.63785217 90.64599609 24.6267395 C91.57567703 24.63086349 92.50535797 24.63498749 93.46321106 24.63923645 C94.27162351 24.63647107 95.08003595 24.63370569 95.91294575 24.63085651 C98.55191271 25.09761844 99.45331219 25.83138906 101 28 C100.9375 31.5625 100.9375 31.5625 100 35 C97.14697273 36.93147117 94.81482897 37.24840658 91.41888428 37.24050903 C90.50465698 37.24325836 89.59042969 37.24600769 88.64849854 37.24884033 C87.65299988 37.24164978 86.65750122 37.23445923 85.63183594 37.22705078 C84.05088135 37.22748886 84.05088135 37.22748886 82.43798828 37.22793579 C78.95336685 37.22654217 75.46895909 37.21097922 71.984375 37.1953125 C69.56870643 37.19158249 67.15303635 37.18873546 64.73736572 37.18673706 C58.37841619 37.17909968 52.01955798 37.15945018 45.66064453 37.1373291 C39.17221309 37.116873 32.68376689 37.10773584 26.1953125 37.09765625 C13.4635027 37.07620448 0.73175621 37.04245146 -12 37 C-12 37.66 -12 38.32 -12 39 C-10.515 39.495 -10.515 39.495 -9 40 C-9 40.66 -9 41.32 -9 42 C-8.401875 42.268125 -7.80375 42.53625 -7.1875 42.8125 C-5.00152146 43.99917406 -3.58667406 45.09599113 -2 47 C-2 47.66 -2 48.32 -2 49 C-1.0409375 49.2784375 -1.0409375 49.2784375 -0.0625 49.5625 C2 51 2 51 3 54.375 C3 58 3 58 1.375 60.4375 C-1.54612385 62.35929201 -2.55592822 62.56554962 -6 62 C-8.328645 60.18072264 -10.29809158 58.42675923 -12.359375 56.33984375 C-13.2441452 55.4658065 -13.2441452 55.4658065 -14.14678955 54.57411194 C-15.39006726 53.33861219 -16.62698277 52.09668177 -17.85791016 50.84887695 C-19.73843425 48.94918364 -21.6463284 47.08056437 -23.55859375 45.21289062 C-24.76479477 44.00698009 -25.96928067 42.79935109 -27.171875 41.58984375 C-27.74162048 41.03538071 -28.31136597 40.48091766 -28.89837646 39.90965271 C-32.5286583 36.17077479 -34.06664763 33.43796769 -34 28 C-32.91137695 25.91577148 -32.91137695 25.91577148 -31.17578125 24.18359375 C-30.2024585 23.18175049 -30.2024585 23.18175049 -29.20947266 22.15966797 C-28.48034668 21.44697754 -27.7512207 20.73428711 -27 20 C-26.23091309 19.20867676 -25.46182617 18.41735352 -24.66943359 17.60205078 C-22.19851626 15.06484658 -19.6975412 12.5609653 -17.1875 10.0625 C-16.32962891 9.20076172 -15.47175781 8.33902344 -14.58789062 7.45117188 C-13.76869141 6.63326172 -12.94949219 5.81535156 -12.10546875 4.97265625 C-11.36449951 4.23281494 -10.62353027 3.49297363 -9.86010742 2.73071289 C-6.61796252 -0.28589889 -4.34150971 -0.18089624 0 0 Z " fill="#FAFAFB" transform="translate(203,317)"/>
</svg>
