<?xml version="1.0" encoding="UTF-8"?>
<svg version="1.1" xmlns="http://www.w3.org/2000/svg" width="468" height="395">
<path d="M0 0 C4.4725492 0.55707908 7.98674329 1.37940849 12.08984375 3.24609375 C15.91400988 4.75542721 19.96471303 5.29932279 24 6 C25.39204353 6.25065626 26.7839613 6.5020115 28.17578125 6.75390625 C31.09949077 7.27914632 34.02347352 7.80261684 36.94921875 8.31640625 C37.56112061 8.42412354 38.17302246 8.53184082 38.8034668 8.64282227 C39.52832275 8.76069092 40.25317871 8.87855957 41 9 C42.48487915 9.26127686 42.48487915 9.26127686 43.99975586 9.52783203 C49.32439681 10.27388447 54.68763182 10.20257617 60.0546875 10.23828125 C61.81536057 10.25038887 61.81536057 10.25038887 63.61160278 10.26274109 C66.10124249 10.27654988 68.59090087 10.28728631 71.08056641 10.29516602 C73.57802038 10.30657505 76.07545219 10.32684582 78.57275391 10.35668945 C100.96860492 10.6236974 124.40934914 9.52500051 145.5625 1.3125 C149 0 149 0 152 0 C152.14906961 4.85622918 152.25754856 9.71110811 152.32958984 14.5690918 C152.35963934 16.21906755 152.40049264 17.8688852 152.45263672 19.51831055 C152.92967477 35.00333971 152.92967477 35.00333971 149.20703125 39.484375 C143.07303086 45.03874671 134.66868152 47.37010634 127 50 C125.71029297 50.48726563 125.71029297 50.48726563 124.39453125 50.984375 C91.37645119 60.86320218 43.74605556 60.40925343 12.625 45.25 C11.70976562 44.82203125 10.79453125 44.3940625 9.8515625 43.953125 C5.61951376 41.05446148 2.35042451 38.66951004 0 34 C-0.84959694 28.13643729 -0.66317396 22.40523663 -0.4375 16.5 C-0.40233972 14.89850574 -0.37040899 13.29693713 -0.34179688 11.6953125 C-0.26514021 7.79502128 -0.14463013 3.8983383 0 0 Z M64 27 C63.74984127 30.58357241 63.74984127 30.58357241 64 34 C67.78623851 36.48471902 71.63325454 36.29746462 76 36.25 C76.7115625 36.25773437 77.423125 36.26546875 78.15625 36.2734375 C81.88107923 36.25953888 84.92198717 36.23715218 88 34 C89.1327429 31.13038466 89.30149189 29.71522752 88.09765625 26.859375 C84.67498059 23.8254949 80.90486177 24.50064283 76.5 24.625 C75.63246094 24.62628906 74.76492187 24.62757813 73.87109375 24.62890625 C68.63208427 24.63513517 68.63208427 24.63513517 64 27 Z " fill="#FAFAFB" transform="translate(159,240)"/>
<path d="M0 0 C4.52491116 0.699423 8.50548052 1.80794771 12.8125 3.375 C53.00972759 17.22392095 106.38139775 15.40676445 146.12890625 0.953125 C149 0 149 0 152 0 C152 11.88 152 23.76 152 36 C150.68 36.33 149.36 36.66 148 37 C148 37.66 148 38.32 148 39 C108.53027856 55.5877733 48.10776993 56.47570199 8.1875 40.375 C5.1990152 39.08067693 2.71972321 37.81314881 0 36 C-0.2667616 33.23371085 -0.34804189 30.69380369 -0.29296875 27.9296875 C-0.28872391 27.13345978 -0.28447906 26.33723206 -0.28010559 25.51687622 C-0.26328834 22.96924271 -0.22563179 20.42239511 -0.1875 17.875 C-0.17245705 16.14975099 -0.15876796 14.42448961 -0.14648438 12.69921875 C-0.11337501 8.46584218 -0.06157285 4.23305441 0 0 Z M64 27 C63.58274322 30.37400578 63.58274322 30.37400578 64 34 C67.98648834 37.33221735 71.49711722 37.37789223 76.5625 37.3125 C77.86316406 37.30863281 79.16382813 37.30476563 80.50390625 37.30078125 C83.65826077 37.02940103 85.46902746 36.84860249 88 35 C89.08223366 32.08995097 89.08223366 32.08995097 89 29 C87.49284711 26.91869363 86.28773563 26.14386782 84 25 C81.54895534 24.87527228 79.13868652 24.81483669 76.6875 24.8125 C74.71330078 24.79123047 74.71330078 24.79123047 72.69921875 24.76953125 C69.27874633 24.98263354 67.04733659 25.50875018 64 27 Z " fill="#F9F9FA" transform="translate(159,191)"/>
<path d="M0 0 C1.49617612 0.44764144 2.99224798 0.89563138 4.48828125 1.34375 C5.8642749 1.75560547 5.8642749 1.75560547 7.26806641 2.17578125 C9.55156772 2.8647089 11.82883755 3.57012123 14.10546875 4.28125 C34.46999703 10.46091866 55.14386609 11.55706996 76.3125 11.4375 C77.98221863 11.43393494 77.98221863 11.43393494 79.68566895 11.43029785 C96.08564684 11.37555867 111.97294458 10.79733975 128 7 C128.77037598 6.82388184 129.54075195 6.64776367 130.33447266 6.46630859 C137.71800501 4.74364705 144.79768764 2.40077079 152 0 C152 12.21 152 24.42 152 37 C112.41781566 55.26870047 53.35205235 56.99557225 12.19921875 42.26953125 C2.36842105 38.36842105 2.36842105 38.36842105 0 36 C-0.08855161 33.3337397 -0.11524673 30.69352886 -0.09765625 28.02734375 C-0.0962413 27.22970108 -0.09482635 26.43205841 -0.09336853 25.61024475 C-0.08775316 23.05262565 -0.07519812 20.49509282 -0.0625 17.9375 C-0.05748698 16.20768355 -0.05292373 14.47786574 -0.04882812 12.74804688 C-0.03777875 8.49866447 -0.02050386 4.24934688 0 0 Z M64 28 C63.83322718 31.58343976 63.83322718 31.58343976 64 35 C68.26847317 37.07255344 71.84656005 37.26873263 76.5625 37.25 C77.86316406 37.25515625 79.16382813 37.2603125 80.50390625 37.265625 C83.67621203 37.02460065 85.4602183 36.86126159 88 35 C89.08223366 32.08995097 89.08223366 32.08995097 89 29 C87.42486644 26.82548215 86.52031107 26.0903215 83.85522461 25.62768555 C83.04577393 25.6306665 82.23632324 25.63364746 81.40234375 25.63671875 C80.07686523 25.63768555 80.07686523 25.63768555 78.72460938 25.63867188 C77.34499023 25.6628418 77.34499023 25.6628418 75.9375 25.6875 C75.01388672 25.68427734 74.09027344 25.68105469 73.13867188 25.67773438 C68.04072056 25.4166911 68.04072056 25.4166911 64 28 Z " fill="#F9F9FB" transform="translate(159,142)"/>
<path d="M0 0 C3.2591752 3.27429899 4.264988 5.67966158 4.30859375 10.31640625 C4.21347371 11.67299924 4.09888049 13.02906454 3.93359375 14.37890625 C-31.03690337 36.13832668 -88.3934252 31.74766801 -126.9375 23.26171875 C-134.32753912 21.17663905 -141.28828027 17.95625052 -148.06640625 14.37890625 C-148.34569214 8.88628373 -148.4450146 5.9491098 -145.06640625 1.37890625 C-142.61328125 -0.53515625 -142.61328125 -0.53515625 -139.81640625 -2.24609375 C-138.90375 -2.81585938 -137.99109375 -3.385625 -137.05078125 -3.97265625 C-102.9448781 -22.81125721 -31.83126706 -24.97159893 0 0 Z " fill="#FAFAFB" transform="translate(307.06640625,115.62109375)"/>
<path d="M0 0 C2.03858459 1.22893397 3.95755283 2.40334885 5.765625 3.953125 C5.765625 4.613125 5.765625 5.273125 5.765625 5.953125 C6.755625 5.953125 7.745625 5.953125 8.765625 5.953125 C8.765625 6.613125 8.765625 7.273125 8.765625 7.953125 C9.4875 8.200625 10.209375 8.448125 10.953125 8.703125 C15.62012914 10.77734906 18.80805182 13.19778131 20.765625 17.953125 C21.28780863 21.02576341 21.3237664 23.88334728 20.765625 26.953125 C18.328125 29.953125 18.328125 29.953125 15.765625 31.953125 C15.435625 32.283125 15.105625 32.613125 14.765625 32.953125 C13.24634462 33.02492464 11.72395018 33.03704507 10.203125 33.015625 C9.37683594 33.00660156 8.55054688 32.99757813 7.69921875 32.98828125 C7.06113281 32.97667969 6.42304688 32.96507812 5.765625 32.953125 C5.78657227 33.73437744 5.80751953 34.51562988 5.82910156 35.32055664 C5.91262683 38.88544674 5.96440189 42.45013041 6.015625 46.015625 C6.06589844 47.85930664 6.06589844 47.85930664 6.1171875 49.74023438 C6.19160592 56.64254314 6.19003624 61.47035639 1.765625 66.953125 C-3.25554253 68.62684751 -8.2389427 68.75978912 -13.171875 66.765625 C-16.37814435 63.94799436 -17.14745631 61.11923731 -17.46142578 56.90698242 C-17.45095215 55.80201416 -17.44047852 54.6970459 -17.4296875 53.55859375 C-17.42324219 52.35654297 -17.41679687 51.15449219 -17.41015625 49.91601562 C-17.39339844 48.67013672 -17.37664062 47.42425781 -17.359375 46.140625 C-17.35035156 44.87541016 -17.34132812 43.61019531 -17.33203125 42.30664062 C-17.30849894 39.18860936 -17.27562045 36.07096403 -17.234375 32.953125 C-18.1469104 32.98466675 -18.1469104 32.98466675 -19.07788086 33.0168457 C-20.28263062 33.04137817 -20.28263062 33.04137817 -21.51171875 33.06640625 C-22.30570068 33.08743408 -23.09968262 33.10846191 -23.91772461 33.13012695 C-26.92487785 32.90036764 -29.02774947 31.88832642 -31.19921875 29.77734375 C-33.41844919 25.8664735 -33.18206838 21.23620678 -32.234375 16.953125 C-29.36312057 12.42808432 -25.43639178 9.65169338 -21.109375 6.640625 C-20.47644531 6.18623047 -19.84351563 5.73183594 -19.19140625 5.26367188 C-14.5018797 1.953125 -14.5018797 1.953125 -12.234375 1.953125 C-12.234375 1.293125 -12.234375 0.633125 -12.234375 -0.046875 C-7.91473802 -1.48675399 -4.24336928 -1.98815204 0 0 Z " fill="#F9F9FA" transform="translate(241.234375,316.046875)"/>
<path d="M0 0 C1.47894264 1.00981568 2.94097564 2.04476267 4.38671875 3.1015625 C8.61960742 6.07620963 13.2338482 8.39147904 17.8046875 10.80078125 C18.08054688 10.02347656 18.35640625 9.24617188 18.640625 8.4453125 C20.28871255 4.70116729 22.17379463 3.61622768 25.8046875 1.80078125 C30.46214097 0.79877931 32.88132153 1.20513545 36.94140625 3.82421875 C40.55666403 7.02381855 41.05434545 10.34765365 41.6171875 14.98828125 C41.72627441 15.74278564 41.83536133 16.49729004 41.94775391 17.2746582 C42.15915425 18.77001892 42.35906578 20.26705747 42.54638672 21.765625 C42.76530717 23.49050299 43.03180136 25.20923932 43.30859375 26.92578125 C44.06278026 32.13363754 43.89178933 35.28038214 40.8046875 39.80078125 C37.14856406 44.06441765 31.85645653 45.64518347 26.8046875 47.80078125 C25.90234375 48.20039063 25 48.6 24.0703125 49.01171875 C15.5313666 52.66017745 15.5313666 52.66017745 10.8046875 51.80078125 C7.1468657 49.76084217 5.13522576 48.29658863 2.8046875 44.80078125 C2.32497915 38.94833934 2.96924929 36.04521973 5.8046875 30.80078125 C4.3196875 30.02154297 4.3196875 30.02154297 2.8046875 29.2265625 C-1.20996454 27.11150151 -5.20543567 24.9621412 -9.1953125 22.80078125 C-10.07703125 22.32769531 -10.95875 21.85460937 -11.8671875 21.3671875 C-16.24343547 18.85824835 -18.56584715 16.79101888 -20.1953125 11.80078125 C-20.77449119 7.82927022 -20.37124714 6.13961833 -18.5078125 2.55078125 C-13.60759364 -3.27650605 -6.58205704 -3.5955365 0 0 Z " fill="#FAFAFB" transform="translate(92.1953125,101.19921875)"/>
<path d="M0 0 C0.495 1.485 0.495 1.485 1 3 C1.66 3 2.32 3 3 3 C4.24377393 5.48754786 4.13306235 7.22655301 4.125 10 C4.12886719 11.3303125 4.12886719 11.3303125 4.1328125 12.6875 C4 15 4 15 3 17 C2.34 17 1.68 17 1 17 C0.7642627 17.60231445 0.52852539 18.20462891 0.28564453 18.82519531 C-1.31551414 21.53372578 -2.80575424 22.32710985 -5.5703125 23.796875 C-6.91416016 24.52197266 -6.91416016 24.52197266 -8.28515625 25.26171875 C-9.22230469 25.75285156 -10.15945313 26.24398437 -11.125 26.75 C-12.54232422 27.50990234 -12.54232422 27.50990234 -13.98828125 28.28515625 C-16.32033222 29.53362798 -18.65746003 30.77135522 -21 32 C-21.18490007 34.32357511 -21.18490007 34.32357511 -19 37 C-18.38585581 41.25912987 -18.56272845 44.97241187 -20.25 48.9375 C-22.17003979 51.20040404 -23.16843403 52.13479929 -26 53 C-31.97218472 53.48402993 -35.86921548 52.12870075 -41.125 49.625 C-42.50236593 48.99166912 -43.87996475 48.35884445 -45.2578125 47.7265625 C-45.90169922 47.42419678 -46.54558594 47.12183105 -47.20898438 46.81030273 C-48.72799288 46.1230632 -50.28715709 45.52569143 -51.8515625 44.94921875 C-55.18035885 43.478496 -56.28532128 41.12316481 -58 38 C-59.40869682 32.60580286 -58.79276289 27.55482972 -58.3125 22.0625 C-58.24611328 21.08603516 -58.17972656 20.10957031 -58.11132812 19.10351562 C-57.60725662 13.24914186 -56.88163445 9.48656449 -53 5 C-48.96908166 2.3127211 -45.73533235 2.32471493 -41 3 C-37.00415991 5.3453844 -35.28491024 8.06342607 -33 12 C-32.15695312 11.4946875 -31.31390625 10.989375 -30.4453125 10.46875 C-29.34960938 9.8190625 -28.25390625 9.169375 -27.125 8.5 C-26.03445313 7.8503125 -24.94390625 7.200625 -23.8203125 6.53125 C-21 5 -21 5 -19 5 C-19 4.34 -19 3.68 -19 3 C-12.32783595 -0.75510682 -7.50881792 -1.44219467 0 0 Z " fill="#F9F9FB" transform="translate(394,100)"/>
<path d="M0 0 C0.7734375 -0.00257812 1.546875 -0.00515625 2.34375 -0.0078125 C4.5 0.125 4.5 0.125 7.5 1.125 C12.67028207 7.53205817 11.96627027 14.13120371 11.75 22.0625 C11.73195312 23.31869141 11.71390625 24.57488281 11.6953125 25.86914062 C11.64837594 28.95521916 11.58272414 32.03970781 11.5 35.125 C12.76070312 35.09792969 14.02140625 35.07085937 15.3203125 35.04296875 C19.20614947 34.95953053 21.38711521 35.65300325 24.5 38.125 C27.21050939 42.19076409 27.00698991 45.35929483 26.5 50.125 C24.57027067 55.52824212 19.23815598 59.14648528 14.5 62.125 C13.51 62.125 12.52 62.125 11.5 62.125 C11.17 63.115 10.84 64.105 10.5 65.125 C6.70427931 68.05898951 3.91729499 68.46842731 -0.8125 68.3125 C-2.41544922 68.27189453 -2.41544922 68.27189453 -4.05078125 68.23046875 C-4.85902344 68.19566406 -5.66726562 68.16085938 -6.5 68.125 C-6.5 67.465 -6.5 66.805 -6.5 66.125 C-7.18707031 65.898125 -7.87414062 65.67125 -8.58203125 65.4375 C-12.18843136 63.81534413 -15.11046863 61.56432272 -18.1875 59.125 C-18.76822266 58.67382812 -19.34894531 58.22265625 -19.94726562 57.7578125 C-26.40175311 52.71361187 -26.40175311 52.71361187 -26.94140625 49.48046875 C-27.25730512 41.21614672 -27.25730512 41.21614672 -25.1796875 38.22265625 C-21.01001974 34.99724061 -17.75419435 34.94838843 -12.5 35.125 C-12.4906543 34.30821777 -12.48130859 33.49143555 -12.47167969 32.64990234 C-12.41784493 28.93266494 -12.33422006 25.216668 -12.25 21.5 C-12.23582031 20.21480469 -12.22164062 18.92960937 -12.20703125 17.60546875 C-11.89518777 5.56831026 -11.89518777 5.56831026 -7.5 1.125 C-4.68772378 0.18757459 -2.91253156 -0.00970844 0 0 Z " fill="#FAFAFA" transform="translate(235.5,11.875)"/>
<path d="M0 0 C1.74812944 0.7731607 3.49034051 1.55983313 5.2265625 2.359375 C6.11472656 2.74222656 7.00289062 3.12507812 7.91796875 3.51953125 C11.59397442 5.18235378 14.28977446 6.45043565 16.9296875 9.546875 C19.70974746 17.27449931 17.87757041 26.23643462 16.6015625 34.171875 C16.49247559 34.89793945 16.38338867 35.62400391 16.27099609 36.37207031 C15.69956314 39.56999783 14.99457306 41.90613252 13.1171875 44.57421875 C10.205638 46.54704453 8.34939298 46.6443533 4.8515625 46.609375 C3.8203125 46.6196875 2.7890625 46.63 1.7265625 46.640625 C-1.83325572 45.9828325 -2.93081652 44.92100161 -5.1484375 42.109375 C-6.3984375 39.859375 -6.3984375 39.859375 -7.1484375 38.109375 C-9.73378806 39.5433427 -12.31672378 40.98138594 -14.8984375 42.421875 C-15.62804687 42.82599609 -16.35765625 43.23011719 -17.109375 43.64648438 C-20.00964135 45.26799693 -22.78083967 46.82767632 -25.421875 48.8515625 C-29.22966205 51.62556121 -33.96491364 51.29145559 -38.3984375 50.609375 C-42.17586952 48.54895754 -43.67156664 46.0977607 -45.1484375 42.109375 C-45.61198598 38.79831445 -45.45405035 36.86831357 -44.2109375 33.78125 C-41.12366857 29.78183343 -37.10170605 27.87158897 -32.7109375 25.484375 C-31.002682 24.53605612 -29.29560783 23.58560547 -27.58984375 22.6328125 C-26.83388916 22.21950684 -26.07793457 21.80620117 -25.29907227 21.38037109 C-23.12031412 20.09275446 -21.14326209 18.66395269 -19.1484375 17.109375 C-19.6434375 16.449375 -20.1384375 15.789375 -20.6484375 15.109375 C-22.5541727 11.2979046 -22.91998082 8.29775302 -22.1484375 4.109375 C-16.61219354 -4.98588294 -8.7976831 -3.51642433 0 0 Z " fill="#FAFAFB" transform="translate(117.1484375,245.890625)"/>
<path d="M0 0 C5.68421053 3.05263158 5.68421053 3.05263158 7 7 C7.09225211 8.49774018 7.1300019 9.99942974 7.125 11.5 C7.12886719 12.66015625 7.12886719 12.66015625 7.1328125 13.84375 C7 16 7 16 6 19 C5.01 19.495 5.01 19.495 4 20 C5.97757908 21.23178419 7.95675131 22.46082821 9.9375 23.6875 C10.52781006 24.05399658 11.11812012 24.42049316 11.72631836 24.7980957 C15.11548953 26.88795414 18.53054362 28.84474015 22.0625 30.6875 C25.62994018 32.68106951 28.08583717 34.25489881 30 38 C30.74854455 42.76704686 30.61049169 46.64026852 28.625 51.0625 C24.56876066 54.05639094 20.98280015 54.58331793 16 54 C12.03372163 52.45401997 8.58635829 50.27474817 5 48 C2.77432076 46.70233336 0.54518965 45.41056748 -1.6875 44.125 C-3.45925861 43.08490791 -5.23043821 42.04382528 -7 41 C-7.33773438 41.49371094 -7.67546875 41.98742187 -8.0234375 42.49609375 C-8.46945312 43.13675781 -8.91546875 43.77742188 -9.375 44.4375 C-9.81585938 45.07558594 -10.25671875 45.71367187 -10.7109375 46.37109375 C-12 48 -12 48 -14 49 C-19.47957298 49.61766523 -23.62589942 50.04431644 -28.125 46.625 C-31.78984093 41.49422269 -31.68452556 36.47834635 -32.25 30.3125 C-32.36601562 29.23548828 -32.48203125 28.15847656 -32.6015625 27.04882812 C-33.17076543 20.77605797 -33.34994777 16.44002388 -30 11 C-25.99822397 7.62517418 -21.46449102 5.83677282 -16.6875 3.8125 C-15.85798828 3.44447266 -15.02847656 3.07644531 -14.17382812 2.69726562 C-9.28617163 0.61798634 -5.41008958 -0.61246297 0 0 Z " fill="#FAFAFB" transform="translate(368,243)"/>
</svg>
