<?xml version="1.0" encoding="UTF-8"?>
<svg version="1.1" xmlns="http://www.w3.org/2000/svg" width="471" height="395">
<path d="M0 0 C29.4110109 -0.02279008 58.82202119 -0.04049803 88.23303911 -0.05106533 C91.70166476 -0.0523161 95.17029039 -0.05361042 98.63891602 -0.05493164 C99.32948572 -0.05519395 100.02005542 -0.05545626 100.73155148 -0.05572652 C111.92766918 -0.06008327 123.12378178 -0.06797084 134.31989645 -0.0771528 C145.79969734 -0.0864892 157.27949407 -0.09198068 168.75929886 -0.09408849 C175.21087493 -0.09539604 181.6624394 -0.09848463 188.11401176 -0.10573006 C194.17873182 -0.11248625 200.24343541 -0.11461778 206.30815887 -0.11310768 C208.54113161 -0.11338419 210.77410486 -0.11539168 213.00707436 -0.11920547 C216.04143427 -0.12413646 219.07573097 -0.1230005 222.11009216 -0.12025452 C223.00598838 -0.12316736 223.90188459 -0.1260802 224.82492918 -0.12908131 C230.88587879 -0.11412121 230.88587879 -0.11412121 232 1 C232.09696917 3.17692611 232.12186746 5.35706393 232.12025452 7.53614807 C232.12153615 8.57261023 232.12153615 8.57261023 232.12284368 9.63001102 C232.12450047 11.9624322 232.1189739 14.29478263 232.11352539 16.62719727 C232.11324354 18.29234821 232.11340122 19.95749928 232.1139679 21.62265015 C232.11425594 26.15758106 232.10835816 30.69248576 232.10139394 35.22741055 C232.09516148 39.96133369 232.09455669 44.69525736 232.09336853 49.42918396 C232.09025489 58.400021 232.08204108 67.37084592 232.07201904 76.34167761 C232.0608589 86.55190392 232.0553477 96.7621308 232.05032361 106.97236168 C232.03985849 127.98158123 232.02225843 148.99078985 232 170 C231.38439209 170.1853833 230.76878418 170.3707666 230.13452148 170.56176758 C229.32571533 170.81595459 228.51690918 171.0701416 227.68359375 171.33203125 C226.88236084 171.57928955 226.08112793 171.82654785 225.25561523 172.08129883 C222.10288116 173.36539216 220.23776489 175.49099088 218 178 C217.34 178 216.68 178 216 178 C215.67 178.99 215.34 179.98 215 181 C213.0625 183.1875 213.0625 183.1875 211 185 C210.34 185 209.68 185 209 185 C208.67 185.99 208.34 186.98 208 188 C207.34 188 206.68 188 206 188 C205.71511719 188.58265625 205.43023437 189.1653125 205.13671875 189.765625 C204.43123832 191.15234255 203.68963492 192.52202749 202.89453125 193.859375 C200.44405267 198.14107765 199.42451409 201.23064439 200.3984375 206.12890625 C201.95351186 210.96579338 205.07879087 214.11359328 208.6875 217.5 C211.18070407 219.91295072 211.96810082 220.90054962 213.0625 224.3125 C213 227 213 227 211 229 C208.61060946 229.22824891 206.21149503 229.35934913 203.8125 229.4375 C196.41373481 229.80507528 191.743791 230.49479952 186.125 235.625 C185.42375 236.40875 184.7225 237.1925 184 238 C183.67 238.33 183.34 238.66 183 239 C182.70754389 244.03875969 182.68586846 249.08027405 182.64990234 254.12670898 C182.63338647 255.82509099 182.60615409 257.52340474 182.56787109 259.22143555 C182.51288255 261.67272934 182.49119224 264.12238979 182.4765625 266.57421875 C182.45389313 267.32757004 182.43122375 268.08092133 182.40786743 268.85710144 C182.42369552 272.83943288 182.81879067 275.26622158 185.36230469 278.41210938 C190.90153969 283.84675312 195.96044305 284.48055463 203.375 284.6875 C204.20644531 284.72166016 205.03789062 284.75582031 205.89453125 284.79101562 C207.92923351 284.87287146 209.96459208 284.93812701 212 285 C213.25 291.625 213.25 291.625 211 295 C210.34 295 209.68 295 209 295 C208.731875 295.598125 208.46375 296.19625 208.1875 296.8125 C207.00082594 298.99847854 205.90400887 300.41332594 204 302 C203.34 302 202.68 302 202 302 C201.855625 302.78375 201.71125 303.5675 201.5625 304.375 C201 307 201 307 200 309 C199.73622755 313.04451087 200.05639166 315.47720989 202 319 C202 319.99 202 320.98 202 322 C202.598125 322.268125 203.19625 322.53625 203.8125 322.8125 C205.99847854 323.99917406 207.41332594 325.09599113 209 327 C209 327.66 209 328.32 209 329 C209.99 329.33 210.98 329.66 212 330 C212 330.66 212 331.32 212 332 C212.598125 332.268125 213.19625 332.53625 213.8125 332.8125 C215.99847854 333.99917406 217.41332594 335.09599113 219 337 C219 337.66 219 338.32 219 339 C219.99 339.33 220.98 339.66 222 340 C222 340.66 222 341.32 222 342 C222.721875 342.12375 223.44375 342.2475 224.1875 342.375 C226.95721894 342.9904931 229.3970354 343.88444374 232 345 C232.04241723 347.33294775 232.04092937 349.66702567 232 352 C231.67 352.33 231.34 352.66 231 353 C213.51 353 196.02 353 178 353 C177.67 317.03 177.34 281.06 177 244 C160.5913302 235.7956651 140.34218594 242.34607898 122 242 C122 278.63 122 315.26 122 353 C117.71 353 113.42 353 109 353 C109 316.37 109 279.74 109 242 C81.775 242.495 81.775 242.495 54 243 C54 279.3 54 315.6 54 353 C36.51 353 19.02 353 1 353 C-1.30347684 349.54478474 -1.24972768 348.27196197 -1.24888897 344.20159817 C-1.25348777 342.98463676 -1.25808656 341.76767535 -1.26282471 340.51383632 C-1.25780924 339.15631318 -1.25260698 337.79879071 -1.24723816 336.44126892 C-1.24882553 335.00467342 -1.25128842 333.56807866 -1.25455457 332.131486 C-1.26098596 328.17434143 -1.25488616 324.21729871 -1.24679029 320.2601608 C-1.24022682 315.99632837 -1.2451588 311.73250758 -1.24867249 307.46867371 C-1.25372088 299.11235972 -1.24806494 290.75608523 -1.23882218 282.39977615 C-1.22845308 272.6767441 -1.22850797 262.95372065 -1.22899476 253.23068411 C-1.22949571 235.88774915 -1.22032494 218.54483261 -1.20581055 201.2019043 C-1.19172031 184.35717432 -1.18463984 167.51246056 -1.18530273 150.66772461 C-1.18536267 149.11139138 -1.18536267 149.11139138 -1.18542381 147.52361708 C-1.18546417 146.48788924 -1.18550452 145.45216139 -1.1855461 144.38504785 C-1.18623527 125.23033948 -1.18035001 106.07563802 -1.17139288 86.92093189 C-1.16837167 80.13660286 -1.16731275 73.3522751 -1.16686058 66.56794548 C-1.16617968 58.30575006 -1.16173226 50.04356629 -1.15252777 41.78137582 C-1.14789881 37.56247299 -1.14486831 33.34358511 -1.14612198 29.12467957 C-1.14721254 25.26778315 -1.14372622 21.41091986 -1.13647345 17.55403037 C-1.13465188 16.15369113 -1.13453778 14.75334849 -1.13624074 13.3530091 C-1.13828961 11.45952571 -1.13366216 9.56603852 -1.12863445 7.67256069 C-1.12793003 6.61780495 -1.1272256 5.56304921 -1.12649983 4.47633117 C-1 2 -1 2 0 0 Z M38 37 C37.9770868 41.25421714 37.95716111 45.50822157 37.94506836 49.76245117 C37.94002899 51.21070073 37.93319747 52.65894517 37.92456055 54.10717773 C37.91247753 56.18474588 37.90676789 58.26224697 37.90234375 60.33984375 C37.89710693 61.59144287 37.89187012 62.84304199 37.88647461 64.13256836 C37.67112965 66.89732294 37.67112965 66.89732294 39 68 C41.0605531 68.09993532 43.1245259 68.13080906 45.1875 68.1328125 C46.44304687 68.13410156 47.69859375 68.13539062 48.9921875 68.13671875 C49.97783691 68.13357666 49.97783691 68.13357666 50.98339844 68.13037109 C52.99161335 68.12502234 54.99960459 68.13031691 57.0078125 68.13671875 C58.26335937 68.13542969 59.51890625 68.13414063 60.8125 68.1328125 C61.97394531 68.13168457 63.13539062 68.13055664 64.33203125 68.12939453 C66.92063284 68.30337474 66.92063284 68.30337474 68 67 C68.09996094 64.95117803 68.13080946 62.89891431 68.1328125 60.84765625 C68.13410156 59.59662109 68.13539062 58.34558594 68.13671875 57.05664062 C68.13285156 55.73857422 68.12898438 54.42050781 68.125 53.0625 C68.12886719 51.74830078 68.13273437 50.43410156 68.13671875 49.08007812 C68.13478516 47.2015918 68.13478516 47.2015918 68.1328125 45.28515625 C68.13168457 44.12894775 68.13055664 42.97273926 68.12939453 41.78149414 C68.19022637 39.04281369 68.19022637 39.04281369 67 37 C57.43 37 47.86 37 38 37 Z M101 37 C101 47.23 101 57.46 101 68 C105.764375 68.020625 110.52875 68.04125 115.4375 68.0625 C116.9423999 68.071604 118.4472998 68.08070801 119.99780273 68.09008789 C121.17286377 68.09258545 122.3479248 68.09508301 123.55859375 68.09765625 C124.76829834 68.10289307 125.97800293 68.10812988 127.22436523 68.11352539 C129.90812017 68.31775285 129.90812017 68.31775285 131 67 C131.10003289 64.86646826 131.13081048 62.72962458 131.1328125 60.59375 C131.13410156 59.29308594 131.13539063 57.99242187 131.13671875 56.65234375 C131.13462402 55.97155762 131.1325293 55.29077148 131.13037109 54.58935547 C131.1250224 52.50871485 131.1303168 50.42829011 131.13671875 48.34765625 C131.13542969 47.04699219 131.13414062 45.74632812 131.1328125 44.40625 C131.13168457 43.20291016 131.13055664 41.99957031 131.12939453 40.75976562 C131.31455977 38.09015518 131.31455977 38.09015518 130 37 C127.85441173 36.91224395 125.70595579 36.89304781 123.55859375 36.90234375 C122.38353271 36.90484131 121.20847168 36.90733887 119.99780273 36.90991211 C118.49290283 36.91901611 116.98800293 36.92812012 115.4375 36.9375 C110.673125 36.958125 105.90875 36.97875 101 37 Z M163 39 C162.68821575 41.78307748 162.68821575 41.78307748 162.734375 45.03125 C162.73179687 46.23394531 162.72921875 47.43664062 162.7265625 48.67578125 C162.73429688 49.93777344 162.74203125 51.19976562 162.75 52.5 C162.74226562 53.76199219 162.73453125 55.02398437 162.7265625 56.32421875 C162.72914063 57.52691406 162.73171875 58.72960937 162.734375 59.96875 C162.73663086 61.07669922 162.73888672 62.18464844 162.74121094 63.32617188 C162.72882699 66.15262582 162.72882699 66.15262582 165 68 C167.89788321 68.29537891 167.89788321 68.29537891 171.28515625 68.23046875 C172.53748047 68.22853516 173.78980469 68.22660156 175.08007812 68.22460938 C176.39427734 68.21236328 177.70847656 68.20011719 179.0625 68.1875 C180.38056641 68.18685547 181.69863281 68.18621094 183.05664062 68.18554688 C188.90903924 68.73391123 188.90903924 68.73391123 194 67 C194.10003289 64.86646826 194.13081048 62.72962458 194.1328125 60.59375 C194.13410156 59.29308594 194.13539063 57.99242187 194.13671875 56.65234375 C194.13462402 55.97155762 194.1325293 55.29077148 194.13037109 54.58935547 C194.1250224 52.50871485 194.1303168 50.42829011 194.13671875 48.34765625 C194.13542969 47.04699219 194.13414062 45.74632812 194.1328125 44.40625 C194.13168457 43.20291016 194.13055664 41.99957031 194.12939453 40.75976562 C194.31455977 38.09015518 194.31455977 38.09015518 193 37 C188.35984675 36.7458445 183.70878694 36.81477202 179.0625 36.8125 C177.09120117 36.79413086 177.09120117 36.79413086 175.08007812 36.77539062 C173.82775391 36.77345703 172.57542969 36.77152344 171.28515625 36.76953125 C170.12894775 36.76542236 168.97273926 36.76131348 167.78149414 36.75708008 C164.859433 36.71196371 164.859433 36.71196371 163 39 Z M38 103 C37.97534378 107.25414623 37.95716101 111.50825498 37.94506836 115.76245117 C37.94002899 117.21070073 37.93319747 118.65894517 37.92456055 120.10717773 C37.91247753 122.18474588 37.90676789 124.26224697 37.90234375 126.33984375 C37.89710693 127.59144287 37.89187012 128.84304199 37.88647461 130.13256836 C37.67112965 132.89732294 37.67112965 132.89732294 39 134 C41.07262076 134.08767112 43.14820294 134.10695873 45.22265625 134.09765625 C46.48271484 134.09443359 47.74277344 134.09121094 49.04101562 134.08789062 C50.38151109 134.07953403 51.72200588 134.07106907 53.0625 134.0625 C54.40689942 134.0574866 55.7513006 134.05292342 57.09570312 134.04882812 C60.39717941 134.03699488 63.69856803 134.02050971 67 134 C68.43509221 131.12981559 68.11158506 128.66456277 68.09765625 125.4609375 C68.09443359 124.15898437 68.09121094 122.85703125 68.08789062 121.515625 C68.07953466 120.13541601 68.07106971 118.75520768 68.0625 117.375 C68.05748501 115.98698074 68.0529221 114.59895978 68.04882812 113.2109375 C68.03700976 109.80724868 68.02053434 106.40364561 68 103 C65.30734639 101.6536732 63.19885751 101.87037364 60.1875 101.8671875 C58.45113281 101.86525391 58.45113281 101.86525391 56.6796875 101.86328125 C54.85824219 101.86908203 54.85824219 101.86908203 53 101.875 C51.17855469 101.86919922 51.17855469 101.86919922 49.3203125 101.86328125 C48.16273437 101.86457031 47.00515625 101.86585938 45.8125 101.8671875 C44.74644531 101.86831543 43.68039063 101.86944336 42.58203125 101.87060547 C40.0131786 101.82595802 40.0131786 101.82595802 38 103 Z M101 103 C100.97534378 107.25414623 100.95716101 111.50825498 100.94506836 115.76245117 C100.94002899 117.21070073 100.93319747 118.65894517 100.92456055 120.10717773 C100.91247753 122.18474588 100.90676789 124.26224697 100.90234375 126.33984375 C100.89710693 127.59144287 100.89187012 128.84304199 100.88647461 130.13256836 C100.67112965 132.89732294 100.67112965 132.89732294 102 134 C103.97583828 134.09985642 105.95523478 134.13080794 107.93359375 134.1328125 C109.7424707 134.13474609 109.7424707 134.13474609 111.58789062 134.13671875 C112.85826172 134.13285156 114.12863281 134.12898438 115.4375 134.125 C117.33725586 134.13080078 117.33725586 134.13080078 119.27539062 134.13671875 C120.48259766 134.13542969 121.68980469 134.13414062 122.93359375 134.1328125 C124.04790771 134.13168457 125.16222168 134.13055664 126.31030273 134.12939453 C128.97082739 134.18280216 128.97082739 134.18280216 131 133 C131.07408587 128.90666095 131.1285704 124.81358067 131.16479492 120.71972656 C131.17989358 119.32675378 131.20037444 117.93382862 131.22631836 116.54101562 C131.26265122 114.54057115 131.27811192 112.53978173 131.29296875 110.5390625 C131.3086792 109.33459473 131.32438965 108.13012695 131.34057617 106.88916016 C131.22818604 105.9357373 131.1157959 104.98231445 131 104 C127.57757307 101.71838205 126.32840656 101.75332105 122.30859375 101.76953125 C120.64473633 101.77243164 120.64473633 101.77243164 118.94726562 101.77539062 C117.78904297 101.78763672 116.63082031 101.79988281 115.4375 101.8125 C114.27541016 101.81314453 113.11332031 101.81378906 111.91601562 101.81445312 C106.2839128 101.56624215 106.2839128 101.56624215 101 103 Z M163 104 C162.54899945 106.87607025 162.54899945 106.87607025 162.63671875 110.25 C162.63736328 111.4978125 162.63800781 112.745625 162.63867188 114.03125 C162.65478516 115.3409375 162.67089844 116.650625 162.6875 118 C162.68427734 119.3096875 162.68105469 120.619375 162.67773438 121.96875 C162.19476843 128.5808906 162.19476843 128.5808906 165 134 C167.78307748 134.31178425 167.78307748 134.31178425 171.03125 134.265625 C172.23394531 134.26820313 173.43664062 134.27078125 174.67578125 134.2734375 C175.93777344 134.26570313 177.19976562 134.25796875 178.5 134.25 C179.76199219 134.25773437 181.02398437 134.26546875 182.32421875 134.2734375 C183.52691406 134.27085937 184.72960937 134.26828125 185.96875 134.265625 C187.63067383 134.26224121 187.63067383 134.26224121 189.32617188 134.25878906 C192.15262582 134.27117301 192.15262582 134.27117301 194 132 C194.31198539 129.11912077 194.31198539 129.11912077 194.265625 125.75 C194.26820313 124.5021875 194.27078125 123.254375 194.2734375 121.96875 C194.26570313 120.6590625 194.25796875 119.349375 194.25 118 C194.25773437 116.6903125 194.26546875 115.380625 194.2734375 114.03125 C194.27085937 112.7834375 194.26828125 111.535625 194.265625 110.25 C194.26336914 109.10015625 194.26111328 107.9503125 194.25878906 106.765625 C194.28343676 103.85800168 194.28343676 103.85800168 192 102 C189.3312027 101.68842542 189.3312027 101.68842542 186.22265625 101.734375 C185.06958984 101.73179687 183.91652344 101.72921875 182.72851562 101.7265625 C180.91383789 101.73816406 180.91383789 101.73816406 179.0625 101.75 C177.85658203 101.74226563 176.65066406 101.73453125 175.40820312 101.7265625 C173.67666992 101.73042969 173.67666992 101.73042969 171.91015625 101.734375 C170.84933838 101.73663086 169.78852051 101.73888672 168.69555664 101.74121094 C165.77735039 101.80707811 165.77735039 101.80707811 163 104 Z M38 168 C37.97534378 172.25414623 37.95716101 176.50825498 37.94506836 180.76245117 C37.94002899 182.21070073 37.93319747 183.65894517 37.92456055 185.10717773 C37.91247753 187.18474588 37.90676789 189.26224697 37.90234375 191.33984375 C37.89710693 192.59144287 37.89187012 193.84304199 37.88647461 195.13256836 C37.67112965 197.89732294 37.67112965 197.89732294 39 199 C41.0605531 199.09993532 43.1245259 199.13080906 45.1875 199.1328125 C46.44304687 199.13410156 47.69859375 199.13539063 48.9921875 199.13671875 C49.97783691 199.13357666 49.97783691 199.13357666 50.98339844 199.13037109 C52.99161335 199.12502234 54.99960459 199.13031691 57.0078125 199.13671875 C58.26335937 199.13542969 59.51890625 199.13414062 60.8125 199.1328125 C61.97394531 199.13168457 63.13539062 199.13055664 64.33203125 199.12939453 C66.92063284 199.30337474 66.92063284 199.30337474 68 198 C68.10003289 195.86646826 68.13081048 193.72962458 68.1328125 191.59375 C68.13410156 190.29308594 68.13539062 188.99242187 68.13671875 187.65234375 C68.13462402 186.97155762 68.1325293 186.29077148 68.13037109 185.58935547 C68.1250224 183.50871485 68.1303168 181.42829011 68.13671875 179.34765625 C68.13542969 178.04699219 68.13414063 176.74632812 68.1328125 175.40625 C68.13168457 174.20291016 68.13055664 172.99957031 68.12939453 171.75976562 C68.31455977 169.09015518 68.31455977 169.09015518 67 168 C64.85441173 167.91224395 62.70595579 167.89304781 60.55859375 167.90234375 C59.25341797 167.90556641 57.94824219 167.90878906 56.60351562 167.91210938 C55.2148431 167.92046599 53.82617123 167.92893095 52.4375 167.9375 C51.04492344 167.94251334 49.65234519 167.94707653 48.25976562 167.95117188 C44.8398013 167.96300566 41.41992156 167.9794912 38 168 Z M101 168 C100.14412477 178.26852957 100.14412477 178.26852957 99.8125 188.5625 C99.79123047 190.26599609 99.79123047 190.26599609 99.76953125 192.00390625 C99.99758213 194.96856765 100.60981173 196.44311423 102 199 C105.96930989 199.02465881 109.93859034 199.04284023 113.90795898 199.05493164 C115.25920386 199.05997057 116.61044326 199.06680177 117.96166992 199.07543945 C119.90020434 199.08752419 121.838778 199.09269828 123.77734375 199.09765625 C124.94515381 199.10289307 126.11296387 199.10812988 127.31616211 199.11352539 C129.91891551 199.30661495 129.91891551 199.30661495 131 198 C131.10003289 195.86646826 131.13081048 193.72962458 131.1328125 191.59375 C131.13410156 190.29308594 131.13539063 188.99242187 131.13671875 187.65234375 C131.13462402 186.97155762 131.1325293 186.29077148 131.13037109 185.58935547 C131.1250224 183.50871485 131.1303168 181.42829011 131.13671875 179.34765625 C131.13542969 178.04699219 131.13414062 176.74632812 131.1328125 175.40625 C131.13168457 174.20291016 131.13055664 172.99957031 131.12939453 171.75976562 C131.31455977 169.09015518 131.31455977 169.09015518 130 168 C127.85441173 167.91224395 125.70595579 167.89304781 123.55859375 167.90234375 C122.25341797 167.90556641 120.94824219 167.90878906 119.60351562 167.91210938 C118.2148431 167.92046599 116.82617123 167.92893095 115.4375 167.9375 C114.04492344 167.94251334 112.65234519 167.94707653 111.25976562 167.95117188 C107.8398013 167.96300566 104.41992156 167.9794912 101 168 Z M164 168 C162.59087904 170.81824192 162.88816447 173.17251282 162.90234375 176.3203125 C162.90556641 177.57714844 162.90878906 178.83398438 162.91210938 180.12890625 C162.92048828 181.44761719 162.92886719 182.76632813 162.9375 184.125 C162.94251511 185.46484211 162.94707799 186.804686 162.95117188 188.14453125 C162.96298914 191.42973206 162.97946383 194.71484397 163 198 C165.74524552 199.37262276 167.96219295 199.1296881 171.03125 199.1328125 C172.23394531 199.13410156 173.43664062 199.13539063 174.67578125 199.13671875 C176.56876953 199.13091797 176.56876953 199.13091797 178.5 199.125 C179.76199219 199.12886719 181.02398437 199.13273437 182.32421875 199.13671875 C184.12826172 199.13478516 184.12826172 199.13478516 185.96875 199.1328125 C187.07669922 199.13168457 188.18464844 199.13055664 189.32617188 199.12939453 C191.97318516 199.18151469 191.97318516 199.18151469 194 198 C194.02465746 193.8882744 194.04283959 189.77657722 194.05493164 185.66479492 C194.0599708 184.26504772 194.06680216 182.8653058 194.07543945 181.46557617 C194.0875232 179.45754223 194.09269807 177.44947043 194.09765625 175.44140625 C194.10289307 174.23170166 194.10812988 173.02199707 194.11352539 171.77563477 C194.31775285 169.09187983 194.31775285 169.09187983 193 168 C190.85441173 167.91224395 188.70595579 167.89304781 186.55859375 167.90234375 C185.25341797 167.90556641 183.94824219 167.90878906 182.60351562 167.91210938 C181.2148431 167.92046599 179.82617123 167.92893095 178.4375 167.9375 C177.04492344 167.94251334 175.65234519 167.94707653 174.25976562 167.95117188 C170.8398013 167.96300566 167.41992156 167.9794912 164 168 Z " fill="#FAFAFB" transform="translate(46,37)"/>
<path d="M0 0 C1.28519531 -0.00386719 2.57039063 -0.00773438 3.89453125 -0.01171875 C4.56307129 -0.00543457 5.23161133 0.00084961 5.92041016 0.00732422 C7.9619433 0.02338396 10.00149708 0.00747079 12.04296875 -0.01171875 C13.32816406 -0.00785156 14.61335938 -0.00398437 15.9375 0 C17.11763672 0.00338379 18.29777344 0.00676758 19.51367188 0.01025391 C22.46875 0.3984375 22.46875 0.3984375 24.3515625 1.70166016 C26.23359718 4.56008258 25.92635168 7.82925468 25.96875 11.1484375 C26.0582849 18.00425241 26.83063145 23.44995207 31.59375 28.7734375 C35.52798418 30.99713508 38.95551337 31.72357633 43.46875 31.3984375 C47.30171263 30.12328359 49.93521695 28.06535381 52.46875 24.8984375 C55.03904129 21.68557339 57.6027041 19.81463116 61.46875 18.3984375 C64.96875 18.1484375 64.96875 18.1484375 68.46875 19.3984375 C71.10119141 21.83881237 73.24892014 24.58629727 75.46875 27.3984375 C78.00139896 29.99138762 80.51143764 32.43448484 83.28125 34.7734375 C85.46875 37.3984375 85.46875 37.3984375 85.78125 41.2109375 C85.6265625 42.78875 85.6265625 42.78875 85.46875 44.3984375 C84.829375 44.6665625 84.19 44.9346875 83.53125 45.2109375 C81.13743314 46.28511502 81.13743314 46.28511502 80.46875 49.3984375 C79.80875 49.3984375 79.14875 49.3984375 78.46875 49.3984375 C77.80875 50.7184375 77.14875 52.0384375 76.46875 53.3984375 C75.80875 53.3984375 75.14875 53.3984375 74.46875 53.3984375 C73.71822604 56.22092078 73.16305742 59.00265134 72.78125 61.8984375 C72.62076172 63.02765625 72.62076172 63.02765625 72.45703125 64.1796875 C72.47077576 66.78198228 73.25597303 68.13086982 74.46875 70.3984375 C74.46875 71.3884375 74.46875 72.3784375 74.46875 73.3984375 C75.78875 73.7284375 77.10875 74.0584375 78.46875 74.3984375 C78.46875 75.0584375 78.46875 75.7184375 78.46875 76.3984375 C79.33826294 76.40460083 79.33826294 76.40460083 80.2253418 76.41088867 C82.86999109 76.44393027 85.51236839 76.51458014 88.15625 76.5859375 C89.52426758 76.59463867 89.52426758 76.59463867 90.91992188 76.60351562 C95.09809596 76.74025587 97.87408543 77.07271671 101.578125 79.1015625 C104.65909094 84.47415601 104.14922481 89.88682893 104.03125 95.9609375 C104.04220703 97.19263672 104.05316406 98.42433594 104.06445312 99.69335938 C103.99076764 108.70755078 103.99076764 108.70755078 101.69067383 111.75170898 C99.2815655 113.53716505 98.29491948 113.88629578 95.3515625 113.8671875 C94.57941406 113.88136719 93.80726563 113.89554687 93.01171875 113.91015625 C91.4075519 113.90238161 89.80338523 113.89456948 88.19921875 113.88671875 C82.81369878 113.985289 79.74321237 114.79923529 75.46875 118.3984375 C72.55205131 122.77348554 71.67435198 126.19071716 72.46875 131.3984375 C75.33006632 137.11092363 79.27967051 141.51927352 84.1484375 145.59765625 C86.11357127 148.27791266 85.80339709 150.1391898 85.46875 153.3984375 C82.95222447 157.13579205 79.62042832 160.12794833 76.40625 163.2734375 C75.55869141 164.15257812 74.71113281 165.03171875 73.83789062 165.9375 C67.57252998 172.16899383 67.57252998 172.16899383 62.59765625 173.203125 C59.05161446 172.2911592 57.81142287 171.41521494 55.46875 168.6484375 C51.10913561 163.91082187 47.59707026 160.67285156 40.90625 160.0859375 C37.71598651 160.37596145 34.61240971 160.78504048 31.46875 161.3984375 C31.13875 162.3884375 30.80875 163.3784375 30.46875 164.3984375 C29.80875 164.3984375 29.14875 164.3984375 28.46875 164.3984375 C26.5485026 170.27439456 26.12356005 175.55040172 26.078125 181.70117188 C25.96755537 184.92919065 25.78567464 186.97663774 23.81982422 189.59301758 C20.81031224 191.90406027 19.0804061 191.91401588 15.3125 191.9296875 C14.12527344 191.93484375 12.93804687 191.94 11.71484375 191.9453125 C9.86052734 191.92210937 9.86052734 191.92210937 7.96875 191.8984375 C6.73253906 191.91390625 5.49632812 191.929375 4.22265625 191.9453125 C2.44181641 191.93757813 2.44181641 191.93757813 0.625 191.9296875 C-0.45974609 191.92517578 -1.54449219 191.92066406 -2.66210938 191.91601562 C-6.20969669 191.27604923 -7.39669568 190.26468509 -9.53125 187.3984375 C-9.96496415 183.82391002 -10.03843218 180.44935442 -10.01953125 176.86132812 C-10.1287693 171.26536097 -11.32492852 168.02247948 -14.53125 163.3984375 C-15.19125 163.0684375 -15.85125 162.7384375 -16.53125 162.3984375 C-16.53125 161.7384375 -16.53125 161.0784375 -16.53125 160.3984375 C-18.26005982 160.34393912 -19.98937712 160.30542062 -21.71875 160.2734375 C-22.68167969 160.25023437 -23.64460938 160.22703125 -24.63671875 160.203125 C-30.69117848 160.61165805 -33.40752284 163.16325826 -37.53125 167.3984375 C-38.19125 167.3984375 -38.85125 167.3984375 -39.53125 167.3984375 C-39.86125 168.3884375 -40.19125 169.3784375 -40.53125 170.3984375 C-41.19125 170.3984375 -41.85125 170.3984375 -42.53125 170.3984375 C-42.53125 171.0584375 -42.53125 171.7184375 -42.53125 172.3984375 C-49.85860426 172.68025882 -49.85860426 172.68025882 -53.53125 170.3984375 C-55.27734375 168.62890625 -55.27734375 168.62890625 -56.96875 166.5859375 C-58.99366802 164.18891916 -60.99590406 161.93378344 -63.21875 159.7109375 C-69.5099734 153.4197141 -69.5099734 153.4197141 -69.59375 149.3984375 C-68.27628868 145.6785467 -66.4373126 144.0341687 -63.53125 141.3984375 C-62.4484375 140.00625 -62.4484375 140.00625 -61.34375 138.5859375 C-60.745625 137.8640625 -60.1475 137.1421875 -59.53125 136.3984375 C-58.87125 136.3984375 -58.21125 136.3984375 -57.53125 136.3984375 C-56.50418213 129.55544317 -55.73738218 124.39519632 -59.53125 118.3984375 C-64.54021244 114.15772083 -68.45150265 113.84102043 -74.71875 113.8359375 C-76.31653457 113.82699706 -77.91431144 113.80538328 -79.51171875 113.76953125 C-80.21192139 113.76880615 -80.91212402 113.76808105 -81.63354492 113.76733398 C-83.53125 113.3984375 -83.53125 113.3984375 -85.26416016 112.31738281 C-87.21286571 109.36616399 -86.86707387 106.82405373 -86.82421875 103.32421875 C-86.81997391 102.6403862 -86.81572906 101.95655365 -86.81135559 101.2519989 C-86.79458353 99.07124189 -86.75693657 96.89141441 -86.71875 94.7109375 C-86.70370114 93.23113315 -86.69001308 91.7513143 -86.67773438 90.27148438 C-86.64468569 86.64683414 -86.59291446 83.02272656 -86.53125 79.3984375 C-82.58971458 77.21673967 -79.02216575 77.03569013 -74.59375 76.8984375 C-68.63676684 76.71279366 -63.83576407 76.51090873 -59.28125 72.3359375 C-56.98158507 68.47578566 -56.30091499 64.88229241 -56.53125 60.3984375 C-57.77244128 56.10200614 -59.99095691 53.50128113 -63.03125 50.2734375 C-65.44573108 47.69433271 -67.56859407 45.34242139 -69.53125 42.3984375 C-69.15625 39.2109375 -69.15625 39.2109375 -68.53125 36.3984375 C-67.87125 36.3984375 -67.21125 36.3984375 -66.53125 36.3984375 C-66.1290625 35.50125 -66.1290625 35.50125 -65.71875 34.5859375 C-64.53207594 32.39995896 -63.43525887 30.98511156 -61.53125 29.3984375 C-60.87125 29.3984375 -60.21125 29.3984375 -59.53125 29.3984375 C-59.325 28.8621875 -59.11875 28.3259375 -58.90625 27.7734375 C-56.34176588 23.34387403 -53.35660002 20.0317222 -48.46875 18.3359375 C-43.16813313 18.44871658 -40.37141954 21.5150219 -36.59375 24.8984375 C-32.52501265 28.50915563 -29.02838261 31.03427233 -23.53125 31.8359375 C-18.49063343 31.10084758 -15.59480211 28.67508748 -12.38671875 24.82421875 C-10.023355 20.46070294 -9.97270439 17.08669808 -9.96875 12.2109375 C-9.95980956 10.61315293 -9.93819578 9.01537606 -9.90234375 7.41796875 C-9.90161865 6.71776611 -9.90089355 6.01756348 -9.90014648 5.29614258 C-8.84022608 -0.15637977 -4.81753812 0.01381326 0 0 Z M-19.53125 58.3984375 C-19.53125 59.0584375 -19.53125 59.7184375 -19.53125 60.3984375 C-20.52125 60.3984375 -21.51125 60.3984375 -22.53125 60.3984375 C-32.21351254 69.9186538 -37.49251591 81.7615989 -37.84375 95.2109375 C-37.60587107 108.3222643 -33.02555766 119.08248099 -24.21484375 128.80859375 C-14.73549902 137.76008633 -2.79622202 141.78247837 10.09375 141.54296875 C22.45665915 140.79062066 32.56697521 135.62914789 41.7265625 127.42578125 C43.64336795 125.19523859 44.53649951 123.17116188 45.46875 120.3984375 C46.12875 120.3984375 46.78875 120.3984375 47.46875 120.3984375 C48.45334071 118.0047078 49.43153703 115.6086868 50.40625 113.2109375 C50.68404297 112.53740234 50.96183594 111.86386719 51.24804688 111.16992188 C56.12236475 99.13094399 55.05873994 88.52071863 50.46875 76.3984375 C48.97806751 73.7984099 47.38169781 71.72499565 45.46875 69.3984375 C44.97375 67.9134375 44.97375 67.9134375 44.46875 66.3984375 C42.68104131 64.51092847 42.68104131 64.51092847 40.53125 62.7109375 C39.82097656 62.08832031 39.11070312 61.46570313 38.37890625 60.82421875 C36.59889184 59.19904985 36.59889184 59.19904985 34.46875 59.3984375 C33.97375 57.9134375 33.97375 57.9134375 33.46875 56.3984375 C29.62883372 54.35734635 25.53855846 52.92005603 21.46875 51.3984375 C20.334375 50.9653125 19.2 50.5321875 18.03125 50.0859375 C4.60616469 47.49513156 -8.53613564 50.20599935 -19.53125 58.3984375 Z " fill="#FAFAFB" transform="translate(324.53125,198.6015625)"/>
<path d="M0 0 C1.28577942 -0.00708481 2.57155884 -0.01416962 3.89630127 -0.02146912 C5.32939183 -0.01917508 6.76248205 -0.01666535 8.1955719 -0.01396179 C9.69837193 -0.01830693 11.20116974 -0.02348941 12.70396423 -0.02944946 C16.79278465 -0.04287232 20.88151282 -0.04341448 24.97035098 -0.04088616 C28.38004654 -0.03981864 31.78972326 -0.04469421 35.19941479 -0.04949158 C43.2416051 -0.06059821 51.28374871 -0.06101774 59.32594299 -0.05497742 C67.63069544 -0.04893592 75.93527854 -0.06125041 84.2400021 -0.08254749 C91.36275898 -0.10014383 98.48546188 -0.10616795 105.60823971 -0.10290974 C109.86559688 -0.10109354 114.12283327 -0.10376644 118.38017082 -0.11762428 C122.38322001 -0.13016608 126.38600458 -0.12829341 130.38904953 -0.11521339 C131.86005682 -0.11284003 133.33108252 -0.11560937 134.80206871 -0.12383652 C136.80649831 -0.13424062 138.81100278 -0.12443621 140.81542969 -0.11352539 C141.93834128 -0.11369313 143.06125288 -0.11386087 144.2181921 -0.1140337 C146.97120667 0.26069641 146.97120667 0.26069641 149.97120667 3.26069641 C149.97120667 9.20069641 149.97120667 15.14069641 149.97120667 21.26069641 C97.83120667 21.26069641 45.69120667 21.26069641 -8.02879333 21.26069641 C-8.02879333 0.0146829 -8.02879333 0.0146829 0 0 Z " fill="#FAFAFB" transform="translate(91.02879333496094,5.7393035888671875)"/>
<path d="M0 0 C2 2 2 2 2.25 4.875 C2.71616096 8.29874532 2.71616096 8.29874532 6.0625 10.25 C7.031875 10.8275 8.00125 11.405 9 12 C9 12.66 9 13.32 9 14 C9.66 14 10.32 14 11 14 C12.9775939 18.94398474 13.34413243 22.75198038 13 28 C11 31 11 31 8.875 31.6875 C8.25625 31.790625 7.6375 31.89375 7 32 C7.40992188 32.44730469 7.81984375 32.89460938 8.2421875 33.35546875 C12.27751466 37.88314443 14.67748601 41.15112644 15.375 47.3125 C14.76197321 53.34059675 12.50476655 57.96804898 7.9375 62 C5 64 5 64 2 64 C2.061875 64.928125 2.12375 65.85625 2.1875 66.8125 C2 70 2 70 0.9375 71.875 C-2.14071911 73.66235303 -4.52906068 73.43386742 -8 73 C-9.9375 71.3125 -9.9375 71.3125 -11 69 C-11.1875 66.25 -11.1875 66.25 -11 64 C-11.556875 63.773125 -12.11375 63.54625 -12.6875 63.3125 C-16.71969057 61.02395941 -19.45058599 57.82412102 -22 54 C-22.30078125 51.625 -22.30078125 51.625 -22.3125 49 C-22.32925781 48.13375 -22.34601563 47.2675 -22.36328125 46.375 C-21.9285785 43.53307234 -21.27415152 42.70428217 -19 41 C-17.515 40.505 -17.515 40.505 -16 40 C-16.78375 39.278125 -17.5675 38.55625 -18.375 37.8125 C-22.95748276 32.90269705 -23.34208393 28.88479091 -23.1875 22.36328125 C-22.77695129 17.18865684 -20.58368591 13.68323274 -17 10 C-13.75 8.6875 -13.75 8.6875 -11 8 C-11.061875 7.236875 -11.12375 6.47375 -11.1875 5.6875 C-11 3 -11 3 -10 1.1875 C-6.67642865 -0.78587049 -3.81941755 -0.30312838 0 0 Z M-10 23 C-9.42547254 26.93075644 -9.42547254 26.93075644 -7 30 C-4.78927023 30.24253813 -4.78927023 30.24253813 -2.375 30.125 C-1.55773437 30.10695313 -0.74046875 30.08890625 0.1015625 30.0703125 C0.72804688 30.04710937 1.35453125 30.02390625 2 30 C1.60404157 28.51515588 1.18249294 27.0371169 0.75 25.5625 C0.51796875 24.73878906 0.2859375 23.91507812 0.046875 23.06640625 C-0.80826864 20.84283158 -0.80826864 20.84283158 -2.9375 20.125 C-5.94949509 19.94245484 -7.58242163 21.32112613 -10 23 Z M-11 42 C-11 42.66 -11 43.32 -11 44 C-10.34 44 -9.68 44 -9 44 C-8.67 46.31 -8.34 48.62 -8 51 C-3.36498163 52.16009399 -3.36498163 52.16009399 1 50.875 C2.4693809 48.59743318 2.4693809 48.59743318 1 44 C-4.94 43.01 -4.94 43.01 -11 42 Z " fill="#F9F9FB" transform="translate(337,258)"/>
</svg>
