<?xml version="1.0" encoding="UTF-8"?>
<svg version="1.1" xmlns="http://www.w3.org/2000/svg" width="471" height="395">
<path d="M0 0 C1.14071457 0.00173721 1.14071457 0.00173721 2.30447388 0.00350952 C14.32590482 0.03958815 25.97408589 0.72054328 37.75 3.3125 C39.48830078 3.68955078 39.48830078 3.68955078 41.26171875 4.07421875 C44.1165983 4.75122281 46.930362 5.50264908 49.75 6.3125 C50.61753906 6.54839844 51.48507812 6.78429687 52.37890625 7.02734375 C58.09907114 8.64296284 63.34679119 10.85308995 68.75 13.3125 C69.55880615 13.67561279 70.3676123 14.03872559 71.20092773 14.4128418 C80.65468721 18.68123687 89.91476004 23.04946113 98.5625 28.8125 C99.19623535 29.23354004 99.8299707 29.65458008 100.48291016 30.08837891 C101.94895255 31.10269257 103.35709017 32.19988385 104.75 33.3125 C104.75 33.9725 104.75 34.6325 104.75 35.3125 C105.30945313 35.56386719 105.86890625 35.81523438 106.4453125 36.07421875 C110.97629837 38.5086637 114.78395603 42.06358662 118.75 45.3125 C119.73226562 46.08787109 119.73226562 46.08787109 120.734375 46.87890625 C122.11119892 47.97708723 123.43751905 49.13817494 124.75 50.3125 C124.75 50.9725 124.75 51.6325 124.75 52.3125 C125.74 52.6425 126.73 52.9725 127.75 53.3125 C127.75 53.9725 127.75 54.6325 127.75 55.3125 C128.41 55.3125 129.07 55.3125 129.75 55.3125 C131.49076551 57.42670675 133.13325515 59.54429809 134.75 61.75 C137.69045002 66.14722808 137.69045002 66.14722808 141.75 69.3125 C142.68026977 70.89740406 143.60250897 72.48746055 144.48828125 74.09765625 C145.95066026 76.66474263 147.52793806 79.13950625 149.125 81.625 C149.72957031 82.57375 150.33414062 83.5225 150.95703125 84.5 C152.07461702 86.25307571 153.19630428 88.00355179 154.32421875 89.75 C160.27669697 99.24896787 164.45787287 109.62213112 167.75 120.3125 C168.06710937 121.24964844 168.38421875 122.18679687 168.7109375 123.15234375 C173.01322781 136.23712894 175.05706481 149.57326786 175.75 163.3125 C176.48605469 163.33828125 177.22210938 163.3640625 177.98046875 163.390625 C182.3507541 163.64464423 185.89867063 163.9038619 189.875 165.8125 C192.62589963 169.48036617 193.13525866 172.77415299 192.75 177.3125 C190.63252991 182.2250306 187.63081727 185.8213866 184.01953125 189.734375 C182.52638957 191.40291833 182.52638957 191.40291833 181.75 194.3125 C180.08333333 195.97916667 178.41666667 197.64583333 176.75 199.3125 C176.193125 200.240625 175.63625 201.16875 175.0625 202.125 C174.629375 202.846875 174.19625 203.56875 173.75 204.3125 C173.09 204.3125 172.43 204.3125 171.75 204.3125 C171.47800781 204.88742188 171.20601563 205.46234375 170.92578125 206.0546875 C168.55654428 210.60425218 165.69919645 215.03013392 161.375 217.875 C157.60786249 218.50285625 154.34256467 218.61694313 150.75 217.3125 C148.29859864 215.31760961 146.61513276 212.84659962 144.75 210.3125 C143.16997496 208.43471132 141.58644925 206.55986434 140 204.6875 C137.72106495 201.98223356 135.95538089 199.84083491 134.671875 196.5390625 C134.36765625 195.80429688 134.0634375 195.06953125 133.75 194.3125 C132.76 193.9825 131.77 193.6525 130.75 193.3125 C130.75 192.3225 130.75 191.3325 130.75 190.3125 C130.09 190.3125 129.43 190.3125 128.75 190.3125 C127.3125 188.37890625 127.3125 188.37890625 125.75 185.875 C123.7970084 182.50243349 123.7970084 182.50243349 120.75 180.3125 C120.12182741 170.19194162 120.12182741 170.19194162 122.625 166.6875 C126.00353602 164.50138846 127.86375322 164.19857376 131.875 164.25 C132.78507812 164.25902344 133.69515625 164.26804688 134.6328125 164.27734375 C135.68082031 164.29474609 135.68082031 164.29474609 136.75 164.3125 C136.316875 162.7346875 136.316875 162.7346875 135.875 161.125 C134.97646361 157.59239805 134.45302712 154.1149715 134 150.5 C129.6623933 121.67159855 113.10457135 92.43313185 90.6875 73.8125 C89.718125 72.9875 88.74875 72.1625 87.75 71.3125 C87.75 70.6525 87.75 69.9925 87.75 69.3125 C86.43 68.9825 85.11 68.6525 83.75 68.3125 C83.75 67.6525 83.75 66.9925 83.75 66.3125 C83.028125 66.065 82.30625 65.8175 81.5625 65.5625 C78.75 64.3125 78.75 64.3125 76.55078125 62.48046875 C73.25430671 59.92880435 69.86370715 58.18463904 66.125 56.375 C65.41496826 56.02727539 64.70493652 55.67955078 63.97338867 55.32128906 C61.90222473 54.31137686 59.82642789 53.31153117 57.75 52.3125 C56.74839844 51.82136719 55.74679687 51.33023438 54.71484375 50.82421875 C37.54558909 42.6568119 19.80733884 39.72753714 1 39.875 C0.21240295 39.87704437 -0.57519409 39.87908875 -1.38665771 39.88119507 C-13.43850618 39.93210287 -24.64482048 40.85887984 -36.25 44.3125 C-37.18070313 44.539375 -38.11140625 44.76625 -39.0703125 45 C-54.23058541 48.89974866 -70.68383402 57.95754329 -82.48046875 68.0625 C-84.25 69.3125 -84.25 69.3125 -87.25 69.3125 C-87.48203125 69.88484375 -87.7140625 70.4571875 -87.953125 71.046875 C-89.56672742 73.86581899 -91.51857497 75.4720874 -94 77.5625 C-97.98688117 81.03661755 -101.15303493 84.49347942 -104.09375 88.87890625 C-104.4753125 89.35199219 -104.856875 89.82507813 -105.25 90.3125 C-105.91 90.3125 -106.57 90.3125 -107.25 90.3125 C-107.51296875 90.8796875 -107.7759375 91.446875 -108.046875 92.03125 C-109.34021364 94.48355444 -110.85123354 96.58443722 -112.5 98.8125 C-116.42891949 104.35056115 -119.33400254 110.19906833 -122.25 116.3125 C-122.5601001 116.89717041 -122.8702002 117.48184082 -123.18969727 118.08422852 C-139.8959938 149.85879155 -138.77550616 186.88427605 -128.58764648 220.33520508 C-126.68523784 226.31378414 -124.45009477 231.896955 -121.25 237.3125 C-117.25 244.11380293 -117.25 244.11380293 -117.25 247.3125 C-116.59 247.3125 -115.93 247.3125 -115.25 247.3125 C-112.25 251.69711538 -112.25 251.69711538 -112.25 254.3125 C-111.59 254.3125 -110.93 254.3125 -110.25 254.3125 C-110.25 255.3025 -110.25 256.2925 -110.25 257.3125 C-109.59 257.3125 -108.93 257.3125 -108.25 257.3125 C-106.98828125 258.78125 -106.98828125 258.78125 -105.5625 260.8125 C-89.07747855 283.36052213 -62.97569575 299.63558874 -36.25 307.3125 C-35.34121094 307.58835937 -34.43242187 307.86421875 -33.49609375 308.1484375 C-24.75055506 310.50076615 -15.93795023 311.00815318 -6.91918945 311.49072266 C-5.87335693 311.55565918 -4.82752441 311.6205957 -3.75 311.6875 C-2.8115625 311.73648437 -1.873125 311.78546875 -0.90625 311.8359375 C2.38642009 312.42668125 4.21620253 313.09704567 6.75 315.3125 C7.27187259 317.97956433 7.45301164 320.01364005 7.4140625 322.68359375 C7.41884613 323.4023317 7.42362976 324.12106964 7.42855835 324.86158752 C7.43195797 326.38048492 7.42275064 327.89945542 7.40185547 329.41821289 C7.37512138 331.7394607 7.40157184 334.05585733 7.43359375 336.37695312 C7.43028889 337.85417732 7.42388105 339.33139849 7.4140625 340.80859375 C7.42418365 341.50037216 7.43430481 342.19215057 7.44473267 342.90489197 C7.35436644 346.63574675 7.00284145 348.05643046 4.34057617 350.75268555 C-3.42573913 355.42886955 -15.6574291 351.57326988 -24.25 350.3125 C-24.92981934 350.21598145 -25.60963867 350.11946289 -26.31005859 350.02001953 C-34.98304142 348.7591347 -43.34673256 346.87191732 -51.75 344.375 C-52.56243164 344.13426758 -53.37486328 343.89353516 -54.21191406 343.64550781 C-59.76201857 341.93200691 -64.98577128 339.75749413 -70.25 337.3125 C-71.12011719 336.92964844 -71.99023438 336.54679687 -72.88671875 336.15234375 C-85.74528648 330.49457395 -97.32787304 323.02784805 -108.625 314.6875 C-109.68460937 313.91148437 -110.74421875 313.13546875 -111.8359375 312.3359375 C-113.03089844 311.33433594 -113.03089844 311.33433594 -114.25 310.3125 C-114.25 309.6525 -114.25 308.9925 -114.25 308.3125 C-115.054375 307.9721875 -115.054375 307.9721875 -115.875 307.625 C-121.06709138 304.75568634 -124.68802374 300.97991717 -128.25 296.3125 C-128.8275 295.755625 -129.405 295.19875 -130 294.625 C-131.25 293.3125 -131.25 293.3125 -131.25 291.3125 C-132.24 290.9825 -133.23 290.6525 -134.25 290.3125 C-136.07841105 288.22206469 -137.76808198 286.14751415 -139.4375 283.9375 C-139.90091797 283.34710938 -140.36433594 282.75671875 -140.84179688 282.1484375 C-144.25 277.69117038 -144.25 277.69117038 -144.25 274.3125 C-145.24 273.9825 -146.23 273.6525 -147.25 273.3125 C-148.42578125 271.59765625 -148.42578125 271.59765625 -149.5625 269.375 C-151.31916315 266.02997676 -153.1681227 262.81794211 -155.1875 259.625 C-162.74888676 247.10692012 -167.89580077 232.52240808 -171.25 218.3125 C-171.50595947 217.34473633 -171.50595947 217.34473633 -171.76708984 216.35742188 C-179.76609674 185.42699381 -177.40313298 150.00996144 -167.16064453 120 C-166.47460922 117.97536818 -165.83670678 115.9343321 -165.22265625 113.88671875 C-161.41901823 101.82281961 -154.68954775 91.1252343 -148.25 80.3125 C-147.77175781 79.49620117 -147.29351562 78.67990234 -146.80078125 77.83886719 C-145.67485295 75.96094425 -144.47051061 74.13037319 -143.25 72.3125 C-142.59 72.3125 -141.93 72.3125 -141.25 72.3125 C-140.99863281 71.75304687 -140.74726563 71.19359375 -140.48828125 70.6171875 C-138.0538363 66.08620163 -134.49891338 62.27854397 -131.25 58.3125 C-130.73308594 57.65765625 -130.21617187 57.0028125 -129.68359375 56.328125 C-128.58541277 54.95130108 -127.42432506 53.62498095 -126.25 52.3125 C-125.59 52.3125 -124.93 52.3125 -124.25 52.3125 C-123.92 51.3225 -123.59 50.3325 -123.25 49.3125 C-122.59 49.3125 -121.93 49.3125 -121.25 49.3125 C-120.92 48.3225 -120.59 47.3325 -120.25 46.3125 C-118.49710944 44.68340909 -116.67426823 43.12845653 -114.8125 41.625 C-113.82378906 40.81675781 -112.83507812 40.00851563 -111.81640625 39.17578125 C-109.25 37.3125 -109.25 37.3125 -107.25 37.3125 C-107.25 36.6525 -107.25 35.9925 -107.25 35.3125 C-106.26 35.3125 -105.27 35.3125 -104.25 35.3125 C-103.92 34.3225 -103.59 33.3325 -103.25 32.3125 C-100.88309043 30.609516 -98.54988994 29.06946304 -96.0625 27.5625 C-95.33925537 27.1193042 -94.61601074 26.6761084 -93.87084961 26.21948242 C-87.17760826 22.17276409 -80.36400125 18.57566144 -73.25 15.3125 C-72.62609375 15.0227832 -72.0021875 14.73306641 -71.359375 14.43457031 C-62.69085641 10.46005454 -53.90150306 7.45681355 -44.6875 5 C-43.7910376 4.75757568 -42.8945752 4.51515137 -41.97094727 4.26538086 C-28.11488364 0.75077499 -14.22946836 -0.06770456 0 0 Z " fill="#F9F9FB" transform="translate(224.25,0.6875)"/>
<path d="M0 0 C1.14210938 0.4434375 2.28421875 0.886875 3.4609375 1.34375 C14.08057653 5.67453555 23.0773179 11.43866751 32.1875 18.3125 C32.76508057 18.74530273 33.34266113 19.17810547 33.93774414 19.62402344 C35.33140369 20.69994981 36.67144582 21.84464366 38 23 C38 23.66 38 24.32 38 25 C38.56460938 25.23074219 39.12921875 25.46148437 39.7109375 25.69921875 C42.59494739 27.33808444 44.41285737 29.34511014 46.625 31.8125 C47.40101563 32.66457031 48.17703125 33.51664063 48.9765625 34.39453125 C50.91834648 36.89485926 52.00328746 39.01522106 53 42 C53.66 42 54.32 42 55 42 C55.32613281 42.59167969 55.65226563 43.18335938 55.98828125 43.79296875 C58.66958214 48.6584621 58.66958214 48.6584621 61.5 53.4375 C70.6595087 69.08499404 74.88997644 85.12498346 75.9375 103.125 C76.00735107 104.13336914 76.07720215 105.14173828 76.14916992 106.18066406 C76.19146729 107.13424805 76.23376465 108.08783203 76.27734375 109.0703125 C76.32109131 109.92383301 76.36483887 110.77735352 76.40991211 111.65673828 C75.83883467 114.92130127 74.56255624 115.94245025 72 118 C69.23010254 118.50793457 69.23010254 118.50793457 66.00976562 118.51757812 C64.80171265 118.53018677 63.59365967 118.54279541 62.34899902 118.55578613 C61.04789185 118.54768921 59.74678467 118.53959229 58.40625 118.53125 C57.05391155 118.53394584 55.70157499 118.53782903 54.34924316 118.54284668 C51.51795966 118.54873759 48.68718167 118.54019293 45.85595703 118.52148438 C42.23073337 118.49869382 38.6066942 118.51181927 34.98151398 118.53577423 C32.18987132 118.55024396 29.39850848 118.54562111 26.6068573 118.53526306 C24.62156402 118.53130545 22.63625976 118.54343166 20.65100098 118.55578613 C18.83892151 118.53687317 18.83892151 118.53687317 16.99023438 118.51757812 C15.92752319 118.51439575 14.86481201 118.51121338 13.76989746 118.50793457 C10.3136087 117.87413185 9.14067994 116.73438353 7 114 C6.27734375 111.3359375 6.27734375 111.3359375 5.9375 108.375 C3.8766744 93.55151758 -2.10722111 80.91830678 -13.94921875 71.30859375 C-18.3085448 68.52692856 -23.15813979 66.76067644 -28 65 C-28.94746094 64.63261719 -29.89492187 64.26523438 -30.87109375 63.88671875 C-42.38760221 60.62298914 -54.43560784 62.8598348 -65 68 C-77.01951913 75.47444971 -85.82174276 84.79817526 -89.6875 98.625 C-92.82714267 112.18558431 -90.602829 124.74262063 -84 137 C-83.443125 137.7425 -82.88625 138.485 -82.3125 139.25 C-81 141 -81 141 -81 143 C-80.34 143 -79.68 143 -79 143 C-77.9790625 144.299375 -77.9790625 144.299375 -76.9375 145.625 C-69.90809576 154.37040586 -60.12111443 157.75233357 -49.375 159 C-48.12460938 159.12375 -46.87421875 159.2475 -45.5859375 159.375 C-41.87779446 160.02129944 -39.30749113 161.25927643 -36 163 C-35.93052158 171.29271909 -35.87719999 179.58531679 -35.84456348 187.87825489 C-35.8289004 191.72891831 -35.80765077 195.57938275 -35.77368164 199.42993164 C-35.74111054 203.14521429 -35.72315183 206.86030544 -35.71536827 210.57571983 C-35.70982066 211.99393415 -35.69898756 213.41213787 -35.68280983 214.83027077 C-35.6610681 216.81488467 -35.65977487 218.79969086 -35.65942383 220.78442383 C-35.64943108 222.47986076 -35.64943108 222.47986076 -35.63923645 224.20954895 C-36 227 -36 227 -37.3144989 228.8613739 C-40.1168549 230.75448194 -43.17294329 230.48428505 -46.4375 230.4375 C-47.55608398 230.42614014 -47.55608398 230.42614014 -48.69726562 230.41455078 C-69.57293037 229.82315995 -89.42046599 222.97676133 -107 212 C-107 211.34 -107 210.68 -107 210 C-107.57105469 209.90074219 -108.14210937 209.80148437 -108.73046875 209.69921875 C-113.14085964 208.34042362 -116.48116559 204.89300144 -120 202 C-121.05960938 201.14535156 -121.05960938 201.14535156 -122.140625 200.2734375 C-123.80434994 198.90052627 -125.40851662 197.45603798 -127 196 C-127 195.34 -127 194.68 -127 194 C-127.99 193.67 -128.98 193.34 -130 193 C-133 189.55555556 -133 189.55555556 -133 187 C-133.99 186.67 -134.98 186.34 -136 186 C-157.36450617 162.53871205 -162.22700057 129.33758897 -161 99 C-160.60256315 94.58754772 -159.93418996 90.32860688 -159 86 C-158.78214844 84.97648437 -158.56429687 83.95296875 -158.33984375 82.8984375 C-155.19117216 69.30581152 -149.07181943 56.96769442 -142 45 C-141.34 45 -140.68 45 -140 45 C-139.90589844 44.43796875 -139.81179687 43.8759375 -139.71484375 43.296875 C-138.8240591 40.43468169 -137.41128118 38.60229539 -135.5625 36.25 C-134.94503906 35.45078125 -134.32757813 34.6515625 -133.69140625 33.828125 C-133.13324219 33.22484375 -132.57507813 32.6215625 -132 32 C-131.34 32 -130.68 32 -130 32 C-129.5978125 31.1028125 -129.5978125 31.1028125 -129.1875 30.1875 C-128.00082594 28.00152146 -126.90400887 26.58667406 -125 25 C-124.34 25 -123.68 25 -123 25 C-122.505 23.515 -122.505 23.515 -122 22 C-119.7227742 20.12826731 -117.45862778 18.39349216 -115.0625 16.6875 C-114.37591309 16.19475586 -113.68932617 15.70201172 -112.98193359 15.19433594 C-80.40067341 -7.98510017 -37.73669508 -14.73622921 0 0 Z M-79 13 C-79.79664063 13.28617188 -80.59328125 13.57234375 -81.4140625 13.8671875 C-90.42538954 17.24294778 -106.56854144 24.13708288 -111 33 C-109.9171875 34.0828125 -109.9171875 34.0828125 -108.8125 35.1875 C-107.884375 36.115625 -106.95625 37.04375 -106 38 C-104.7625 39.2065625 -104.7625 39.2065625 -103.5 40.4375 C-101 43 -101 43 -98.6875 45.875 C-96.09394676 49.06580683 -93.06192579 51.59696083 -89.9375 54.25390625 C-87.30371163 56.62750182 -85.17890088 59.20828325 -83 62 C-82.401875 61.690625 -81.80375 61.38125 -81.1875 61.0625 C-79 60 -79 60 -76 59 C-76 58.34 -76 57.68 -76 57 C-75.21625 56.7525 -74.4325 56.505 -73.625 56.25 C-70.00919818 55.00317179 -66.54691836 53.54578774 -63.05078125 52 C-58.49986714 50.50827911 -53.7119101 49.85671093 -49 49 C-49 35.14 -49 21.28 -49 7 C-59.25427085 7 -69.42619635 9.33419414 -79 13 Z M35 43 C33.65080468 44.65385233 32.31866272 46.321702 31 48 C30.01 48.66 29.02 49.32 28 50 C28 50.66 28 51.32 28 52 C27.01 52.33 26.02 52.66 25 53 C23.64613064 54.65002828 22.31321858 56.3174387 21 58 C20.01 58.66 19.02 59.32 18 60 C18 60.66 18 61.32 18 62 C17.01 62.33 16.02 62.66 15 63 C12.7914234 64.87508162 12.7914234 64.87508162 11 67 C11 67.66 11 68.32 11 69 C10.01 69.33 9.02 69.66 8 70 C7.67 70.99 7.34 71.98 7 73 C7.44214844 73.39316406 7.88429688 73.78632813 8.33984375 74.19140625 C10.27161615 76.29590183 11.3283144 78.36466794 12.5625 80.9375 C12.97628906 81.79214844 13.39007813 82.64679688 13.81640625 83.52734375 C14.20699219 84.34332031 14.59757813 85.15929687 15 86 C15.34804688 86.61617187 15.69609375 87.23234375 16.0546875 87.8671875 C17.39368308 90.88822712 17.92188786 93.95089939 18.5625 97.1875 C19.07529862 101.41776949 19.07529862 101.41776949 21 105 C24.02977804 105.08871273 27.03667022 105.1151935 30.06640625 105.09765625 C30.97502914 105.0962413 31.88365204 105.09482635 32.81980896 105.09336853 C35.73407221 105.08775193 38.64825981 105.07519665 41.5625 105.0625 C43.53320202 105.05748714 45.50390524 105.05292386 47.47460938 105.04882812 C52.31643559 105.03777711 57.15820495 105.02050138 62 105 C60.61825779 82.44776655 52.70149517 59.7786426 37 43 C36.34 43 35.68 43 35 43 Z M-147 118 C-145.78946549 138.07771575 -139.70940864 155.5336441 -128 172 C-127.25363281 173.05767578 -127.25363281 173.05767578 -126.4921875 174.13671875 C-124.34361825 177.14631488 -124.34361825 177.14631488 -122 180 C-121.34 180 -120.68 180 -120 180 C-118.77067383 178.53809861 -117.54570309 177.07202617 -116.35546875 175.578125 C-114.4865213 173.40217466 -112.23641278 171.78913022 -110 170 C-108.31267723 168.01739574 -106.64633943 166.0167658 -105 164 C-101.23783374 160.03982499 -97.17989359 156.50532863 -93 153 C-93.5724986 148.41133694 -95.58597513 144.98260196 -97.875 141.0625 C-101.48523832 134.65334876 -103.29697615 128.91724055 -104.52734375 121.6328125 C-104.72640834 119.08324692 -104.72640834 119.08324692 -106 118 C-109.02977804 117.91128727 -112.03667022 117.8848065 -115.06640625 117.90234375 C-115.97502914 117.9037587 -116.88365204 117.90517365 -117.81980896 117.90663147 C-120.73407221 117.91224807 -123.64825981 117.92480335 -126.5625 117.9375 C-128.53320202 117.94251286 -130.50390524 117.94707614 -132.47460938 117.95117188 C-137.31643559 117.96222289 -142.15820495 117.97949862 -147 118 Z " fill="#FAFAFB" transform="translate(267,65)"/>
<path d="M0 0 C0.8098938 -0.00524185 1.6197876 -0.0104837 2.45422363 -0.0158844 C4.16559706 -0.02230442 5.87701462 -0.02096782 7.58837891 -0.01245117 C10.20945589 -0.00393644 12.82835692 -0.03270747 15.44921875 -0.06445312 C17.11197851 -0.0660651 18.77474214 -0.06548767 20.4375 -0.0625 C21.22193481 -0.07373398 22.00636963 -0.08496796 22.8145752 -0.09654236 C28.21878346 -0.02717649 28.21878346 -0.02717649 30.71801758 2.27612305 C32.0691902 5.18910487 32.0104478 7.48819463 31.90625 10.68359375 C31.86564453 12.30007812 31.86564453 12.30007812 31.82421875 13.94921875 C31.78941406 14.7690625 31.75460937 15.58890625 31.71875 16.43359375 C32.523125 16.51609375 33.3275 16.59859375 34.15625 16.68359375 C37.96974712 17.48643525 41.07103375 18.82626249 44.5703125 20.49609375 C46.61224603 21.38711929 48.54612745 21.96171193 50.71875 22.43359375 C51.6778125 20.97953125 51.6778125 20.97953125 52.65625 19.49609375 C55.49906196 16.16747538 57.89826763 15.32237263 62.21118164 14.98120117 C67.60109109 15.9535994 70.94363258 20.66803354 74.46875 24.55859375 C75.29246094 25.42742187 76.11617187 26.29625 76.96484375 27.19140625 C78.54623093 28.86192153 80.11567625 30.54384807 81.67114258 32.23852539 C83.32198094 34.00825088 85.00458656 35.66894429 86.77734375 37.3125 C88.71875 39.43359375 88.71875 39.43359375 89.03125 43.24609375 C88.8765625 44.82390625 88.8765625 44.82390625 88.71875 46.43359375 C87.72875 46.76359375 86.73875 47.09359375 85.71875 47.43359375 C84.59358915 49.26643818 84.59358915 49.26643818 83.71875 51.43359375 C83.32171875 52.01625 82.9246875 52.59890625 82.515625 53.19921875 C81.32787107 56.5295876 82.56297322 58.23270161 84.03125 61.37109375 C85.74381765 65.08243898 87.08502531 68.38521135 87.71875 72.43359375 C88.96591797 72.39878906 88.96591797 72.39878906 90.23828125 72.36328125 C91.32496094 72.34523438 92.41164063 72.3271875 93.53125 72.30859375 C94.61019531 72.28539062 95.68914062 72.2621875 96.80078125 72.23828125 C99.71875 72.43359375 99.71875 72.43359375 102.71875 74.43359375 C103.91633537 78.02634986 103.88092824 81.31829192 103.88671875 85.05859375 C103.89004715 85.80189941 103.89337555 86.54520508 103.89680481 87.31103516 C103.90186294 88.88117861 103.90421348 90.45133278 103.90405273 92.02148438 C103.90624186 94.42465858 103.92441607 96.82737558 103.94335938 99.23046875 C103.94629299 100.75650885 103.948278 102.28255112 103.94921875 103.80859375 C103.95640427 104.52740723 103.96358978 105.2462207 103.97099304 105.98681641 C103.95398809 109.69439651 103.83185708 111.26393314 101.71875 114.43359375 C98.4609375 114.7265625 98.4609375 114.7265625 94.59375 114.62109375 C92.67175781 114.58048828 92.67175781 114.58048828 90.7109375 114.5390625 C89.72351563 114.50425781 88.73609375 114.46945312 87.71875 114.43359375 C87.57179688 115.3771875 87.57179688 115.3771875 87.421875 116.33984375 C86.48066816 121.72744153 85.22364456 125.9839347 82.328125 130.64453125 C81.49646465 132.48408348 81.49646465 132.48408348 82.4453125 134.515625 C83.75334048 136.66569179 83.75334048 136.66569179 86.34375 138.74609375 C88.71875 141.43359375 88.71875 141.43359375 89.17993164 144.73071289 C88.61565132 149.26138503 86.8626563 151.3080475 83.71484375 154.3671875 C83.19874039 154.88998795 82.68263702 155.41278839 82.15089417 155.95143127 C81.05897348 157.04809886 79.9582282 158.13604224 78.84936523 159.21557617 C77.1607019 160.86674071 75.51266762 162.55194953 73.86523438 164.24414062 C72.79650792 165.30824113 71.72561187 166.37016796 70.65234375 167.4296875 C69.91908119 168.18420448 69.91908119 168.18420448 69.17100525 168.95396423 C66.41425285 171.58398336 64.86010853 172.41679413 61.03540039 172.87133789 C57.71875 172.43359375 57.71875 172.43359375 54.71875 170.43359375 C54.71875 169.77359375 54.71875 169.11359375 54.71875 168.43359375 C53.72875 168.10359375 52.73875 167.77359375 51.71875 167.43359375 C51.71875 166.77359375 51.71875 166.11359375 51.71875 165.43359375 C47.94014822 165.81145393 45.03964119 166.67096689 41.71875 168.43359375 C38.39785881 170.19622061 35.49735178 171.05573357 31.71875 171.43359375 C31.73035156 172.27664063 31.74195313 173.1196875 31.75390625 173.98828125 C31.76292969 175.08398438 31.77195312 176.1796875 31.78125 177.30859375 C31.79285156 178.39914062 31.80445313 179.4896875 31.81640625 180.61328125 C31.71875 183.43359375 31.71875 183.43359375 30.71875 185.43359375 C30.05875 185.43359375 29.39875 185.43359375 28.71875 185.43359375 C28.71875 186.09359375 28.71875 186.75359375 28.71875 187.43359375 C23.50434487 187.5077214 18.29024607 187.56218479 13.07543945 187.59838867 C11.30129657 187.61348016 9.52719102 187.63395566 7.75317383 187.65991211 C5.20384513 187.69628016 2.65500941 187.71331613 0.10546875 187.7265625 C-0.68837723 187.74204636 -1.48222321 187.75753021 -2.30012512 187.77348328 C-7.77190048 187.77515755 -7.77190048 187.77515755 -10.2734375 186.09765625 C-11.81718402 183.54867943 -11.81029012 181.19344761 -11.96875 178.24609375 C-12.03449219 177.15941406 -12.10023438 176.07273437 -12.16796875 174.953125 C-12.22404297 173.70595703 -12.22404297 173.70595703 -12.28125 172.43359375 C-14.85683526 171.20569845 -17.43945544 170.00135733 -20.03125 168.80859375 C-20.76085937 168.45796875 -21.49046875 168.10734375 -22.2421875 167.74609375 C-26.30685307 165.72199034 -26.30685307 165.72199034 -30.609375 166.16015625 C-31.16109375 166.58039063 -31.7128125 167.000625 -32.28125 167.43359375 C-33.27125 167.76359375 -34.26125 168.09359375 -35.28125 168.43359375 C-36.49007096 170.43375841 -36.49007096 170.43375841 -37.28125 172.43359375 C-41.04515738 172.72880217 -43.49261783 172.90677305 -46.78125 170.93359375 C-49.52568374 168.18916001 -52.0704406 165.32639267 -54.59375 162.37890625 C-57.25608601 159.30982446 -60.15084454 156.49636812 -63.109375 153.71484375 C-63.74359375 153.10640625 -64.3778125 152.49796875 -65.03125 151.87109375 C-65.62421875 151.31292969 -66.2171875 150.75476563 -66.828125 150.1796875 C-68.47944111 148.19544475 -69.0416999 146.9987761 -69.28125 144.43359375 C-67.44410268 140.69368671 -65.64044274 137.0293336 -62.28125 134.43359375 C-61.62125 134.43359375 -60.96125 134.43359375 -60.28125 134.43359375 C-60.61898438 133.81613281 -60.95671875 133.19867188 -61.3046875 132.5625 C-64.3081728 126.85935018 -66.15530577 121.77982486 -67.28125 115.43359375 C-68.02890625 115.44519531 -68.7765625 115.45679688 -69.546875 115.46875 C-70.53171875 115.47777344 -71.5165625 115.48679687 -72.53125 115.49609375 C-73.50578125 115.50769531 -74.4803125 115.51929688 -75.484375 115.53125 C-77.97908594 115.44414417 -79.96727901 115.36236651 -82.28125 114.43359375 C-83.49382566 110.79586676 -83.48156674 107.41557599 -83.51953125 103.625 C-83.527603 102.86186996 -83.53567474 102.09873993 -83.54399109 101.31248474 C-83.55780867 99.69947569 -83.56854121 98.08643768 -83.57641602 96.47338867 C-83.59366396 94.0083906 -83.63757197 91.54472232 -83.68164062 89.08007812 C-83.69176521 87.51172859 -83.70028205 85.94336769 -83.70703125 84.375 C-83.72453934 83.63947403 -83.74204742 82.90394806 -83.76008606 82.14613342 C-83.74541197 78.68150774 -83.5366392 76.77704117 -81.44311523 73.96166992 C-78.51937908 71.89507878 -76.57205961 72.02964551 -73.03125 72.18359375 C-71.95359375 72.2196875 -70.8759375 72.25578125 -69.765625 72.29296875 C-68.94578125 72.339375 -68.1259375 72.38578125 -67.28125 72.43359375 C-67.17167969 71.86511719 -67.06210938 71.29664063 -66.94921875 70.7109375 C-66.15617135 66.84886112 -65.32563056 63.26761932 -63.65625 59.68359375 C-62.34264287 56.57870416 -61.98035634 54.74342406 -62.28125 51.43359375 C-63.76625 50.93859375 -63.76625 50.93859375 -65.28125 50.43359375 C-68.33307203 46.22702825 -68.33307203 46.22702825 -69.28125 43.43359375 C-68.53125 39.99609375 -68.53125 39.99609375 -67.28125 37.43359375 C-66.62125 37.43359375 -65.96125 37.43359375 -65.28125 37.43359375 C-65.075 36.89734375 -64.86875 36.36109375 -64.65625 35.80859375 C-62.74874574 32.51381366 -60.23305616 29.83995747 -57.28125 27.43359375 C-56.62125 27.43359375 -55.96125 27.43359375 -55.28125 27.43359375 C-54.89453125 26.55767578 -54.89453125 26.55767578 -54.5 25.6640625 C-53.18426636 23.25610126 -51.73966408 21.65886682 -49.78125 19.74609375 C-49.1728125 19.14410156 -48.564375 18.54210937 -47.9375 17.921875 C-45.75530909 15.96099119 -44.52351777 15.46739855 -41.59375 15.05859375 C-37.19342201 15.55674409 -34.52018367 17.48910859 -31.28125 20.43359375 C-30.78625 21.42359375 -30.78625 21.42359375 -30.28125 22.43359375 C-27.75951902 21.43211919 -25.24582941 20.4186396 -22.74609375 19.36328125 C-21.91207031 19.01523438 -21.07804687 18.6671875 -20.21875 18.30859375 C-19.38214844 17.95539063 -18.54554688 17.6021875 -17.68359375 17.23828125 C-15.28125 16.43359375 -15.28125 16.43359375 -11.28125 16.43359375 C-11.33345703 15.07814453 -11.33345703 15.07814453 -11.38671875 13.6953125 C-11.41378906 12.51582031 -11.44085938 11.33632812 -11.46875 10.12109375 C-11.50355469 8.94933594 -11.53835938 7.77757812 -11.57421875 6.5703125 C-11.28125 3.43359375 -11.28125 3.43359375 -10.28051758 1.76464844 C-7.1017323 -0.35169511 -3.69462718 -0.01382663 0 0 Z M2.71875 14.43359375 C2.05875 18.39359375 1.39875 22.35359375 0.71875 26.43359375 C-0.28542969 26.71332031 -1.28960937 26.99304688 -2.32421875 27.28125 C-10.72903693 29.71686033 -17.86548061 32.49569918 -25.31640625 37.17578125 C-29.10874603 38.78465267 -31.33173517 38.45598589 -35.28125 37.43359375 C-38.09375 34.87109375 -38.09375 34.87109375 -40.28125 32.43359375 C-40.94125 32.43359375 -41.60125 32.43359375 -42.28125 32.43359375 C-42.28125 33.09359375 -42.28125 33.75359375 -42.28125 34.43359375 C-43.27125 34.76359375 -44.26125 35.09359375 -45.28125 35.43359375 C-45.28125 36.09359375 -45.28125 36.75359375 -45.28125 37.43359375 C-47.26125 38.42359375 -47.26125 38.42359375 -49.28125 39.43359375 C-49.28125 40.09359375 -49.28125 40.75359375 -49.28125 41.43359375 C-49.94125 41.43359375 -50.60125 41.43359375 -51.28125 41.43359375 C-51.50179055 43.65597213 -51.50179055 43.65597213 -49.40625 45.55859375 C-47.50362838 47.6541343 -47.50362838 47.6541343 -45.28125 47.43359375 C-44.87076071 54.13825209 -46.31992074 58.71341686 -50.25 64.1640625 C-52.51947327 67.81704159 -53.53953981 71.04604879 -54.53125 75.18359375 C-54.70398438 75.85519531 -54.87671875 76.52679688 -55.0546875 77.21875 C-55.97451009 80.78237174 -55.97451009 80.78237174 -56.28125 84.43359375 C-62.71625 85.42359375 -62.71625 85.42359375 -69.28125 86.43359375 C-69.28125 91.38359375 -69.28125 96.33359375 -69.28125 101.43359375 C-66.48177083 101.62890625 -63.68229167 101.82421875 -60.8828125 102.01953125 C-58.28125 102.43359375 -58.28125 102.43359375 -56.28125 104.43359375 C-55.7890625 106.28125 -55.7890625 106.28125 -55.40625 108.49609375 C-54.13843152 114.70540947 -51.47434562 120.04740252 -48.65625 125.68359375 C-44.57238924 133.85131527 -44.57238924 133.85131527 -46.28125 139.43359375 C-47.80355022 141.63191545 -49.45240885 143.46407251 -51.28125 145.43359375 C-49.85314185 146.94253821 -48.41343981 148.4405172 -46.96875 149.93359375 C-46.16824219 150.76890625 -45.36773437 151.60421875 -44.54296875 152.46484375 C-42.40387518 154.76187658 -42.40387518 154.76187658 -39.28125 154.43359375 C-38.58 153.60859375 -37.87875 152.78359375 -37.15625 151.93359375 C-33.54910823 148.79694873 -31.66850802 148.99549582 -27.07421875 149.2578125 C-26.48253906 149.31582031 -25.89085937 149.37382812 -25.28125 149.43359375 C-25.28125 150.09359375 -25.28125 150.75359375 -25.28125 151.43359375 C-23.96125 151.43359375 -22.64125 151.43359375 -21.28125 151.43359375 C-21.28125 152.09359375 -21.28125 152.75359375 -21.28125 153.43359375 C-14.67814117 156.31695127 -8.32708749 158.89632012 -1.28125 160.43359375 C-0.29125 160.76359375 0.69875 161.09359375 1.71875 161.43359375 C2.21375 167.86859375 2.21375 167.86859375 2.71875 174.43359375 C7.66875 174.43359375 12.61875 174.43359375 17.71875 174.43359375 C17.96625 172.32984375 18.21375 170.22609375 18.46875 168.05859375 C19.19813144 161.85885148 19.19813144 161.85885148 21.296875 160.14453125 C23.3331721 159.54677952 25.39729986 159.04502433 27.46484375 158.56640625 C32.71302586 157.32453496 37.12653891 154.78826879 41.80664062 152.1796875 C46.29655407 149.79728445 49.51082428 148.94958578 54.71875 149.43359375 C57.09375 150.24609375 57.09375 150.24609375 58.71875 151.43359375 C59.04875 152.42359375 59.37875 153.41359375 59.71875 154.43359375 C63.59386727 153.88374603 65.31451506 152.15804044 67.96875 149.37109375 C68.67515625 148.63761719 69.3815625 147.90414062 70.109375 147.1484375 C70.64046875 146.58253906 71.1715625 146.01664063 71.71875 145.43359375 C71.05166016 144.7065625 71.05166016 144.7065625 70.37109375 143.96484375 C67.39735399 140.44241852 65.78173427 138.37835787 65.46875 133.68359375 C66.48452568 128.98906291 68.92369873 124.88706922 71.1640625 120.6796875 C73.27274989 116.27687538 74.52461165 111.76195622 75.76171875 107.05078125 C76.71875 104.43359375 76.71875 104.43359375 79.71875 102.43359375 C83.04473207 101.87839044 86.35182009 101.69595192 89.71875 101.43359375 C89.71875 96.48359375 89.71875 91.53359375 89.71875 86.43359375 C87.3365625 86.24796875 87.3365625 86.24796875 84.90625 86.05859375 C81.22532469 85.7717684 79.88115582 85.5418643 76.71875 83.43359375 C75.796875 80.921875 75.796875 80.921875 74.96875 77.74609375 C73.25532974 71.70896455 70.94466052 66.33018009 68.00488281 60.81176758 C65.60418798 56.05946519 65.42180425 52.62443394 65.71875 47.43359375 C66.70875 47.10359375 67.69875 46.77359375 68.71875 46.43359375 C69.70875 45.11359375 70.69875 43.79359375 71.71875 42.43359375 C68.41875 39.13359375 65.11875 35.83359375 61.71875 32.43359375 C60.543125 33.44421875 59.3675 34.45484375 58.15625 35.49609375 C55.29890007 37.95241211 54.19085372 38.44894672 50.35546875 38.32421875 C46.50845942 37.38209401 43.56367829 36.01858381 40.09375 34.12109375 C34.28580174 31.03293438 28.54638754 28.95821124 22.16796875 27.2578125 C19.71875 26.43359375 19.71875 26.43359375 18.71875 24.43359375 C18.27721556 21.10845783 18.01866469 17.77550027 17.71875 14.43359375 C12.76875 14.43359375 7.81875 14.43359375 2.71875 14.43359375 Z " fill="#FAFAFB" transform="translate(320.28125,207.56640625)"/>
<path d="M0 0 C7.47909965 5.73115143 12.69736095 13.70112213 16.7578125 22.11328125 C17.1703125 22.95890625 17.5828125 23.80453125 18.0078125 24.67578125 C21.8136394 37.04471869 21.04385951 52.38023655 15.6328125 64.11328125 C9.18125398 76.09474707 0.46155876 84.17066614 -12.2421875 89.11328125 C-21.08898496 91.54711636 -29.14394349 92.66698138 -38.2421875 91.11328125 C-39.05945313 91.02175781 -39.87671875 90.93023437 -40.71875 90.8359375 C-50.00488039 89.52408733 -58.29490878 84.26333127 -65.2421875 78.11328125 C-65.2421875 77.45328125 -65.2421875 76.79328125 -65.2421875 76.11328125 C-66.2321875 75.78328125 -67.2221875 75.45328125 -68.2421875 75.11328125 C-69.92578125 72.9609375 -69.92578125 72.9609375 -71.6796875 70.17578125 C-72.25589844 69.27988281 -72.83210938 68.38398438 -73.42578125 67.4609375 C-78.13745795 58.77726669 -79.9394755 51.65084667 -79.8046875 41.73828125 C-79.79735596 40.63645508 -79.79002441 39.53462891 -79.7824707 38.39941406 C-79.5876922 30.31340937 -78.56546821 24.0792434 -74.2421875 17.11328125 C-73.47841797 15.72882813 -73.47841797 15.72882813 -72.69921875 14.31640625 C-72.21839844 13.589375 -71.73757813 12.86234375 -71.2421875 12.11328125 C-70.5821875 12.11328125 -69.9221875 12.11328125 -69.2421875 12.11328125 C-69.2009375 11.55640625 -69.1596875 10.99953125 -69.1171875 10.42578125 C-67.79837503 6.94034829 -65.1128231 5.38586776 -62.2421875 3.11328125 C-61.9121875 2.45328125 -61.5821875 1.79328125 -61.2421875 1.11328125 C-42.06514574 -11.91965975 -19.5961023 -12.2018397 0 0 Z M-34.1796875 12.23828125 C-35.54580375 14.64907463 -35.46330011 16.38622571 -35.2421875 19.11328125 C-35.7990625 19.34015625 -36.3559375 19.56703125 -36.9296875 19.80078125 C-40.44178327 21.7941329 -43.42278625 24.47447874 -45.2421875 28.11328125 C-45.91992578 32.86713121 -45.84634218 36.88775324 -43.1796875 40.98828125 C-40.3745084 44.39400574 -37.50110867 45.86497677 -33.2421875 47.11328125 C-29.44965963 47.36525368 -29.44965963 47.36525368 -26.2421875 47.11328125 C-26.1994665 48.7794003 -26.20154918 50.4471101 -26.2421875 52.11328125 C-27.2421875 53.11328125 -27.2421875 53.11328125 -30.5546875 53.36328125 C-34.2421875 53.11328125 -34.2421875 53.11328125 -36.3671875 51.48828125 C-36.9859375 51.03453125 -37.6046875 50.58078125 -38.2421875 50.11328125 C-40.63482157 50.78099308 -42.46316135 51.3342551 -44.2421875 53.11328125 C-44.55470186 56.00403909 -44.45621258 57.69712137 -43.1171875 60.30078125 C-40.71618581 62.62174955 -38.43437093 63.26203233 -35.2421875 64.11328125 C-35.0978125 65.24765625 -34.9534375 66.38203125 -34.8046875 67.55078125 C-34.63047272 70.92105326 -34.63047272 70.92105326 -33.2421875 72.11328125 C-30.28401643 72.36333511 -30.28401643 72.36333511 -27.2421875 72.11328125 C-24.89244932 70.21572981 -24.89244932 70.21572981 -25.1171875 66.98828125 C-25.1584375 66.03953125 -25.1996875 65.09078125 -25.2421875 64.11328125 C-24.4996875 63.86578125 -23.7571875 63.61828125 -22.9921875 63.36328125 C-19.39119116 61.72646473 -17.02014404 59.66919433 -15.2421875 56.11328125 C-14.71835432 50.85777454 -14.62220908 46.44861939 -16.8671875 41.61328125 C-21.69349319 36.53295947 -26.54737287 35.69042044 -33.2421875 35.11328125 C-33.2421875 33.46328125 -33.2421875 31.81328125 -33.2421875 30.11328125 C-30.6021875 30.11328125 -27.9621875 30.11328125 -25.2421875 30.11328125 C-24.9121875 30.77328125 -24.5821875 31.43328125 -24.2421875 32.11328125 C-20.07279942 32.44795463 -20.07279942 32.44795463 -16.3046875 30.92578125 C-15.07493371 29.12870773 -15.07493371 29.12870773 -15.0546875 26.80078125 C-16.41652328 23.71873184 -17.51311768 23.04742339 -20.2421875 21.17578125 C-24.12590843 18.50572311 -24.12590843 18.50572311 -25.2421875 14.73828125 C-25.2421875 13.87203125 -25.2421875 13.00578125 -25.2421875 12.11328125 C-29.85228238 10.9431938 -29.85228238 10.9431938 -34.1796875 12.23828125 Z " fill="#FAFAFB" transform="translate(360.2421875,259.88671875)"/>
<path d="M0 0 C1.8125 1.0625 1.8125 1.0625 3 3 C4.5308642 9.01410935 4.5308642 9.01410935 2.6875 12.4375 C1 14 1 14 -1 14 C-1.33 14.99 -1.66 15.98 -2 17 C-3.65002828 18.35386936 -5.3174387 19.68678142 -7 21 C-7.66 21.99 -8.32 22.98 -9 24 C-9.66 24 -10.32 24 -11 24 C-10.505 24.99 -10.505 24.99 -10 26 C-8.22666152 31.32001545 -8.32288641 35.9028715 -10.5 41 C-10.995 41.99 -11.49 42.98 -12 44 C-12.66 44 -13.32 44 -14 44 C-14.33 44.99 -14.66 45.98 -15 47 C-20.64458005 51.66143998 -25.2563205 51.69874218 -32.33984375 51.53125 C-37.35242757 50.80370315 -40.79666108 48.95044353 -44 45 C-44 44.34 -44 43.68 -44 43 C-44.66 43 -45.32 43 -46 43 C-48.54174597 36.8044942 -49.25271239 30.47902092 -46.6875 24.1875 C-44.24461638 19.57316427 -42.13153336 16.35844211 -37.4375 13.73828125 C-32.86669424 12.35385451 -28.04671324 12.89385535 -23.328125 13.15234375 C-20.03641259 13.33366369 -20.03641259 13.33366369 -18.171875 11.50390625 C-17.78515625 11.00761719 -17.3984375 10.51132813 -17 10 C-16.34 10 -15.68 10 -15 10 C-14.67 9.01 -14.34 8.02 -14 7 C-13.34 7 -12.68 7 -12 7 C-11.7525 6.401875 -11.505 5.80375 -11.25 5.1875 C-8.51258996 0.39703243 -5.40939321 -0.69056084 0 0 Z " fill="#F9F9FA" transform="translate(253,144)"/>
</svg>
