<?xml version="1.0" encoding="UTF-8"?>
<svg version="1.1" xmlns="http://www.w3.org/2000/svg" width="471" height="395">
<path d="M0 0 C1.41249023 -0.01836914 1.41249023 -0.01836914 2.85351562 -0.03710938 C9.05140452 -0.05023123 13.18754473 0.32146371 18.1875 4.25 C22.03526786 9.0090813 23.38685162 14.00946009 23.875 20.0625 C24.25147889 23.44019774 24.25147889 23.44019774 27.375 25.1875 C30.72379066 26.23810099 31.40797273 26.30497091 34.5625 25.1875 C36.27681489 24.23420009 37.9634466 23.23004331 39.625 22.1875 C44.74141563 18.98685503 49.42172147 17.01526732 55.5625 18.1875 C60.54142735 21.01300698 64.38921746 24.70967996 68.375 28.75 C69.25188477 29.6152832 69.25188477 29.6152832 70.14648438 30.49804688 C70.70271484 31.05685547 71.25894531 31.61566406 71.83203125 32.19140625 C72.33323486 32.69486572 72.83443848 33.1983252 73.35083008 33.71704102 C76.30894196 37.30694789 75.87387684 41.79456193 75.5625 46.1875 C74.64848055 50.48339142 72.85959477 53.13190913 70.25 56.5625 C68.62082722 58.96766281 67.62468608 60.53624215 67.34765625 63.4375 C67.9395615 66.14335257 68.51300372 67.29496733 70.5625 69.1875 C74.07844822 70.3375355 77.51951773 70.96131343 81.16796875 71.5625 C86.84171619 72.60714855 89.30051726 74.40861657 92.6796875 79.171875 C95.27825402 83.86661039 95.15170551 88.43180869 95.0625 93.6875 C95.08570313 95.05455078 95.08570313 95.05455078 95.109375 96.44921875 C95.07087122 103.11999872 93.9508774 107.80577844 89.07104492 112.67602539 C84.53499861 116.63309973 79.15100869 117.34937139 73.35546875 118.31640625 C70.50376907 118.91492725 70.50376907 118.91492725 69.17578125 120.96484375 C68.15424221 124.66710944 67.95023922 127.07719223 69.83984375 130.50390625 C70.38769531 131.24511719 70.93554688 131.98632812 71.5 132.75 C75.26771014 137.88940603 76.5230367 142.76105211 75.5625 149.1875 C73.51130271 154.32599422 70.52082641 157.66030411 66.625 161.4375 C66.09970703 161.96601563 65.57441406 162.49453125 65.03320312 163.0390625 C60.69249574 167.32001046 57.67401678 169.46806991 51.5625 169.75 C45.30655101 169.69995241 41.56543817 167.00843761 36.4453125 163.6796875 C32.03203448 161.39530782 29.28518442 162.0068289 24.5625 163.1875 C24.45292969 163.97253906 24.34335937 164.75757813 24.23046875 165.56640625 C22.01086147 180.27356021 22.01086147 180.27356021 16.625 185.0625 C11.37343238 188.70644488 6.45487477 188.39946245 0.25 188.4375 C-0.99426758 188.4684375 -0.99426758 188.4684375 -2.26367188 188.5 C-8.75761376 188.54100358 -13.79195248 187.68607266 -18.6875 183.0625 C-22.2484009 177.21244853 -23.71896226 170.9417548 -24.4375 164.1875 C-27.46642628 162.87870469 -30.12368235 162.16338197 -33.4375 162.1875 C-36.11139238 163.58712974 -36.11139238 163.58712974 -38.6875 165.5625 C-43.8852968 169.18718396 -47.79552137 170.47399828 -54.15234375 170.140625 C-60.69650301 168.24196286 -65.05576773 163.19934864 -69.4375 158.1875 C-69.90542969 157.65930664 -70.37335938 157.13111328 -70.85546875 156.58691406 C-75.05056693 151.72769217 -75.75593534 148.55620672 -75.4375 142.1875 C-74.9016037 139.78761655 -74.20240828 137.5300316 -73.4375 135.1875 C-72.7775 135.1875 -72.1175 135.1875 -71.4375 135.1875 C-70.7775 133.2075 -70.1175 131.2275 -69.4375 129.1875 C-68.7775 129.1875 -68.1175 129.1875 -67.4375 129.1875 C-68.18109673 123.63696714 -68.18109673 123.63696714 -69.4375 118.1875 C-71.2009375 118.001875 -71.2009375 118.001875 -73 117.8125 C-79.87298292 116.91707617 -86.57244856 115.44994425 -91.4375 110.1875 C-94.45983726 104.62893566 -94.92941618 99.9503071 -94.875 93.6875 C-94.89498047 92.87152344 -94.91496094 92.05554688 -94.93554688 91.21484375 C-94.93085801 85.37252284 -93.78213408 81.98926327 -90.4375 77.1875 C-85.0800031 72.10474653 -79.75721867 70.94770023 -72.64453125 69.9453125 C-70.29368957 69.38718028 -70.29368957 69.38718028 -69.16796875 67.2890625 C-68.10647698 64.235145 -67.93933143 62.42559573 -68.4375 59.1875 C-69.85363996 57.03581271 -71.42045309 55.06853122 -73.03515625 53.0625 C-74.77819804 50.73197059 -75.28869259 49.08924455 -75.4375 46.1875 C-75.52 45.053125 -75.6025 43.91875 -75.6875 42.75 C-75.17724975 35.47893389 -70.97236276 31.27096995 -66 26.4375 C-65.42701172 25.86128906 -64.85402344 25.28507812 -64.26367188 24.69140625 C-60.16330271 20.64294049 -57.36378476 18.46268354 -51.5 17.625 C-44.75009541 17.70401226 -39.04230411 21.79169906 -33.4375 25.1875 C-33.4375 25.8475 -33.4375 26.5075 -33.4375 27.1875 C-32.53 26.6925 -31.6225 26.1975 -30.6875 25.6875 C-27.4375 24.1875 -27.4375 24.1875 -23.4375 24.1875 C-23.499375 23.23875 -23.56125 22.29 -23.625 21.3125 C-23.58548672 14.81915174 -22.04725069 8.41400326 -17.5 3.625 C-12.09040687 -0.68059453 -6.66791864 0.00454528 0 0 Z M-13.4375 73.1875 C-13.4375 73.8475 -13.4375 74.5075 -13.4375 75.1875 C-15.4175 76.1775 -15.4175 76.1775 -17.4375 77.1875 C-17.4375 77.8475 -17.4375 78.5075 -17.4375 79.1875 C-18.4275 79.5175 -19.4175 79.8475 -20.4375 80.1875 C-23.41010118 84.7650267 -23.9026686 88.85753413 -23.8125 94.1875 C-23.82410156 94.87328125 -23.83570313 95.5590625 -23.84765625 96.265625 C-23.81494268 101.97959553 -22.44587637 105.93899167 -18.640625 110.19921875 C-11.86662705 116.01130899 -6.21449243 118.81254298 2.84765625 118.5390625 C9.54013558 117.6724105 14.21696827 114.23771255 18.5625 109.1875 C19.01753906 108.67316406 19.47257812 108.15882813 19.94140625 107.62890625 C24.64331729 101.82854305 24.5625 96.46828976 24.5625 89.25 C23.75191327 83.827832 20.24551188 79.11175719 16.5625 75.1875 C15.5725 75.1875 14.5825 75.1875 13.5625 75.1875 C13.5625 74.5275 13.5625 73.8675 13.5625 73.1875 C5.14879475 68.49147847 -5.02379475 68.49147847 -13.4375 73.1875 Z " fill="#FAFAFB" transform="translate(335.4375,189.8125)"/>
<path d="M0 0 C1.41249023 -0.01836914 1.41249023 -0.01836914 2.85351562 -0.03710938 C8.78182907 -0.0496605 13.0113131 0.08139426 17.734375 3.98046875 C22.37345359 9.58106576 24.1982298 17.03553977 23.5625 24.1875 C30.37936435 25.42692988 33.76612779 25.29069187 39.75 21.6875 C44.49738382 19.06366567 48.03400588 17.41042162 53.46484375 17.55078125 C59.29703593 19.32107422 63.62145748 23.90763184 67.8125 28.125 C68.34101563 28.63740234 68.86953125 29.14980469 69.4140625 29.67773438 C72.99911385 33.25823617 75.45261816 36.22592269 75.64453125 41.3984375 C74.93488656 47.09616441 73.67711695 52.09530603 70.37109375 56.9296875 C68.11964828 60.27341839 67.52718604 61.88480888 68 65.9375 C69.44037286 68.70129236 70.459801 69.15331314 73.4609375 70.15234375 C75.7645719 70.63995515 78.07500852 71.0963349 80.390625 71.5234375 C85.47934409 72.58880972 88.29326646 74.75932009 91.68359375 78.57421875 C94.73875 83.29229906 94.14108537 88.76510921 94.0625 94.1875 C94.08570313 95.78851563 94.08570313 95.78851563 94.109375 97.421875 C94.07840356 103.64713429 93.76168963 107.48071602 89.5625 112.1875 C83.78125516 117.14285272 76.98830504 118.1875 69.5625 118.1875 C68.9025 121.8175 68.2425 125.4475 67.5625 129.1875 C68.2225 129.1875 68.8825 129.1875 69.5625 129.1875 C72.92624361 135.13300993 76.32702385 141.15149147 75.5625 148.1875 C73.69756098 153.65089519 71.38930152 156.86232811 67.1875 160.9375 C65.78371094 162.32195312 65.78371094 162.32195312 64.3515625 163.734375 C58.84855575 168.5745546 55.09286101 169.87291123 47.82421875 169.765625 C42.92137252 168.89661752 39.45342371 166.31160649 35.34375 163.61328125 C32.27620927 162.04073579 31.09244273 161.88959249 27.8125 162.75 C26.74 163.224375 25.6675 163.69875 24.5625 164.1875 C24.46453125 164.80496094 24.3665625 165.42242187 24.265625 166.05859375 C23.17191374 172.25314802 21.36220361 177.56091119 18.5625 183.1875 C17.9025 183.1875 17.2425 183.1875 16.5625 183.1875 C16.2325 184.1775 15.9025 185.1675 15.5625 186.1875 C10.40972468 188.65258771 5.21370557 188.52065301 -0.375 188.5 C-1.67727539 188.52416992 -1.67727539 188.52416992 -3.00585938 188.54882812 C-9.27524086 188.55356689 -14.56946576 188.03064891 -19.23828125 183.40234375 C-20.75983074 180.59218557 -21.70186553 177.80943033 -22.625 174.75 C-22.96917969 173.63753906 -23.31335938 172.52507812 -23.66796875 171.37890625 C-24.36450084 168.49024272 -24.59742961 166.13792564 -24.4375 163.1875 C-25.55125 163.2184375 -25.55125 163.2184375 -26.6875 163.25 C-29.4375 163.1875 -29.4375 163.1875 -31.265625 162.46875 C-34.60960824 162.0357162 -36.2162511 163.74865499 -38.9375 165.625 C-44.26156557 168.83109788 -48.30606063 170.38756882 -54.55078125 170.00390625 C-60.15657247 168.41850657 -63.5851736 164.35863962 -67.4375 160.1875 C-68.78954344 158.914408 -70.14346505 157.64330503 -71.5 156.375 C-75.10368227 152.94090278 -75.3654291 150.28658125 -75.6875 145.375 C-75.60459022 139.78895355 -73.51442296 135.62339728 -70.1875 131.1875 C-67.95291675 127.35678586 -68.38173183 125.41057269 -69.4375 121.1875 C-69.9325 120.1975 -69.9325 120.1975 -70.4375 119.1875 C-72.44349221 118.7044123 -74.46897728 118.30126526 -76.5 117.9375 C-83.82049584 116.33840157 -88.93187218 113.9779161 -93.12109375 107.640625 C-94.91270462 102.94096918 -94.91344187 98.73695929 -94.875 93.75 C-94.9049707 92.37618164 -94.9049707 92.37618164 -94.93554688 90.97460938 C-94.93113937 84.83495862 -94.02605212 81.1996642 -90.4375 76.1875 C-84.75721807 71.18344211 -77.80471265 70.1875 -70.4375 70.1875 C-68.64357956 66.37541906 -67.97958192 63.40034637 -68.4375 59.1875 C-69.7287354 57.56264541 -69.7287354 57.56264541 -71.4375 56.1875 C-74.45793014 51.65685479 -75.58104657 48.1030987 -75.5625 42.6875 C-75.56507812 41.9346875 -75.56765625 41.181875 -75.5703125 40.40625 C-75.37048106 37.06788944 -75.20513067 34.9907038 -72.8359375 32.51171875 C-72.16820313 31.97160156 -71.50046875 31.43148437 -70.8125 30.875 C-67.33783531 27.98567309 -64.17680113 24.95467134 -61.078125 21.66796875 C-57.70658223 18.62555277 -54.43221126 17.64042998 -49.8671875 17.7265625 C-44.0552811 18.82914281 -37.62600171 21.99899829 -33.4375 26.1875 C-31.54082891 25.90197643 -31.54082891 25.90197643 -29.4375 25.1875 C-27.77230481 24.84689189 -26.10592534 24.51191604 -24.4375 24.1875 C-24.355 23.07375 -24.2725 21.96 -24.1875 20.8125 C-23.21425724 13.20228234 -20.64213258 5.99609025 -14.4375 1.1875 C-9.75702045 -0.35254465 -4.87225213 0.00332124 0 0 Z M-18.57421875 77.359375 C-23.76492993 83.97147768 -25.14449061 90.16768287 -24.171875 98.44921875 C-22.60323406 106.07455665 -18.53882023 110.6066205 -12.37109375 114.9296875 C-6.90816497 118.48335026 -1.85415837 118.95978726 4.5625 118.1875 C13.04219429 115.70923232 18.07432566 110.72122122 22.5625 103.1875 C24.48053161 97.20626985 24.62182908 89.92251534 22.125 84.125 C21.609375 83.155625 21.09375 82.18625 20.5625 81.1875 C20.0675 80.1975 20.0675 80.1975 19.5625 79.1875 C18.9025 79.1875 18.2425 79.1875 17.5625 79.1875 C17.376875 78.61 17.19125 78.0325 17 77.4375 C14.54954927 73.60201191 10.5729348 72.1927174 6.5625 70.1875 C-3.30119917 69.18392596 -11.41094704 70.07824325 -18.57421875 77.359375 Z " fill="#FAFAFB" transform="translate(137.4375,189.8125)"/>
<path d="M0 0 C0.83337891 -0.01224609 1.66675781 -0.02449219 2.52539062 -0.03710938 C7.941329 -0.0499535 12.94953241 0.02744679 17.3203125 3.640625 C21.47326954 9.09879711 22.97360532 14.53562125 24.41015625 21.2109375 C25.27900348 24.34043622 25.27900348 24.34043622 27.93359375 25.6640625 C31.74853914 26.42365044 33.50881465 25.83819692 36.7890625 23.8125 C37.58054687 23.27625 38.37203125 22.74 39.1875 22.1875 C44.22760154 19.1144484 48.61956592 17.57134296 54.5625 18.1875 C57.44878295 19.18457956 59.08145021 20.28712144 61.5625 22.1875 C61.8925 23.1775 62.2225 24.1675 62.5625 25.1875 C63.89409573 25.85763061 65.22774723 26.52367979 66.5625 27.1875 C68.66796875 29.28125 68.66796875 29.28125 70.75 31.6875 C71.44480469 32.4815625 72.13960937 33.275625 72.85546875 34.09375 C75.93163778 37.86680859 75.88397951 40.75319902 75.86328125 45.5 C75.39327773 49.69951193 73.70318558 52.57509308 71.5625 56.1875 C70.9025 56.1875 70.2425 56.1875 69.5625 56.1875 C69.376875 57.404375 69.19125 58.62125 69 59.875 C68.89558594 60.55949219 68.79117188 61.24398437 68.68359375 61.94921875 C68.54476591 64.51529457 68.97324431 66.69516665 69.5625 69.1875 C70.63628906 69.40664062 71.71007812 69.62578125 72.81640625 69.8515625 C87.139434 72.97081459 87.139434 72.97081459 92.5625 79.1875 C94.17180912 84.01542737 93.83025272 88.94355728 93.875 94 C93.90400391 95.08087891 93.93300781 96.16175781 93.96289062 97.27539062 C94.01321127 103.58095404 93.84686832 107.4253502 89.5625 112.1875 C84.96139217 116.21346935 80.00351803 117.27588031 74.171875 118.57421875 C71.59928926 119.07297622 71.59928926 119.07297622 69.5625 120.1875 C68.04127057 122.98656216 67.44394044 124.08878436 67.5625 127.1875 C69.50934135 131.14100184 71.98941248 134.62066833 74.5625 138.1875 C75.79939062 140.66128124 75.69560087 142.36665317 75.6875 145.125 C75.69007813 146.00027344 75.69265625 146.87554687 75.6953125 147.77734375 C75.5625 150.1875 75.5625 150.1875 74.5625 153.1875 C73.9025 153.1875 73.2425 153.1875 72.5625 153.1875 C72.47871094 153.77402344 72.39492188 154.36054688 72.30859375 154.96484375 C71.34624862 157.8317253 69.96094339 158.86181429 67.625 160.75 C65.03221343 162.86281519 63.44552476 164.36296286 61.5625 167.1875 C56.72806818 169.74690508 53.11087865 170.93982253 47.5625 170.1875 C42.92874368 168.26168726 38.61730265 165.81632465 34.3125 163.25 C31.55527799 161.95703038 31.55527799 161.95703038 28.375 162.4375 C24.15211501 165.06507288 23.6791515 168.51296578 22.5625 173.1875 C22.1603125 174.981875 22.1603125 174.981875 21.75 176.8125 C20.25236578 181.0689341 18.01585833 184.26288553 14.5625 187.1875 C10.01595515 188.62829786 5.40942303 188.37159313 0.6875 188.375 C-0.19808594 188.38724609 -1.08367187 188.39949219 -1.99609375 188.41210938 C-12.71744762 188.43607663 -12.71744762 188.43607663 -17.1953125 184.734375 C-21.36184758 179.25835747 -22.77214546 173.88936416 -24.08984375 167.1640625 C-25.19947847 163.88144057 -25.19947847 163.88144057 -28.67578125 162.56640625 C-33.27138497 162.10350536 -34.87690395 162.98402953 -38.6875 165.5 C-44.24440229 169.08942039 -47.6982101 170.73990081 -54.4375 170.1875 C-59.17209001 168.48269427 -63.25705188 166.16306015 -66.4375 162.1875 C-66.4375 161.5275 -66.4375 160.8675 -66.4375 160.1875 C-67.4275 159.8575 -68.4175 159.5275 -69.4375 159.1875 C-69.4375 158.5275 -69.4375 157.8675 -69.4375 157.1875 C-70.4275 156.8575 -71.4175 156.5275 -72.4375 156.1875 C-75.89405504 152.34688329 -76.09880472 148.19157637 -76.01171875 143.234375 C-75.11378575 138.46983257 -72.62117649 134.94117421 -69.87109375 131.01171875 C-68.09984334 127.52230719 -68.4179486 125.90194607 -69.4375 122.1875 C-69.7675 121.1975 -70.0975 120.2075 -70.4375 119.1875 C-72.83110412 118.45628677 -75.1223071 117.88672809 -77.5625 117.375 C-83.96250726 115.86525082 -88.01332914 114.13835787 -92.4375 109.1875 C-93.46378246 106.10865261 -93.56656515 103.9748637 -93.5703125 100.75 C-93.57160156 99.69039063 -93.57289063 98.63078125 -93.57421875 97.5390625 C-93.57035156 96.43304688 -93.56648437 95.32703125 -93.5625 94.1875 C-93.56636719 93.08148438 -93.57023438 91.97546875 -93.57421875 90.8359375 C-93.57292969 89.77632813 -93.57164062 88.71671875 -93.5703125 87.625 C-93.56918457 86.65433594 -93.56805664 85.68367188 -93.56689453 84.68359375 C-93.4375 82.1875 -93.4375 82.1875 -92.4375 79.1875 C-91.7775 79.1875 -91.1175 79.1875 -90.4375 79.1875 C-90.23125 78.589375 -90.025 77.99125 -89.8125 77.375 C-87.77476441 74.13314793 -86.05826786 73.53761683 -82.4375 72.1875 C-78.12267368 71.36147498 -73.79548379 70.73709736 -69.4375 70.1875 C-69.24122609 68.60523035 -69.05584462 67.02160729 -68.875 65.4375 C-68.77058594 64.55578125 -68.66617188 63.6740625 -68.55859375 62.765625 C-68.44293324 60.30317549 -68.70111305 58.52211936 -69.4375 56.1875 C-70.0975 56.1875 -70.7575 56.1875 -71.4375 56.1875 C-76.33040495 47.2209672 -76.33040495 47.2209672 -76.4375 42.1875 C-74.63054919 36.08904102 -71.06745141 31.51874487 -66.4375 27.1875 C-65.72464844 26.84332031 -65.01179688 26.49914062 -64.27734375 26.14453125 C-62.07923071 25.27219077 -62.07923071 25.27219077 -61.4375 22.1875 C-60.7775 22.1875 -60.1175 22.1875 -59.4375 22.1875 C-59.4375 21.5275 -59.4375 20.8675 -59.4375 20.1875 C-55.75232832 17.82899012 -52.74298363 17.8730048 -48.4375 18.1875 C-45.88898599 19.24500906 -43.63723304 20.29470983 -41.25 21.625 C-34.9107117 25.36598378 -34.9107117 25.36598378 -27.83984375 25.73046875 C-24.30716277 23.46151105 -23.9337638 20.36739626 -23 16.5 C-21.22633816 10.08330779 -19.64676195 5.63707792 -14.4375 1.1875 C-9.77506935 -0.25377279 -4.83622216 0.00372303 0 0 Z M-18.875 79.0625 C-22.84698215 85.07110755 -25.65124693 90.83683039 -24.4375 98.1875 C-22.09785936 105.84090073 -17.77590781 112.49318541 -10.8125 116.625 C-4.12002608 119.58094928 3.60815239 119.27414482 10.375 116.6875 C16.47233557 113.54477168 20.83648287 108.48083349 23.5 102.1875 C25.66098597 95.13010278 25.02450409 90.6196387 21.9375 84 C18.2342931 77.13003206 14.27748599 73.17241935 6.7578125 70.69921875 C-3.16340607 68.38662154 -12.44276063 70.89911473 -18.875 79.0625 Z " fill="#FAFAFB" transform="translate(236.4375,17.8125)"/>
<path d="M0 0 C1.0516333 0.00209473 2.1032666 0.00418945 3.18676758 0.00634766 C12.08738242 0.1851379 19.24698384 1.91889809 27.375 5.5 C28.28894531 5.80164063 29.20289063 6.10328125 30.14453125 6.4140625 C32.375 7.5 32.375 7.5 33.69921875 9.3359375 C34.47388362 11.81665623 34.48472865 13.54901834 34.1875 16.125 C34.11144531 16.90101562 34.03539062 17.67703125 33.95703125 18.4765625 C33.375 20.5 33.375 20.5 30.375 22.5 C27.67877083 22.83666896 25.01786009 23.09738062 22.3125 23.3125 C15.28500347 23.99200348 9.23317489 25.26909591 3.375 29.5 C3.045 30.16 2.715 30.82 2.375 31.5 C1.715 31.5 1.055 31.5 0.375 31.5 C-0.0566748 32.59562256 -0.0566748 32.59562256 -0.49707031 33.71337891 C-1.18414472 35.41083936 -1.89611275 37.09884706 -2.65136719 38.76708984 C-5.48945908 45.21594075 -6.42663313 51.12860859 -6.875 58.125 C-6.95234375 59.12917969 -7.0296875 60.13335937 -7.109375 61.16796875 C-7.2955339 63.61130431 -7.46715595 66.05470054 -7.625 68.5 C-6.635 68.17 -5.645 67.84 -4.625 67.5 C-1.4625927 67.24985752 1.70370685 67.2688487 4.875 67.25 C5.74253906 67.229375 6.61007813 67.20875 7.50390625 67.1875 C8.33792969 67.18234375 9.17195313 67.1771875 10.03125 67.171875 C10.79244141 67.1625293 11.55363281 67.15318359 12.33789062 67.14355469 C14.91658273 67.594764 15.78832067 68.45653999 17.375 70.5 C17.7734375 72.65625 17.7734375 72.65625 17.75 75 C17.76160156 76.16015625 17.76160156 76.16015625 17.7734375 77.34375 C17.28441694 79.99021421 16.32437099 80.71884885 14.375 82.5 C13.88 83.985 13.88 83.985 13.375 85.5 C11.72406231 87.18224858 10.05481294 88.84658412 8.375 90.5 C6.75823567 92.49418779 5.17627116 94.51695127 3.625 96.5625 C3.19960937 97.1196167 2.77421875 97.6767334 2.3359375 98.25073242 C0.12692003 101.15129326 -2.05105106 104.07258974 -4.203125 107.015625 C-4.61079102 107.56984131 -5.01845703 108.12405762 -5.43847656 108.69506836 C-6.56913699 110.23634929 -7.6910529 111.78403374 -8.8125 113.33203125 C-9.410625 114.04746094 -10.00875 114.76289063 -10.625 115.5 C-11.285 115.5 -11.945 115.5 -12.625 115.5 C-12.9034375 116.49 -12.9034375 116.49 -13.1875 117.5 C-15.37495784 122.06512941 -19.00344473 127.18922237 -23.625 129.5 C-29.22630756 130.15897736 -32.00276879 129.04901774 -36.33984375 125.7890625 C-37.625 124.5 -37.625 124.5 -37.625 122.5 C-38.15609375 122.273125 -38.6871875 122.04625 -39.234375 121.8125 C-42.41494062 120.06630711 -45.10498907 117.81938714 -47.875 115.5 C-48.42929688 115.04882812 -48.98359375 114.59765625 -49.5546875 114.1328125 C-50.95231582 112.96926971 -52.29385563 111.73905262 -53.625 110.5 C-53.625 109.84 -53.625 109.18 -53.625 108.5 C-54.945 108.17 -56.265 107.84 -57.625 107.5 C-57.625 106.84 -57.625 106.18 -57.625 105.5 C-58.14964844 105.2834375 -58.67429687 105.066875 -59.21484375 104.84375 C-62.571899 102.97206928 -65.29671391 100.51683738 -68.1875 98 C-72.74921641 94.05102588 -72.74921641 94.05102588 -77.625 90.5 C-77.625 89.84 -77.625 89.18 -77.625 88.5 C-78.285 88.5 -78.945 88.5 -79.625 88.5 C-81.05162219 85.64675563 -80.93533868 83.66545451 -80.625 80.5 C-78.47409549 77.16238955 -77.42087201 75.76529067 -73.625 74.5 C-72.21835074 74.35507877 -70.8068867 74.25371069 -69.39453125 74.18359375 C-68.59208984 74.14169922 -67.78964844 74.09980469 -66.96289062 74.05664062 C-66.12951172 74.01732422 -65.29613281 73.97800781 -64.4375 73.9375 C-63.59251953 73.89431641 -62.74753906 73.85113281 -61.87695312 73.80664062 C-59.79315567 73.70068482 -57.70909897 73.5998498 -55.625 73.5 C-55.64820312 72.83097656 -55.67140625 72.16195312 -55.6953125 71.47265625 C-56.05609014 52.2741316 -53.4288843 32.08109479 -39.7265625 17.4765625 C-38.51807133 16.26807133 -37.2921143 15.07657693 -36.04296875 13.91015625 C-34.50980575 12.53531752 -34.50980575 12.53531752 -33.625 10.5 C-32.635 10.5 -31.645 10.5 -30.625 10.5 C-30.625 9.84 -30.625 9.18 -30.625 8.5 C-29.15012154 7.72099321 -27.66978001 6.95232941 -26.1875 6.1875 C-25.36378906 5.75824219 -24.54007813 5.32898438 -23.69140625 4.88671875 C-15.68664156 1.26672962 -8.80612004 -0.05199496 0 0 Z M-25.5390625 26.3125 C-26.99846637 27.98894342 -28.33306501 29.69212993 -29.625 31.5 C-30.7078125 32.985 -30.7078125 32.985 -31.8125 34.5 C-39.63952392 47.45507408 -40.02299198 61.79357551 -39.5144043 76.51342773 C-39.48902588 77.50544189 -39.46364746 78.49745605 -39.4375 79.51953125 C-39.40269531 80.40745361 -39.36789063 81.29537598 -39.33203125 82.21020508 C-39.625 84.5 -39.625 84.5 -41.0090332 86.27929688 C-43.90814461 88.46928888 -47.07694836 88.2091761 -50.625 88.5 C-50.625 89.49 -50.625 90.48 -50.625 91.5 C-48.65366014 92.87535339 -46.64818078 94.20211044 -44.625 95.5 C-42.95416147 97.16248434 -41.28799426 98.829669 -39.625 100.5 C-37.70732976 102.12781995 -35.76977957 103.73252733 -33.8125 105.3125 C-32.34876953 106.49779297 -32.34876953 106.49779297 -30.85546875 107.70703125 C-30.11941406 108.29871094 -29.38335937 108.89039063 -28.625 109.5 C-24.84465377 106.02263974 -24.84465377 106.02263974 -22.625 101.5 C-21.965 101.5 -21.305 101.5 -20.625 101.5 C-19.30709118 100.10013996 -19.30709118 100.10013996 -18.0234375 98.25390625 C-17.53359375 97.58166016 -17.04375 96.90941406 -16.5390625 96.21679688 C-16.03117187 95.50587891 -15.52328125 94.79496094 -15 94.0625 C-14.484375 93.35544922 -13.96875 92.64839844 -13.4375 91.91992188 C-10.88394378 88.96350405 -10.88394378 88.96350405 -9.625 85.5 C-13.585 85.17 -17.545 84.84 -21.625 84.5 C-23.43163241 79.08010277 -22.89085987 73.19397493 -22.92016602 67.51635742 C-22.93157613 65.9833851 -22.95184939 64.45044895 -22.98168945 62.91772461 C-23.27579574 47.79014592 -20.63458659 35.63572201 -12.625 22.5 C-12.06941406 21.57316406 -11.51382813 20.64632812 -10.94140625 19.69140625 C-10.50699219 18.96824219 -10.07257813 18.24507812 -9.625 17.5 C-15.56648411 17.5 -21.3345982 22.33112972 -25.5390625 26.3125 Z " fill="#FAFAFB" transform="translate(123.625,62.5)"/>
<path d="M0 0 C1.03125 -0.020625 2.0625 -0.04125 3.125 -0.0625 C4.60613281 -0.07023437 4.60613281 -0.07023437 6.1171875 -0.078125 C7.00776855 -0.0874707 7.89834961 -0.09681641 8.81591797 -0.10644531 C11.58727123 0.32135927 12.44599502 1.04781707 14.125 3.25 C14.98647055 6.35878503 14.83119907 9.11624164 14.125 12.25 C12.17505881 15.61669533 9.93837431 18.55756259 7.125 21.25 C6.465 21.25 5.805 21.25 5.125 21.25 C3.55226432 24.0924854 3.55226432 24.0924854 3.125 27.25 C5.42635959 30.20889091 7.71514842 32.86230256 10.4375 35.4375 C16.53387506 41.81742739 21.66042388 49.1209214 25.125 57.25 C25.39957031 57.85972656 25.67414063 58.46945313 25.95703125 59.09765625 C31.41355746 72.18794325 31.70467162 88.05524716 26.31640625 101.2265625 C22.4579883 109.51975958 16.67829529 115.98232048 10.125 122.25 C9.44050781 122.99830078 9.44050781 122.99830078 8.7421875 123.76171875 C2.70266064 129.31983405 -6.97157308 133.57698062 -15.0625 134.6875 C-18.88644207 134.09266457 -20.39295869 133.24304981 -22.875 130.25 C-23.58923157 127.11083705 -23.59674237 124.38928593 -22.875 121.25 C-20.8125 119.3125 -20.8125 119.3125 -17.875 117.25 C-11.78084743 109.75739979 -9.14413748 104.03231375 -9.875 94.25 C-11.6662386 85.89088655 -15.683042 78.94489321 -20.875 72.25 C-21.865 71.755 -21.865 71.755 -22.875 71.25 C-22.875 70.26 -22.875 69.27 -22.875 68.25 C-24.195 67.59 -25.515 66.93 -26.875 66.25 C-26.875 65.59 -26.875 64.93 -26.875 64.25 C-27.865 64.25 -28.855 64.25 -29.875 64.25 C-30.16375 64.848125 -30.4525 65.44625 -30.75 66.0625 C-31.875 68.25 -31.875 68.25 -33.875 71.25 C-34.535 71.25 -35.195 71.25 -35.875 71.25 C-35.978125 71.848125 -36.08125 72.44625 -36.1875 73.0625 C-36.98136936 75.58844795 -37.83072409 76.59885407 -39.875 78.25 C-43.40494613 79.42664871 -46.16955413 79.44850603 -49.875 79.25 C-52.875 77.25 -52.875 77.25 -53.55102539 75.22900391 C-53.69016357 74.40319824 -53.82930176 73.57739258 -53.97265625 72.7265625 C-54.13330566 71.7981958 -54.29395508 70.8698291 -54.45947266 69.91333008 C-54.61722168 68.91068115 -54.7749707 67.90803223 -54.9375 66.875 C-55.10813965 65.84076904 -55.2787793 64.80653809 -55.45458984 63.7409668 C-56.88860928 54.7752577 -57.8630147 45.8013205 -58.64404297 36.75878906 C-58.88851075 34.10323842 -59.17563047 31.45485414 -59.47265625 28.8046875 C-59.5711084 27.90645264 -59.66956055 27.00821777 -59.77099609 26.08276367 C-59.95930815 24.37391853 -60.1532487 22.66567999 -60.35400391 20.95825195 C-60.86037998 16.22044007 -61.07747558 11.92499043 -59.875 7.25 C-56.5285876 3.75289998 -52.7329007 3.63683638 -48.14453125 3.3359375 C-47.01974617 3.24598007 -47.01974617 3.24598007 -45.87223816 3.15420532 C-43.47809585 2.965327 -41.08307188 2.79468333 -38.6875 2.625 C-37.09560745 2.50385486 -35.50380863 2.38147139 -33.91210938 2.2578125 C-31.60268092 2.07839847 -29.29324147 1.90019841 -26.98321533 1.7286377 C-23.31136722 1.45400204 -19.65749385 1.13700283 -16.00390625 0.6796875 C-10.68109595 0.04874954 -5.35452642 0.02738888 0 0 Z M-30.125 18.1875 C-31.0221875 18.27451172 -31.919375 18.36152344 -32.84375 18.45117188 C-34.13539063 18.58168945 -34.13539063 18.58168945 -35.453125 18.71484375 C-36.61956543 18.83267212 -36.61956543 18.83267212 -37.80957031 18.95288086 C-40.06674136 19.21506663 -40.06674136 19.21506663 -42.875 20.25 C-43.36241178 30.63006571 -41.91477033 40.11185582 -39.875 50.25 C-39.18019531 49.43144531 -38.48539062 48.61289063 -37.76953125 47.76953125 C-34.33371138 44.77883784 -33.01467916 44.69287477 -28.5625 44.9375 C-26.95955078 45.00517578 -26.95955078 45.00517578 -25.32421875 45.07421875 C-24.51597656 45.13222656 -23.70773437 45.19023438 -22.875 45.25 C-22.875 45.91 -22.875 46.57 -22.875 47.25 C-21.4138675 48.47867961 -19.94878919 49.70322104 -18.45703125 50.89453125 C-16.26934608 52.76891829 -14.63616247 54.97753229 -12.875 57.25 C-11.76125 58.301875 -11.76125 58.301875 -10.625 59.375 C-1.53380077 68.87943555 5.59107573 80.62377672 6.6875 93.9375 C6.77128906 94.93136719 6.85507812 95.92523438 6.94140625 96.94921875 C7.00199219 97.70847656 7.06257813 98.46773438 7.125 99.25 C12.21623905 95.85584063 12.915618 90.03316178 14.125 84.25 C14.82121027 72.43024845 9.33515731 61.00652622 3.125 51.25 C0.62541345 48.41540517 0.62541345 48.41540517 -1.875 46.25 C-2.47699219 45.46753906 -3.07898438 44.68507813 -3.69921875 43.87890625 C-5.94888721 41.16072515 -8.26369921 39.19984122 -11.0625 37.0625 C-15.77179715 33.45640569 -15.77179715 33.45640569 -16.875 31.25 C-17.27503373 27.00964245 -17.38299734 24.96437126 -14.875 21.4375 C-14.215 20.715625 -13.555 19.99375 -12.875 19.25 C-12.875 18.59 -12.875 17.93 -12.875 17.25 C-18.68439869 17.13095494 -24.34844179 17.59210913 -30.125 18.1875 Z " fill="#FAFAFB" transform="translate(391.875,62.75)"/>
</svg>
