<?xml version="1.0" encoding="UTF-8"?>
<svg version="1.1" xmlns="http://www.w3.org/2000/svg" width="471" height="395">
<path d="M0 0 C8.25 0 16.5 0 25 0 C25 6.27 25 12.54 25 19 C26.423125 19.4125 27.84625 19.825 29.3125 20.25 C36.95256449 22.55070124 44.13645647 24.88187388 51 29 C55.29 24.71 59.58 20.42 64 16 C68.85714286 18.42857143 68.85714286 18.42857143 71 21 C71 21.66 71 22.32 71 23 C71.804375 23.309375 71.804375 23.309375 72.625 23.625 C75.91978009 25.53250426 78.59363628 28.04819384 81 31 C81 31.66 81 32.32 81 33 C81.66 33 82.32 33 83 33 C82.54116122 38.00016614 78.36624211 40.71429918 74.86132812 43.84570312 C72.39095854 46.16713824 71.07001444 47.41332727 70.66015625 50.84765625 C70.82837891 51.91306641 70.82837891 51.91306641 71 53 C71.66 53 72.32 53 73 53 C73.80324487 54.64021375 74.59190592 56.28757057 75.375 57.9375 C75.81585938 58.85402344 76.25671875 59.77054688 76.7109375 60.71484375 C78 64 78 64 80 73 C86.27 73.33 92.54 73.66 99 74 C99 82.58 99 91.16 99 100 C92.73 100.33 86.46 100.66 80 101 C79.443125 102.93875 78.88625 104.8775 78.3125 106.875 C76.676286 112.29163623 74.62981246 117.01291774 71.7578125 121.87890625 C70.7850712 123.95629886 70.7850712 123.95629886 71.546875 125.94921875 C73.48395417 128.68299984 75.72619881 130.91270653 78.125 133.25 C79.03507813 134.14203125 79.94515625 135.0340625 80.8828125 135.953125 C81.58148438 136.62859375 82.28015625 137.3040625 83 138 C81.5735422 141.2586636 79.83295838 143.4024854 77.3046875 145.890625 C76.23154297 146.95410156 76.23154297 146.95410156 75.13671875 148.0390625 C74.01716797 149.13347656 74.01716797 149.13347656 72.875 150.25 C72.12089844 150.99507812 71.36679687 151.74015625 70.58984375 152.5078125 C68.73099228 154.3431342 66.86762995 156.1736191 65 158 C61.2341894 154.81968878 57.51561011 151.64858175 54.0625 148.125 C53.47597656 147.52945313 52.88945312 146.93390625 52.28515625 146.3203125 C51.64900391 145.66675781 51.64900391 145.66675781 51 145 C49.04795434 145.9695591 47.10252399 146.94577425 45.17578125 147.96484375 C38.56400063 151.4162764 32.52945285 154 25 154 C25 160.6 25 167.2 25 174 C16.75 174 8.5 174 0 174 C0 167.4 0 160.8 0 154 C-2.64 153.67 -5.28 153.34 -8 153 C-14.59124277 151.4341831 -20.18838297 148.41317191 -26 145 C-30.29 149.29 -34.58 153.58 -39 158 C-40.32 157.34 -41.64 156.68 -43 156 C-43 155.34 -43 154.68 -43 154 C-43.54011719 153.78085937 -44.08023438 153.56171875 -44.63671875 153.3359375 C-47.80340179 151.5458456 -50.24526293 149.16219138 -52.8125 146.625 C-53.32748047 146.14289063 -53.84246094 145.66078125 -54.37304688 145.1640625 C-57.94432032 141.64537809 -57.94432032 141.64537809 -58.171875 139.0078125 C-56.39641859 135.96586385 -53.96768722 133.65699458 -51.4375 131.25 C-50.91736328 130.74339844 -50.39722656 130.23679688 -49.86132812 129.71484375 C-48.58089916 128.46965595 -47.29132446 127.23388498 -46 126 C-48.05393353 120.75105875 -50.36874851 115.62132058 -52.66015625 110.47265625 C-54 107 -54 107 -55 101 C-61.27 100.67 -67.54 100.34 -74 100 C-74 91.42 -74 82.84 -74 74 C-67.73 73.67 -61.46 73.34 -55 73 C-54.443125 71.06125 -53.88625 69.1225 -53.3125 67.125 C-51.676286 61.70836377 -49.62981246 56.98708226 -46.7578125 52.12109375 C-45.78570194 50.04189742 -45.78570194 50.04189742 -46.54296875 48.03515625 C-49.17958773 44.3523721 -52.65570368 41.48791382 -55.98046875 38.4375 C-58 36 -58 36 -57.85107422 34.09082031 C-56.79010057 31.48434345 -55.41447974 30.07398022 -53.40234375 28.109375 C-52.68369141 27.40039062 -51.96503906 26.69140625 -51.22460938 25.9609375 C-50.46986328 25.23132813 -49.71511719 24.50171875 -48.9375 23.75 C-48.17888672 23.00492188 -47.42027344 22.25984375 -46.63867188 21.4921875 C-44.76567793 19.65453306 -42.88604389 17.82424276 -41 16 C-36.07172767 18.26152869 -33.1383176 21.99861347 -29.53515625 25.98046875 C-27.20160049 28.2873873 -27.20160049 28.2873873 -24.40625 27.9140625 C-21.62064289 26.85589357 -19.03347046 25.49858974 -16.39453125 24.12109375 C-11.53171919 21.8443775 -5.42981807 19 0 19 C0 12.73 0 6.46 0 0 Z M-13 45 C-13 45.66 -13 46.32 -13 47 C-13.53625 47.061875 -14.0725 47.12375 -14.625 47.1875 C-22.38851009 49.84343766 -27.73468102 58.19750028 -31.75 64.9375 C-32.1625 65.948125 -32.575 66.95875 -33 68 C-33.41572266 68.96873047 -33.41572266 68.96873047 -33.83984375 69.95703125 C-37.59593958 80.1175301 -37.73697347 93.72757394 -33.96484375 103.9140625 C-30.38915025 111.64450917 -25.1379328 118.10344658 -19 124 C-17.515 124.495 -17.515 124.495 -16 125 C-16 125.66 -16 126.32 -16 127 C-15.01 127 -14.02 127 -13 127 C-13 127.66 -13 128.32 -13 129 C-0.3825635 135.8726993 13.03529089 137.62172794 27 134 C30.51463867 132.59321596 33.73612754 130.90698166 37 129 C38.32873596 128.32421676 39.6606614 127.65451841 41 127 C41 126.34 41 125.68 41 125 C41.56976563 124.75765625 42.13953125 124.5153125 42.7265625 124.265625 C53.15794006 118.45846636 57.44039839 106.67880482 61 96 C62.16274011 81.03387372 59.79474445 67.97135433 50 56 C47.79600462 53.51935248 45.59325365 51.0786131 43 49 C42.34 49 41.68 49 41 49 C41 48.34 41 47.68 41 47 C23.83522885 36.96933686 4.8474683 34.2257219 -13 45 Z " fill="#FAFAFA" transform="translate(224,111)"/>
<path d="M0 0 C9.57 0 19.14 0 29 0 C29 5.28 29 10.56 29 16 C30.65 16.33 32.3 16.66 34 17 C34.6703125 17.2784375 35.340625 17.556875 36.03125 17.84375 C36.6809375 17.8953125 37.330625 17.946875 38 18 C40.33344644 16.08466296 40.33344644 16.08466296 42.5 13.5 C44.78125 10.90625 44.78125 10.90625 47 9 C51.62853989 9.11374484 54.85355729 12.94589082 58 16 C59.7385815 17.94917025 61.35640166 19.96712837 63 22 C63.94875 22.86625 64.8975 23.7325 65.875 24.625 C68 27 68 27 67.89453125 28.91796875 C66.72671423 31.63607561 65.08882636 32.81863997 62.8125 34.6875 C59.67525405 37.54001525 59.67525405 37.54001525 58.91796875 41.51953125 C59.51354912 44.29557068 59.51354912 44.29557068 61 48 C66.28 48 71.56 48 77 48 C77 57.57 77 67.14 77 77 C71.72 77 66.44 77 61 77 C60.67 78.65 60.34 80.3 60 82 C58.9375 84.3125 58.9375 84.3125 58 86 C59.485 86.495 59.485 86.495 61 87 C63.1875 88.9375 63.1875 88.9375 65 91 C65 91.66 65 92.32 65 93 C66.485 93.495 66.485 93.495 68 94 C67.6251782 99.00067137 65.02967208 101.51273903 61.5625 104.8125 C61.05912109 105.31458984 60.55574219 105.81667969 60.03710938 106.33398438 C56.28131378 110 56.28131378 110 54 110 C53.5978125 110.8971875 53.5978125 110.8971875 53.1875 111.8125 C52.00082594 113.99847854 50.90400887 115.41332594 49 117 C48.34 117 47.68 117 47 117 C45.17270951 115.06469234 43.53104622 113.00952377 41.8515625 110.9453125 C39.89021822 108.88465965 38.73618196 107.78603045 36 107 C34.02 107.66 32.04 108.32 30 109 C29.67 113.95 29.34 118.9 29 124 C19.43 124 9.86 124 0 124 C-0.495 116.575 -0.495 116.575 -1 109 C-5.41558265 106.83514568 -5.41558265 106.83514568 -8.015625 107.08984375 C-10.85332154 108.39138566 -12.59903902 110.31664368 -14.75 112.5625 C-15.54921875 113.38878906 -16.3484375 114.21507812 -17.171875 115.06640625 C-17.77515625 115.70449219 -18.3784375 116.34257812 -19 117 C-24.06623768 112.76183463 -28.80038069 108.32591037 -33.4375 103.625 C-34.07365234 102.98433594 -34.70980469 102.34367187 -35.36523438 101.68359375 C-36.91250332 100.12469121 -38.45736492 98.56348584 -40 97 C-39.05322974 95.87423834 -38.10342116 94.75103147 -37.15234375 93.62890625 C-36.35944946 92.69026733 -36.35944946 92.69026733 -35.55053711 91.73266602 C-34 90 -34 90 -31.5625 87.9375 C-29.64761191 86.00794248 -29.64761191 86.00794248 -30.1875 82.875 C-30.87866949 80.08673426 -30.87866949 80.08673426 -32 78 C-34.55757859 77.68658574 -36.99643821 77.48771761 -39.5625 77.375 C-42.016875 77.25125 -44.47125 77.1275 -47 77 C-47 67.43 -47 57.86 -47 48 C-42.05 47.67 -37.1 47.34 -32 47 C-31.34 44.36 -30.68 41.72 -30 39 C-30.47050781 38.62488281 -30.94101562 38.24976563 -31.42578125 37.86328125 C-35.06639484 34.87089285 -37.85453304 32.29093391 -40 28 C-38.37660195 26.29115995 -36.70680947 24.62553283 -35 23 C-34.34 23 -33.68 23 -33 23 C-32.79375 22.46375 -32.5875 21.9275 -32.375 21.375 C-30.46749574 18.08021991 -27.95180616 15.40636372 -25 13 C-24.34 13 -23.68 13 -23 13 C-22.34 11.68 -21.68 10.36 -21 9 C-17.44063745 9.29661355 -16.27313438 9.68669879 -13.875 12.4375 C-12.946875 13.7059375 -12.946875 13.7059375 -12 15 C-11.01 15.66 -10.02 16.32 -9 17 C-9 17.66 -9 18.32 -9 19 C-8.071875 18.505 -7.14375 18.01 -6.1875 17.5 C-3 16 -3 16 0 16 C0 10.72 0 5.44 0 0 Z M-4 47 C-8.56829526 53.64807179 -10.29469433 59.99207584 -9 68 C-6.6368499 75.39112903 -1.78697358 80.34547577 5 84 C5.90685547 84.52207031 5.90685547 84.52207031 6.83203125 85.0546875 C11.85339288 87.24418212 17.64966338 86.77348649 22.765625 85.08984375 C29.62629027 81.89573163 33.0758638 78.38382572 36.8125 71.8125 C38.92572014 65.02795114 39.11015698 57.54161256 36.2421875 50.91796875 C33.0286287 45.95615312 28.32407679 42.21256181 23.125 39.5 C12.86232167 37.85797147 3.25946702 38.68352268 -4 47 Z " fill="#F9F9FA" transform="translate(345,259)"/>
<path d="M0 0 C9.24 0 18.48 0 28 0 C28.495 7.425 28.495 7.425 29 15 C33.41363834 16.79070156 33.41363834 16.79070156 38 17 C41.54566481 14.44988972 44.25869749 11.38288395 47 8 C50.86807515 9.29156619 52.93864547 10.65309336 55.5 13.8125 C58.19605547 17.04659691 60.97889097 20.06054257 64 23 C65.33333333 24.33333333 66.66666667 25.66666667 68 27 C67.505 28.485 67.505 28.485 67 30 C66.34 30 65.68 30 65 30 C64.731875 30.598125 64.46375 31.19625 64.1875 31.8125 C63.00082594 33.99847854 61.90400887 35.41332594 60 37 C59.34 37 58.68 37 58 37 C58.99 41.95 58.99 41.95 60 47 C65.28 47 70.56 47 76 47 C76 56.57 76 66.14 76 76 C68.625 76.25 68.625 76.25 66.30712891 76.29785156 C64.18995441 76.36765817 64.18995441 76.36765817 61 77 C59.21299151 79.30921741 59.03180299 80.73285492 58.6875 83.625 C58.790625 84.40875 58.89375 85.1925 59 86 C60.485 86.99 60.485 86.99 62 88 C62 88.66 62 89.32 62 90 C63.485 90.495 63.485 90.495 65 91 C66.75 92.3125 66.75 92.3125 68 94 C67.6875 96.1875 67.6875 96.1875 67 98 C66.34 98 65.68 98 65 98 C64.505 99.485 64.505 99.485 64 101 C63.34 101 62.68 101 62 101 C61.505 102.485 61.505 102.485 61 104 C59.0625 106.1875 59.0625 106.1875 57 108 C56.34 108 55.68 108 55 108 C54.505 109.485 54.505 109.485 54 111 C53.34 111 52.68 111 52 111 C51.505 112.485 51.505 112.485 51 114 C48.9375 115.1875 48.9375 115.1875 47 116 C43.12948725 112.92118304 39.97088618 109.99926986 37 106 C32.545 106.99 32.545 106.99 28 108 C28 113.28 28 118.56 28 124 C18.76 124 9.52 124 0 124 C0 118.72 0 113.44 0 108 C-5.64380219 106.89040068 -5.64380219 106.89040068 -10 107 C-11.92386394 108.51516011 -11.92386394 108.51516011 -13.625 110.5 C-14.7149779 111.69945166 -15.83405104 112.87425618 -17 114 C-17.66 114 -18.32 114 -19 114 C-19 114.66 -19 115.32 -19 116 C-22.36335594 114.54254576 -24.54534005 112.68882146 -27.109375 110.0859375 C-28.24052734 108.94511719 -28.24052734 108.94511719 -29.39453125 107.78125 C-30.17183594 106.9871875 -30.94914062 106.193125 -31.75 105.375 C-32.54277344 104.57320313 -33.33554688 103.77140625 -34.15234375 102.9453125 C-36.10614493 100.96797154 -38.05512103 98.98611091 -40 97 C-38.25848527 93.22003024 -36.02198753 90.8745735 -33 88 C-32.401875 87.401875 -31.80375 86.80375 -31.1875 86.1875 C-30.795625 85.795625 -30.40375 85.40375 -30 85 C-30.4640625 83.8553125 -30.4640625 83.8553125 -30.9375 82.6875 C-31.67893593 80.81210323 -32.36228217 78.91315348 -33 77 C-37.95 76.67 -42.9 76.34 -48 76 C-48 66.43 -48 56.86 -48 47 C-42.72 47 -37.44 47 -32 47 C-31.67 45.35 -31.34 43.7 -31 42 C-30.67 41.01 -30.34 40.02 -30 39 C-30.721875 38.278125 -31.44375 37.55625 -32.1875 36.8125 C-34.79166667 34.20833333 -37.39583333 31.60416667 -40 29 C-38.54254576 25.63664406 -36.68882146 23.45465995 -34.0859375 20.890625 C-33.32539062 20.13652344 -32.56484375 19.38242187 -31.78125 18.60546875 C-30.9871875 17.82816406 -30.193125 17.05085938 -29.375 16.25 C-28.57320312 15.45722656 -27.77140625 14.66445313 -26.9453125 13.84765625 C-24.96797154 11.89385507 -22.98611091 9.94487897 -21 8 C-18.5625 8.8125 -18.5625 8.8125 -16 10 C-15.505 11.485 -15.505 11.485 -15 13 C-14.01 13.33 -13.02 13.66 -12 14 C-11.53980469 14.53238281 -11.07960937 15.06476562 -10.60546875 15.61328125 C-9.06700097 17.26945325 -9.06700097 17.26945325 -6.73828125 16.85546875 C-4.4921875 16.23697917 -2.24609375 15.61848958 0 15 C0 10.05 0 5.1 0 0 Z M-3.3125 45.4375 C-4.22711613 46.6105946 -5.12509117 47.79700036 -6 49 C-6.598125 49.804375 -7.19625 50.60875 -7.8125 51.4375 C-10.49895605 57.23458938 -10.55567876 63.86371154 -9 70 C-6.0361978 76.8760211 -1.3223097 80.93676155 5.4140625 84.15234375 C11.56818526 86.16963172 19.18776169 85.84153873 25 83 C31.75239629 79.15301725 35.61789503 74.43172841 38 67 C39.21792912 59.96187862 37.69128006 54.05226114 34 48 C29.42506367 42.60392125 23.51985293 38.58102743 16.38671875 37.6640625 C7.99385785 37.54260286 2.36320313 39.06624502 -3.3125 45.4375 Z " fill="#F9F9FA" transform="translate(99,13)"/>
<path d="M0 0 C22.72300817 -0.07020398 45.44599836 -0.12304388 68.16909313 -0.15543652 C78.72075726 -0.17087939 89.27235384 -0.19191942 99.82397461 -0.22631836 C109.02500004 -0.25629987 118.22597653 -0.27559374 127.42704946 -0.28226548 C132.29510358 -0.28616295 137.16301775 -0.29526837 142.03102684 -0.31719017 C146.62171824 -0.33769382 151.21221325 -0.343806 155.80294609 -0.33932304 C157.47939372 -0.34014208 159.15584856 -0.3460245 160.83225632 -0.35761642 C174.45950319 -0.44714915 186.45469212 1.42116106 199 7 C199 7.66 199 8.32 199 9 C199.66 9.04125 200.32 9.0825 201 9.125 C205.35975872 10.39659629 208.61339542 13.01693943 212 16 C212.33 16.66 212.66 17.32 213 18 C213.99 18.33 214.98 18.66 216 19 C216 19.99 216 20.98 216 22 C216.99 22.33 217.98 22.66 219 23 C219 23.66 219 24.32 219 25 C219.66 25 220.32 25 221 25 C233.3023334 40.74202863 236.34405949 58.5885987 235 78 C233.89645397 85.82953827 231.668143 93.00523075 228 100 C227.62617188 100.76441406 227.25234375 101.52882813 226.8671875 102.31640625 C218.50808209 117.90839029 203.89011183 128.3518012 187.45703125 133.95703125 C186.31621094 134.30121094 185.17539062 134.64539063 184 135 C182.77667969 135.37253906 181.55335938 135.74507812 180.29296875 136.12890625 C175.06770062 137.40110717 169.84591033 137.21620319 164.5 137.125 C163.48679687 137.11597656 162.47359375 137.10695312 161.4296875 137.09765625 C158.95302128 137.07429147 156.47647829 137.03842811 154 137 C154 132.38 154 127.76 154 123 C156.04767578 122.96132812 156.04767578 122.96132812 158.13671875 122.921875 C176.09965057 122.43243972 192.71271703 119.28728297 206 106 C215.61122435 94.24038433 222.18147617 80.55318425 220.71875 65.01171875 C219.20678017 55.09571663 216.28333551 47.07686947 211.3046875 38.3828125 C210 36 210 36 209 33 C206.99983534 31.79117904 206.99983534 31.79117904 205 31 C205 30.34 205 29.68 205 29 C204.01 28.67 203.02 28.34 202 28 C202 27.34 202 26.68 202 26 C201.46375 25.731875 200.9275 25.46375 200.375 25.1875 C197.58333333 23.79166667 194.79166667 22.39583333 192 21 C192 20.34 192 19.68 192 19 C191.236875 18.896875 190.47375 18.79375 189.6875 18.6875 C185.69200182 17.94257661 181.87201617 16.86785138 177.9765625 15.71875 C171.91447256 14.25493826 165.91651507 13.87455994 159.69799805 13.84178162 C159.0092094 13.83684364 158.32042076 13.83190566 157.61075974 13.82681805 C155.32774827 13.81159266 153.04476457 13.80312354 150.76171875 13.79467773 C149.11523703 13.78508741 147.46875771 13.77507667 145.82228088 13.76467896 C141.3704327 13.73774886 136.91857405 13.71667524 132.46669006 13.69667697 C127.80752679 13.67474365 123.14839535 13.64739104 118.48925781 13.62062073 C109.67450743 13.57079285 100.85973929 13.52581745 92.0449543 13.48259836 C82.00624467 13.43314111 71.967567 13.37825457 61.92888832 13.32291877 C41.28595518 13.20925086 20.642991 13.10257157 0 13 C0 8.71 0 4.42 0 0 Z " fill="#F9F9FA" transform="translate(187,68)"/>
<path d="M0 0 C0 4.62 0 9.24 0 14 C-2.15595703 14.03867188 -2.15595703 14.03867188 -4.35546875 14.078125 C-22.99713961 14.56280844 -38.14741166 17.5236548 -52 31 C-52.76763672 31.73089844 -52.76763672 31.73089844 -53.55078125 32.4765625 C-62.37270279 41.73160163 -66.60216095 55.37789309 -67 68 C-66.4115374 80.79277447 -63.12746368 90.43169179 -56 101 C-55.67 101.99 -55.34 102.98 -55 104 C-53.515 104.495 -53.515 104.495 -52 105 C-49.8125 106.9375 -49.8125 106.9375 -48 109 C-48 109.66 -48 110.32 -48 111 C-47.4328125 111.2784375 -46.865625 111.556875 -46.28125 111.84375 C-43.20939436 113.40071793 -40.22103444 115.09503545 -37.21875 116.78125 C-36.4865625 117.1834375 -35.754375 117.585625 -35 118 C-34.45233947 118.32217845 -33.90467894 118.6443569 -33.34042263 118.97629833 C-22.22293282 123.83909222 -8.55820091 123.44578084 3.35180664 123.43237305 C5.00947282 123.44141966 6.66713238 123.45175381 8.32478333 123.46325684 C12.76580213 123.49051318 17.20669298 123.50006799 21.64778447 123.50611091 C26.31092978 123.51557748 30.97398252 123.5417866 35.6370697 123.56611633 C44.44089439 123.60955945 53.24470088 123.63824199 62.04859966 123.66143972 C72.08271428 123.68861129 82.11673474 123.73251474 92.15078175 123.77772844 C112.76713858 123.87025642 133.38352096 123.94148853 154 124 C154 128.29 154 132.58 154 137 C131.12933713 137.07018378 108.2586921 137.12303404 85.38794327 137.15543652 C74.76786949 137.17088365 64.14786276 137.1919319 53.52783203 137.22631836 C44.26785255 137.25628675 35.00792164 137.27559065 25.747895 137.28226548 C20.84801515 137.28616515 15.94827421 137.29528483 11.04843903 137.31719017 C6.42902391 137.33767299 1.80980389 137.34381013 -2.80965233 137.33932304 C-4.49780783 137.340143 -6.18597039 137.34603798 -7.87408638 137.35761642 C-25.53287404 137.47271224 -41.71890651 134.02304935 -56 123 C-56 122.34 -56 121.68 -56 121 C-56.804375 120.690625 -56.804375 120.690625 -57.625 120.375 C-60.91978009 118.46749574 -63.59363628 115.95180616 -66 113 C-66 112.34 -66 111.68 -66 111 C-66.66 111 -67.32 111 -68 111 C-76.93153327 95.8948891 -76.93153327 95.8948891 -79 89 C-79.20238281 88.34 -79.40476563 87.68 -79.61328125 87 C-84.94527132 66.10730423 -79.69479551 47.30197923 -69.421875 29.22265625 C-66.4949523 24.51867334 -63.11964177 21.00893825 -58.83203125 17.5078125 C-57.00442344 16.05777728 -57.00442344 16.05777728 -55.515625 14.48828125 C-49.8094673 8.88506969 -42.50962924 5.45591073 -35 3 C-34.0925 2.69964844 -33.185 2.39929688 -32.25 2.08984375 C-21.66012379 -0.87477003 -10.90128524 -0.26397731 0 0 Z " fill="#F9F9FA" transform="translate(132,191)"/>
<path d="M0 0 C3.6096842 2.06565743 4.98524225 3.56568118 6.75 7.25 C7.74 7.58 8.73 7.91 9.75 8.25 C9.75 8.91 9.75 9.57 9.75 10.25 C10.41 10.25 11.07 10.25 11.75 10.25 C12.55118392 11.59855767 13.34041608 12.95421743 14.125 14.3125 C14.56585938 15.06660156 15.00671875 15.82070312 15.4609375 16.59765625 C19.93671136 25.80690004 20.19995963 36.8447549 17.625 46.6875 C15.93664176 51.55682303 13.09382853 55.37592034 9.75 59.25 C5.96655935 57.51859496 3.6897507 55.1897507 0.75 52.25 C-1.41620544 50.95480005 -1.41620544 50.95480005 -3.25 50.25 C-3.085 49.445625 -2.92 48.64125 -2.75 47.8125 C-1.83000132 41.25750943 -1.13960923 35.50822764 -4.91796875 29.75390625 C-7.98669412 26.28921632 -11.7587611 24.73627356 -16.125 23.3125 C-22.00169763 23.19496605 -26.6823923 24.94921914 -31.1875 28.6875 C-35.38117845 33.89782777 -35.64340433 37.74196836 -35.25 44.25 C-34.96818839 46.2579077 -34.65743184 48.2637698 -34.25 50.25 C-35.18972656 50.83007812 -35.18972656 50.83007812 -36.1484375 51.421875 C-36.96570313 51.94265625 -37.78296875 52.4634375 -38.625 53 C-39.43710938 53.51046875 -40.24921875 54.0209375 -41.0859375 54.546875 C-43.33555679 56.3173335 -44.20906848 57.61907419 -45.25 60.25 C-50.27967284 58.57344239 -51.92642448 53.79728389 -54.25 49.25 C-57.92347235 39.23143905 -57.66711992 27.00038324 -53.25 17.25 C-48.48791822 8.66263941 -48.48791822 8.66263941 -44.25 7.25 C-43.92 6.26 -43.59 5.27 -43.25 4.25 C-41.359375 2.93359375 -41.359375 2.93359375 -39 1.6875 C-37.84757812 1.06681641 -37.84757812 1.06681641 -36.671875 0.43359375 C-35.87265625 0.04300781 -35.0734375 -0.34757813 -34.25 -0.75 C-33.54488281 -1.11996094 -32.83976562 -1.48992187 -32.11328125 -1.87109375 C-22.38393188 -4.85759253 -9.16793922 -4.42205108 0 0 Z " fill="#F9F9FA" transform="translate(255.25,163.75)"/>
<path d="M0 0 C3.98065077 3.49814765 5.2746209 6.43977662 5.625 11.6875 C5.43296165 16.26898626 4.49927045 19.29768629 1.2421875 22.5859375 C-3.46690058 25.23585445 -8.77218257 24.79189785 -13.9375 23.8125 C-17.125 21.4375 -17.125 21.4375 -18.9375 18.8125 C-19.5975 18.1525 -20.2575 17.4925 -20.9375 16.8125 C-21.70727336 11.83582573 -21.44371194 7.82492388 -19.1875 3.3125 C-14.12505416 -2.31243982 -6.8661555 -2.77567988 0 0 Z " fill="#FAFAFB" transform="translate(120.9375,63.1875)"/>
<path d="M0 0 C1.11246094 -0.01933594 2.22492188 -0.03867187 3.37109375 -0.05859375 C7.21399172 0.53877228 8.80464939 1.74774446 11.5625 4.4375 C14.40018574 8.69402862 14.19977624 12.44032166 13.5625 17.4375 C11.49762518 21.56724965 9.8166445 23.73277061 5.5625 25.4375 C0.54434011 26.1496481 -3.37924495 25.96662753 -7.9375 23.6875 C-10.95971125 20.96750987 -12.26021211 19.06437711 -12.703125 15 C-12.69796875 14.154375 -12.6928125 13.30875 -12.6875 12.4375 C-12.69265625 11.591875 -12.6978125 10.74625 -12.703125 9.875 C-12.30947623 6.26269362 -11.27708709 4.27708709 -8.71484375 1.71484375 C-5.69738032 0.02237284 -3.44596382 0.00398377 0 0 Z " fill="#FAFAFB" transform="translate(359.4375,308.5625)"/>
<path d="M0 0 C0.98097656 -0.02449219 1.96195313 -0.04898438 2.97265625 -0.07421875 C8.99766795 -0.09861151 12.5796937 0.29016591 17.125 4.375 C18.5 7.125 18.5 7.125 19.125 9.375 C12.59313896 13.26172723 7.59823328 13.99761532 0.0625 13.875 C-0.89205078 13.89046875 -1.84660156 13.9059375 -2.83007812 13.921875 C-9.04097014 13.88758436 -12.77130674 12.94263024 -17.875 9.375 C-15.19034966 2.57388579 -15.19034966 2.57388579 -13.12451172 1.27099609 C-8.92229551 -0.40277572 -4.46780294 0.00582504 0 0 Z " fill="#F9F9FA" transform="translate(235.875,221.625)"/>
<path d="M0 0 C2.09375 -0.3984375 2.09375 -0.3984375 4.5 -0.375 C5.2940625 -0.38273438 6.088125 -0.39046875 6.90625 -0.3984375 C7.5971875 -0.26695312 8.288125 -0.13546875 9 0 C11.46324069 3.69486103 11.38991688 5.63293092 11 10 C9.9375 11.9375 9.9375 11.9375 8 13 C4.5906288 13.36528977 2.11976176 13.6140629 -0.9375 11.9375 C-2.5957539 8.91362524 -2.30144019 6.37613017 -2 3 C-1.34 2.01 -0.68 1.02 0 0 Z " fill="#FAFAFB" transform="translate(232,198)"/>
</svg>
